<svg id="Capa_2" data-name="Capa 2" xmlns="http://www.w3.org/2000/svg" viewBox="0 0 60 60"><defs><style>.cls-1{fill:#fff;}.cls-2{fill:#8313f8;}.cls-3{fill:none;}</style></defs><rect class="cls-1" x="15.35" y="16.99" width="28.8" height="28.8"/><path class="cls-2" d="M1.18,31.63v-.54c0-1.69,0-1.71,1.59-2.31a5.2,5.2,0,0,0,3.42-4.17c.62-3.58.87-7.22,1.49-10.79a6.23,6.23,0,0,1,2.38-4.33,6.8,6.8,0,0,1,4-.91q11.84,0,23.68,0c2.86,0,5.72.11,8.57,0,3.68-.18,6.12,2.05,6.46,5.67.15,1.57.22,3.16.4,4.73.23,1.87.49,3.73.83,5.58.48,2.55,2.39,3.83,4.6,4.65,1,.37.54,1,.64,1.57s0,.84-.67,1.08a6.94,6.94,0,0,0-4.67,5.42c-.63,3-1.35,5.91-1.07,9a6.93,6.93,0,0,1-.05,1.11,5,5,0,0,1-4.59,4.9,16.25,16.25,0,0,1-2.32.17c-10.69,0-21.37,0-32.06-.06a9.71,9.71,0,0,1-3.74-.88c-1.8-.8-2.49-2.47-2.62-4.36-.14-2.17-.17-4.34-.35-6.51a13.73,13.73,0,0,0-1.78-5.79A6.72,6.72,0,0,0,1.18,31.63Zm34.44-1.85a10.33,10.33,0,0,1,1.36-.9c1-.48,2.26-3.35,2-4.36A22.18,22.18,0,0,0,38.19,22a4.29,4.29,0,0,0-1.1-1.58,6,6,0,0,0-3.88-1.33L22,19a1,1,0,0,0-.29.09V42.37H32.59a8.52,8.52,0,0,0,4.38-1c1.21-.71,2.46-1.49,2.72-3a20.61,20.61,0,0,0,.21-4.08A2.74,2.74,0,0,0,38.69,32C37.67,31.32,36.7,30.57,35.62,29.78Z"/><path class="cls-2" d="M25.74,39.53V31.89a6.43,6.43,0,0,1,.72-.09c2,0,4,0,5.95.06,2.77.15,4.25,2.27,3.56,5a3.43,3.43,0,0,1-2.83,2.49,7.83,7.83,0,0,1-1.75.21C29.54,39.54,27.69,39.53,25.74,39.53Z"/><path class="cls-2" d="M25.75,29.15V21.9c1.39,0,2.81,0,4.21,0a24.71,24.71,0,0,1,3.21.41,1.58,1.58,0,0,1,.82.54,4.56,4.56,0,0,1,.46,4.33,2.46,2.46,0,0,1-1.13,1C30.89,29.08,28.34,29,25.75,29.15Z"/><rect class="cls-3" width="60" height="60"/></svg>