<svg xmlns="http://www.w3.org/2000/svg" viewBox="0 0 55.41 57.72"><defs><style>.cls-1{fill:#fff;}.cls-2{fill:#274ee3;}.cls-3{fill:#2a65f0;}</style></defs><g id="Capa_2" data-name="Capa 2"><rect class="cls-1" x="9.43" y="10.25" width="37.08" height="37.68"/></g><g id="Capa_1" data-name="Capa 1"><path class="cls-2" d="M2.75,2.18h55.4c-.11.75-.23,1.45-.32,2.16-.07.5-.13,1-.18,1.52q-.59,6.61-1.18,13.21c-.4,4.25-.82,8.5-1.22,12.75-.09.88-.16,1.77-.25,2.65-.33,3.25-.68,6.5-1,9.75-.2,1.94-.33,3.89-.52,5.83-.13,1.31-.3,2.61-.49,3.91,0,.14-.26.31-.43.36q-3.26.85-6.51,1.68l-7.38,1.88c-2.46.63-4.93,1.24-7.37,1.91a3.84,3.84,0,0,1-2,0l-9.83-2.54Q13.9,55.79,8.35,54.4c-.43-.11-.64-.25-.68-.77-.15-2.24-.36-4.48-.58-6.72-.3-3.09-.63-6.18-.93-9.28-.22-2.2-.38-4.4-.6-6.6-.41-4.19-.84-8.38-1.26-12.57-.07-.73-.09-1.46-.17-2.18-.15-1.39-.35-2.76-.48-4.15-.21-2-.38-4-.56-6C3,4.83,2.86,3.53,2.75,2.18Zm27.61,30q0,4.7,0,9.4a3.8,3.8,0,0,1-.16.71l-7.55-1.83-.47-5.05h-7c0,.6.07,1.15.12,1.7.27,2.6.56,5.19.82,7.79a.55.55,0,0,0,.5.58q4.61,1.16,9.2,2.36c1.5.38,3,.78,4.51,1.18v6.59l3.09-.79c2-.53,4.1-1.07,6.16-1.59,1.4-.36,2.82-.68,4.23-1s2.93-.75,4.38-1.17a.88.88,0,0,0,.49-.6c.14-.73.2-1.49.28-2.24.16-1.48.32-3,.45-4.44s.22-3.14.38-4.7c.2-2,.47-3.95.69-5.92.14-1.37.24-2.74.36-4.11.19-2.2.38-4.41.59-6.62.18-1.74.41-3.48.59-5.22.14-1.51.23-3,.36-4.52.1-1.08.23-2.15.32-3.22s.16-1.94.23-2.95a4.23,4.23,0,0,0-.48,0c-7.19,0-14.38,0-21.57,0-.46,0-.57.16-.56.59,0,1.93,0,3.87,0,5.8l-.7,0H13.07l.59,6.39H25.5l4.86,0v6.48l-.65,0H14.22L15,32.11H26.8Z" transform="translate(-2.75 -2.18)"/><path class="cls-3" d="M30.36,49l5-1.31,5.43-1.37c1.13-.29,2.24-.62,3.37-.85.41-.09.53-.26.55-.61.13-1.43.25-2.87.38-4.3q.35-3.84.7-7.66.54-5.64,1.09-11.27c.17-1.79.3-3.57.49-5.36.12-1.12.32-2.24.49-3.45H31.06l-.71,0c0-1.93,0-3.87,0-5.8,0-.43.1-.59.56-.59,7.19,0,14.38,0,21.57,0a4.23,4.23,0,0,1,.48,0c-.07,1-.14,2-.23,3s-.22,2.14-.32,3.22c-.13,1.5-.22,3-.36,4.52-.18,1.74-.41,3.48-.59,5.22-.21,2.21-.4,4.42-.59,6.62-.12,1.37-.22,2.74-.36,4.11-.22,2-.49,3.94-.69,5.92-.16,1.56-.24,3.13-.38,4.7s-.29,3-.45,4.44c-.08.75-.14,1.51-.28,2.24a.88.88,0,0,1-.49.6c-1.45.42-2.92.8-4.38,1.17s-2.83.67-4.23,1c-2.06.52-4.11,1.06-6.16,1.59l-3.09.79Z" transform="translate(-2.75 -2.18)"/><path class="cls-3" d="M30.36,32.14H39L38,40.4l-3,.76-4.47,1.1a1.22,1.22,0,0,1-.33,0,3.8,3.8,0,0,0,.16-.71Q30.37,36.83,30.36,32.14Z" transform="translate(-2.75 -2.18)"/><path class="cls-3" d="M30.36,19.23h9.79l-.72,6.48H30.36Z" transform="translate(-2.75 -2.18)"/></g></svg>