<svg id="Capa_1" data-name="Capa 1" xmlns="http://www.w3.org/2000/svg" viewBox="0 0 262.49 313.04"><defs><style>.cls-1,.cls-6{fill:#669;}.cls-2{fill:#010015;}.cls-3{fill:#f69;}.cls-4{fill:#fdfdfe;}.cls-5{fill:#9cf;}.cls-10,.cls-6,.cls-8,.cls-9{stroke:#010015;stroke-miterlimit:10;stroke-width:2px;}.cls-7,.cls-8{fill:#639;}.cls-9{fill:#6cc;}.cls-10{fill:#fff;}.cls-11{fill:#f3e600;}</style></defs><g id="Astronauta"><path class="cls-1" d="M166.23,265.83l1.63-.42.58,1.92-1.67.46Z" transform="translate(-34.51 -6.23)"/><path class="cls-1" d="M296.86,147c0-.4.09-.8.14-1.2C297,146.24,296.9,146.64,296.86,147Z" transform="translate(-34.51 -6.23)"/><path class="cls-1" d="M145.63,33.55c3.36-8.34,10.09-13.34,17.58-17.48,9.15-5,18.77-8,30.53-6.06-5.42,1.87-10.3,2.57-13,7.27,3.68-2.08,7.86-2.39,11.71-3.75,10.62-3.75,19.52-.67,27.48,6.54,10.06,9.11,16.74,20,17.83,33.83.11,1.43-.06,2.88-.11,4.93C234.39,55,233,50.47,229,48c-5.32-3.3-9.79-3.54-14.71.35-2.53,2-4,1.84-6.25-.35a65.81,65.81,0,0,0-30.37-17.33c-3.81-1-5-2.75-2.73-5.93-1.23-.86-2-.63-2.28-.08-2.17,4.06-6,4.74-10,4.87-5.8.2-10.79,3.07-16.2,4.52Z" transform="translate(-34.51 -6.23)"/><path class="cls-1" d="M157.32,304.7c-4.51,3.74-8.54,7.17-12.68,10.47-1.6,1.27-3.6,2.2-5.46.68s-1-3.49,0-5.36C143.34,302.83,144.46,302.42,157.32,304.7Z" transform="translate(-34.51 -6.23)"/><path class="cls-1" d="M53.38,262.41c-4.2,2-8.51,1.27-12.52,2.23A2.65,2.65,0,0,1,37.57,263c-.42-1.49,1.17-1.82,2.06-2.43C46.79,255.71,47.85,255.83,53.38,262.41Z" transform="translate(-34.51 -6.23)"/><path class="cls-1" d="M222.77,80.46A3.1,3.1,0,0,1,220.15,83c-.82.21-1.82.22-1.76-.92s-.15-2.86,1.93-2.59C221.19,79.6,222.37,79.09,222.77,80.46Z" transform="translate(-34.51 -6.23)"/><path class="cls-1" d="M187.31,191.15l-5.06-.36c1.91-.72,3.74-1.88,5.93-1.11Z" transform="translate(-34.51 -6.23)"/><path class="cls-1" d="M49.3,96.27c.39-.72,1-1.39,1.8-.91s.39,1.31-.12,1.93Z" transform="translate(-34.51 -6.23)"/><path class="cls-1" d="M140,136.11l1.08-.52Z" transform="translate(-34.51 -6.23)"/><path class="cls-1" d="M146.43,34c-.21.53-.52.9-1.06.41-.09-.09.17-.58.27-.88Z" transform="translate(-34.51 -6.23)"/><path class="cls-1" d="M112,134.49c-.35,1-.67.69-1,0A1.88,1.88,0,0,1,112,134.49Z" transform="translate(-34.51 -6.23)"/><path class="cls-1" d="M130.77,182.92l.71,1.26C131.25,183.76,131,183.34,130.77,182.92Z" transform="translate(-34.51 -6.23)"/><path class="cls-1" d="M163.12,256.35l-.47-1a5.21,5.21,0,0,1,.59.56C163.29,256,163.17,256.21,163.12,256.35Z" transform="translate(-34.51 -6.23)"/><path class="cls-1" d="M164.26,259.14a4.35,4.35,0,0,1-.49-.57c-.06-.08,0-.24.06-.37a6.22,6.22,0,0,1,.43.58C164.31,258.87,164.26,259,164.26,259.14Z" transform="translate(-34.51 -6.23)"/><path class="cls-1" d="M246.76,88.09c.14.76.37,2.13-.32,2-1.07-.14-1-1.43-.69-2.41Z" transform="translate(-34.51 -6.23)"/><path class="cls-1" d="M161,194.91l-.33.07-.29.17c-.41-.26-.43-.56,0-.71C160.49,194.39,160.76,194.74,161,194.91Z" transform="translate(-34.51 -6.23)"/><path class="cls-1" d="M159.72,196.26c.05-.5.09-1,.13-1.51a.42.42,0,0,1,.55.32Z" transform="translate(-34.51 -6.23)"/><path class="cls-1" d="M130.76,186.27c2.82-.4,2,1.09,1.3,2.51Z" transform="translate(-34.51 -6.23)"/><path class="cls-2" d="M296.86,147c-.41,13.25-.71,26.51-1.29,39.75a14.22,14.22,0,0,1-12.9,13.58,18.93,18.93,0,0,0-8.05,2.39c-6.47,4-13.92,3-21,3.75-5.14.54-6.33-3.89-6.76-8.12-.79-7.79-.77-7.78-8.74-6.54a22.76,22.76,0,0,1-4,.2c-2.4-.06-4.1.63-4.87,3.2-4.41,14.84-15.44,23.94-27.83,31.83-11.87,7.56-23.15,16.09-35.92,22.19-2.25,1.07-2.35,2.32-1.65,4.32,1.38,3.91,2.62,7.88,3.92,11.82l-1.63.42c-.66-2.23-1.31-4.46-2-6.69,0-.12.05-.27,0-.36a6.22,6.22,0,0,0-.43-.58c-.24-.61-.47-1.23-.71-1.85,0-.14.17-.33.12-.4a5.21,5.21,0,0,0-.59-.56c-1-4.42-3.27-5.36-7.9-4.32-6.14,1.37-12.71,2.93-18.67-1.2,5-1,10.27.48,15.28-1.06,5.87-.18,11.55-1,16.77-4,11.48-6.68,22.19-14.52,33.35-21.68,7.17-4.6,14.07-9.4,19.17-16.41,1.6-2.2,1.51-3.39-1-4.88a74.42,74.42,0,0,0-32.35-10.65l.87-1.47c8.84-.47,16.72,3.08,24.75,6,11,6.15,11,6.15,15.7-5.35.69-1.69,1.36-3.39,2.1-5,7.41-16.75,9.6-34.29,8.2-52.44-.26-3.36-1.59-5.23-4.74-6-2.72-.68-5.42-1.4-8.13-2.11-.66-4.6,2.65-2.34,3.95-1.91,6.25,2.06,12.39,4.47,18.57,6.76.75,1.64.9,3.73,3.19,4.2l.45,28.65c-.88,4.76,1.7,5.81,5.83,5.94,8.46.26,16.83.42,24.84-3.08,1.17-.51,3.34-2,4.15.87a68.9,68.9,0,0,1-10.82,3.67c-6.9,1.52-13.83,1.15-20.77.66-1.75-.13-3.52-.49-3.51,2a13.68,13.68,0,0,1-4.79,10.48,4,4,0,0,0-.53,5.48c.8,1.11,1.6,2.79,3.43,2.39,2.5-.54.22-3.4,2.16-4.65,1.56,3.68,1.8,7.19,0,10.66-1,1.93-3.4,3.51-.44,5.82,2.62,2,4.7.56,6.79-.75,3.35-2.09,5.28-5.47,7.16-9.47,2.2,4.32-2.25,6.7-1.43,10,6.95-.3,9.52-5.11,11.22-10.82,2.39,1.91.19,4.59,1.59,6.62,4-1.94,7-4.51,7.67-9.08,3.11,1.34.6,3.87,1.22,5.73-.13.23-.39.62-.35.66.44.38.73.11,1-.3,4.77-1.66,6.46-5.45,6.73-10,.5-8.25.86-16.51,1.26-24.78.06-1.17.05-2.34-1.15-3.19-9.16,5.71-19.44,7.11-30,7.38-1.58,0-3.45.3-4.11-1.87,3-1.07,6.2-.85,9.32-1.14,6.93-.66,13.68-2,19.94-5.23,3.51-.73,6.38-2.2,6.33-6.36-.17-13.16-1.53-26.12-8.36-37.77-1.43-2.45-2.1-6.74-5-6.62-2,.08-2.92,4.32-4,6.89-.84,1.21-1.61,2.48-2.54,3.62-5.32,6.44-10.43,13.18-19.25,15.21-2.43-2.63.73-2.55,1.68-3,10-4.9,16.76-12.72,20.67-23.06.57-1.51,2-3.24-.26-5.14-4.07,9.93-9.12,19-19.3,23.69-.7-1.8-.65-2.26,1.24-3.58,5.87-4.12,10.63-9.16,13.54-15.79,2.9-5.35,2.27-7.83-2.16-11.82-2.69-2.42-6.79-3.41-7.86-7.5,2.29,0,1.89-1.89,2.15-3.22,1.79-9.31,1.67-18.68,1.24-28.11-.34-7.33-3.88-11.91-10.28-15a127.31,127.31,0,0,0-22.36-8.08l-1-.31c.1.39.21.77.31,1.15q2.37,5.28,4.75,10.57c2.36,8.25,3.21,16.52,1.39,25.06-.78,3.66.14,6.71,5,7.47,2.86.44,6.46.62,7.91,4.21-2,.6-3.43-1.66-5.52-1.22-.51,3,.19,5.91.42,8.82l-.61,1.64-1-.36c-.49-3.41.11-7.09-2.89-11.36.5,11.93-.19,22.38-7.26,31.16l-1-.65c2.25-5.65,6.26-10.71,5.74-17.28a9.09,9.09,0,0,0-.37-1.72c-.94,0-.47.81-.56,1.32-2.25,3.26-4.34,6.68-7.65,9-21.65,15.29-45.21,19.54-70.69,11.92a19.65,19.65,0,0,1-11.63-9.48c-1.87-3.23-3-7.2-6.74-9.61-.22,1.71-.42,3-.54,4.32s-.2,2.84-.35,5.06c-1.59-4.1-1.59-4.1-.84-11.92-5.73,1.11-3.16,6.68-5.26,9.81L134,91.56c-6.19,2.83-10.9,7.68-16.77,10.57-6.57,3.23-8.7,8.74-8.37,15.52A41.54,41.54,0,0,0,112.62,134a.77.77,0,0,0-.58.45,1.88,1.88,0,0,0-1,0,41.31,41.31,0,0,1-3.37-26.53c.66-3.19-.86-3.76-3.26-4.05l-15.32-6L84.56,96c-5.17-2.47-11.35-3.11-15.12-8.1-2-2.7-4.18-3.8-6.93-1.11-3.21,3.13-3.61,7.3-.9,9.63,1.79,1.55,3.61,2.2,4-1.13.21-1.65.35-3.12,2.78-3.54-.35,2.18-.56,4-.94,5.69-.31,1.43-.54,3-2.35,3.48-2,.58-3.14-.72-4.27-1.87a34,34,0,0,1-2.31-3.21c-3.31-4.29-14.15-6.11-18.65-3.14,3.48,3.59,5.19,4.24,9.39,3.57l1.68,1c-2.83,6.1-4.19,12.36-2,19,.42,3.51.61,6.87-2.24,9.73a2.89,2.89,0,0,0,0,4.43c1.58,1.41,3.13.3,3.77-.82,2.71-4.67,6.54-3.55,10.47-2.44,2.39.68,4.79,1.34,7.17,2,1.13.33,2.09.66,3.09-.56,6-7.3,10.7-15.13,10.93-24.95.92-1.66.11-3.83,1.64-5.47l1.21,2.65c.12,5.51-2,10.57-3.19,15.81-.12.42-.25.84-.37,1.26-.35.92-1.67,1.67-.67,2.78.2.22,1.22-.31,1.86-.49.65,2.51-1.84,4-2.06,6.16-3.58,5.85-3.61,5.93,2.49,8.78,4.63,2.17,9.32,4.23,14.07,6.13,4.15,1.67,8.3,3.46,13.22,3.8l-5-11.2c-1.27-5.88-3.67-11.63-2.21-17.85,2.24,2.53,2,5.81,2.55,8.8a63.77,63.77,0,0,0,5.93,17.34c1.29,2.6,2.66,3.23,5.41,2.19,7.6-2.9,15.3-5.53,23-8.27l1.08-.51c3.18-1.2,4.54-3.33,3.82-6.82-.52-2.53-.68-5.13-1-7.7.9-2.39-1.77-5,.39-7.63,7.25,18.42,2.09,40.73-12.1,53.18l-4.85,4.27c-2.74,1.47-3.18,3.07-.87,5.56,1.73,1.87,2.87,4.29,4.27,6.46l.71,1.26c.18,1.09-.12,1.75-1.38,1.54-.88-1.59-1.68-3.22-2.64-4.76-3.52-5.63-4.59-5.81-10.8-2.71a56.23,56.23,0,0,1-15,5.37c-7.87,1.47-15.71,3.19-22.94,6.65-6.6,3.16-14.4,4.34-19.07,10.91-4.54,3,1.19,3.09,1.34,4.76-6,.56-7.8,4.78-9.24,9.9a109.7,109.7,0,0,0-3.93,29.8c0,5.82,1.73,10.72,7.28,13.57,9.36,5.43,16.62,3.67,23.11-4.76,5.3-6.89,6.39-15.06,8.66-23,1.72-5.95.67-10.68-4.23-14.49-2.55-3.39-6.75-4.71-9.58-7.75,3.21-1,4.87,2.18,7.47,2.82l1.9.87c.22.22.37,1,.74.1H82.4a2,2,0,0,0-1.18-2.14C80,209.1,78,208.2,76.32,207c-3.15-2.32-7.47-2.08-10.39-4.87,10.25-.65,16.3,5.61,21.58,13.12,4.08,8.71,4.08,8.74,13.87,6.33s19.69-5,29.56-7.33a12.55,12.55,0,0,0,7.64-5.17c1.37-1.93,2.59-3.65-.29-5.66a6.13,6.13,0,0,1-2.35-6.66c1.43-6.68-1.27-12.36-4.56-17.87-.72-1.22-2.3-2-1.87-3.81,6.1,4.72,8.28,11.55,8.55,18.64.18,4.85,2,7.69,5.79,9.93,1.41,1.77-.65,2.77-.93,4.17-5.64,6.65-11.06,13.51-17,19.88-4.35,4.67-7.35,9.07-2.72,15.13-1.89.47-2.48-3.74-4.24-1.66-1.41,1.67.32,3.67,1.83,5.08l.71.69c6.63,6.36,14.23,10.09,23.71,8.83a8.65,8.65,0,0,1,4.81.63c-11.81,4.53-21.37-1-31.16-8,3.32,16.67,8.49,31.42,16.9,44.94a14.56,14.56,0,0,0,11.32,7.16c3.77.37,7.58.26,11.37.36,7.25.86,11.75-3.08,12.38-11.15.59-7.61-2.27-14.65-4-21.86l1.67-.46a80.84,80.84,0,0,1,4.13,23c.13,7.75-1.75,10.6-8.94,13.54a27.55,27.55,0,0,0-7,4.67c-2.94,2.43-5.85,4.91-8.87,7.24-3.19,2.48-6.66,5.34-10.62,1.87-4.26-3.72-1.09-7.5,1.19-10.55,2.62-3.51,2.18-5.5-1.07-8.39-6.94-6.17-9.74-15-12.94-23.32-2.85-7.45-5-15.19-7.09-22.89-2.58-9.3-1-17.73,5.87-25,2.6-2.74,4.73-5.92,7.25-9.1-2.9-1.22-5.05.09-7.22.56-8.63,1.85-17.18,4.11-25.86,5.7-4.85.89-7.16,3.38-8.15,8-2,9.5-5.11,18.56-11.37,26.31-2.69,3.33-5.58,5.25-10,5.53-7.46.48-14.88,1.58-22.32,2.41a17.6,17.6,0,0,1-3.47.18c-2.93-.27-6.45,0-7.29-3.79s2.5-5.28,5.11-6.38c4.91-2.08,6.43-5.37,6.12-10.6-.83-13.95,1.18-27.51,7-40.35,3.16-7,8.39-11.2,15.42-14.63,12-5.84,24.82-8.41,37.43-12,13.9-4,24.52-13,33.33-24.14,3-3.84,4.26-8.56,5.09-13.39.63-3.64-.07-5-3.92-3.45-7.28,2.85-14.73,5.29-21.93,8.32a17.16,17.16,0,0,1-15.3-.45,232.06,232.06,0,0,0-42.18-16.55c-4-1.09-7.12-.86-9.76,2.52-1.18,1.51-2.83,2.64-4.76,2.06-2.09-.62-2.16-2.81-2.4-4.56-.32-2.39-.7-4-3.62-5-2.56-.86-3-4.39-2.17-6.92s1.77-4.32-1.53-6.24c-1.72-1-2.75-4.45,1-5.86,1.17,4.76,2.77,5.6,6.42,3.68,1.68-.88,1.1-2.23,1.16-3.43.09-1.77-1.28-1.65-2.41-1.44-1.75.33-3.48.83-5.21,1.25-.66-2.49-.66-2.75,1.53-3.51s4.46-1.19,7.91-2.07c-3-1.51-5.13-2.55-7.23-3.65a4.27,4.27,0,0,1-2.47-5c.4-2.07,1.82-3,3.82-3.37a18.81,18.81,0,0,1,10.73,1.27c3.08,1.3,5.2.86,7.29-2.38,4.22-6.55,7.28-6.63,12.45-1A19,19,0,0,0,79,91c9,3.48,18,6.87,27,10.42,3,1.19,5.55,1.28,8.4-.66,6.44-4.39,13.14-8.38,19.63-12.68,3-2,7.6-1.42,9.23-4.41s-2.66-5.57-3.28-8.82c-4-20.79-4-40.65,13.83-55.91a53.86,53.86,0,0,1,61-5.93,20.34,20.34,0,0,0,9.44,2.74,71.89,71.89,0,0,1,21.36,4.49c4.23,1.48,6.77,4.06,6.65,8.76-.08,3.43,1.69,5.4,4.81,6.67,8.54,3.49,12.1,10,12.28,19.19a162.93,162.93,0,0,1-1.52,28.28c-.41,2.68.1,4.79,2.33,6.62,17.65,14.49,26.29,33.33,26.83,56C297,146.24,296.9,146.64,296.86,147ZM211.68,68.47c2.38,6.89,7.5,9.9,13.62,8s9.11-7.63,8.44-16.12a13,13,0,0,0-10.86-12.12c-4.52-1.24-8,.74-10.1,4.34C209.84,57.55,208.38,62.93,211.68,68.47ZM163.59,45.71l4,.21-5.12-5.52c1.42-1.3,3.25.64,4.24-1.09-.36-1.21-2.25-1.44-1.92-3.28,9.12-1.61,17.49,1.77,26,3.86.37.57,1.24.91,1.45.5.59-1.17-.72-.8-1.19-1.14C178.27,31,164.71,30.07,150.77,36c-3.23,1.35-6.6,3-7.65,7.22-1.83,7.3-3.13,14.64-2.13,22.15,1,7.23,2.68,14.23,9.55,19.32-7.77-17.13-9.11-24.32-6.14-32.33C146.64,54,147,57,148.88,59c.89-1.36-.22-3,1.12-4.11l4,4.21c.7-1.64-1-3-.05-4.28,1.89.16,2.89,2.29,4.92,2.12-.18-1.16-.35-2.28-.57-3.69l3.37,1.32.72.59c.33-.58.09-.91-.48-1.09,0-1.4-1.59-2.43-1-4L166,51.36l.54.56.14-.55-.7,0c.05-2.21-2.24-3.17-2.71-5.11ZM152,99.56l.14.14a15.71,15.71,0,0,0,9.19,7.2c24.81,7.55,47.89,3.49,68.91-11.26,8.45-5.93,10.08-13.38,6.71-23.16-5.56,6-12,10.55-18.46,15.09-13.33,6.53-27.26,10.05-42.23,8.79C165.92,95.49,156.43,92,147,86.84a20.08,20.08,0,0,0,4.29,11.43ZM146.43,34c5.41-1.45,10.4-4.32,16.2-4.52,4-.13,7.83-.81,10-4.87.29-.55,1.05-.78,2.28.08-2.26,3.18-1.08,5,2.73,5.93A65.81,65.81,0,0,1,208,48c2.2,2.19,3.72,2.34,6.25.35,4.92-3.89,9.39-3.65,14.71-.35,4,2.5,5.42,7,8.66,10.86.05-2,.22-3.5.11-4.93-1.09-13.83-7.77-24.72-17.83-33.83-8-7.21-16.86-10.29-27.48-6.54-3.85,1.36-8,1.67-11.71,3.75,2.72-4.7,7.6-5.4,13-7.27-11.76-2-21.38,1-30.53,6.06-7.49,4.14-14.22,9.14-17.57,17.48-.1.3-.36.79-.27.88C145.91,34.92,146.22,34.55,146.43,34Zm85.06,155.82c5.64-1.8,12,1.4,12.69-6.8.06-.83,1-1.71,1.75-2.34,2.64-2.27,3.3-5.27,3.34-8.5.09-8.1-.37-16.25.37-24.3.53-5.85-1.33-10.67-3.65-15.63a3.36,3.36,0,0,0-3.6-2.07c-1.58.19-1,1.8-1,2.88C241.52,152.08,239.82,170.78,231.49,189.84Zm-8-170.68c2.87,3.06,4.15,6.27,7.52,7.38,5.36,1.75,10.79,3.29,16.16,5,2.06.66,2.67-.42,2.75-2.08.09-2.09-.44-4-2.5-5A49.63,49.63,0,0,0,223.45,19.16ZM157.32,304.7c-12.86-2.28-14-1.87-18.15,5.79-1,1.87-2,3.74,0,5.36s3.86.59,5.46-.68C148.78,311.87,152.81,308.44,157.32,304.7ZM53.38,262.41c-5.53-6.58-6.59-6.7-13.75-1.81-.89.61-2.48.94-2.06,2.43a2.65,2.65,0,0,0,3.29,1.61C44.87,263.68,49.18,264.39,53.38,262.41ZM46.73,116.68c-.36-.91-.2-2.93-2.56-2.05-2.52.94-4.22,2.46-4,5.49.22,2.55,1.94,2.2,3.58,1.94C46.73,121.6,47.61,119.81,46.73,116.68Zm176-36.22c-.4-1.37-1.58-.86-2.45-1-2.08-.27-1.87,1.43-1.93,2.59s.94,1.13,1.76.92A3.1,3.1,0,0,0,222.77,80.46Zm-71,4.93-.39-.29c-.07.13-.23.28-.2.39s.22.19.34.28Z" transform="translate(-34.51 -6.23)"/><path class="cls-2" d="M202,134.71a77.83,77.83,0,0,1-4.4,30.55c-.9,2.59-3.09,3.27-5.7,2.52-12.73-3.62-25.16-8.27-38.17-10.88-2.56-.51-3.07-2.43-3-4.47.32-8.26.59-16.53,1.27-24.76.45-5.37,3.2-7.44,8.71-7.07,12.3.82,24.27,3.21,35.61,8.19C200.17,130.48,201.29,131.75,202,134.71Zm-13.5.7a62.55,62.55,0,0,0-13.93-3.32c-5.85-.89-11.72-2.12-17.72-1.2-1.75.27-3.09.5-3.18,2.85-.21,5.27-1.46,10.49-.64,15.81,0,2.66.46,4.75,3.62,5.61q16.77,4.6,33.44,9.59c3.27,1,5-.05,6-3.19a47.46,47.46,0,0,0,2.36-14.14C198.44,138,198.06,137.43,188.47,135.41Zm-34.22-7.72c15.25-.16,29.45,3,43.93,7.63-1.17-3.7-3.57-4.62-5.88-5.42a119,119,0,0,0-31.53-6.68C157.86,123,155.54,123.88,154.25,127.69Z" transform="translate(-34.51 -6.23)"/><path class="cls-2" d="M159.72,196.26c-2.56,2.39-6,2.26-9.08,3.27,1.88-3.89,6.27-2.95,9.21-4.78C159.81,195.26,159.77,195.76,159.72,196.26Z" transform="translate(-34.51 -6.23)"/><path class="cls-2" d="M235.6,107.53c-.41.8-1,2.26-1.66,1.84-1.33-.89.15-1.7.68-2.49Z" transform="translate(-34.51 -6.23)"/><path class="cls-2" d="M129.58,175.12l-1,.07.57-1A2,2,0,0,1,129.58,175.12Z" transform="translate(-34.51 -6.23)"/><path class="cls-2" d="M152.51,204.36c6-5.26,13.5-6.76,20.89-8.27,12.73-2.59,25.32-3,36.66,5.07.54.38,1.13.7,1.63,1.13.19.17.17.57.28,1-2.11.55-3.5-1.36-5.34-1.58-8.4-5.8-17.87-5.23-27.24-4.17a62.55,62.55,0,0,0-23.24,6.84C155.05,205,153.7,205.65,152.51,204.36Z" transform="translate(-34.51 -6.23)"/><path class="cls-2" d="M124.54,244.56c-1.23,0-1.47-.81-1.46-1.82C124.7,242.44,124.31,243.76,124.54,244.56Z" transform="translate(-34.51 -6.23)"/><path class="cls-2" d="M70.23,207.82c.76-.21,1.59-.61,1.78.68Z" transform="translate(-34.51 -6.23)"/><path class="cls-2" d="M71.92,208.46c.8-.38,1.57-.7,1.26.76C72.47,209.45,72.09,209.13,71.92,208.46Z" transform="translate(-34.51 -6.23)"/><path class="cls-2" d="M253.59,51.51l-6.19,2c.28-2.56,2.81-2.66,3.69-4.24,2.3-.26,3.68-2.85,6.3-2.43C257.24,49.29,254.84,50,253.59,51.51Z" transform="translate(-34.51 -6.23)"/><path class="cls-2" d="M263.39,85.23c-2.74.91-3.76-1.08-4.88-2.91C261,81.77,262.07,83.75,263.39,85.23Z" transform="translate(-34.51 -6.23)"/><path class="cls-2" d="M258.58,82.37c-1.27.15-2.16-.08-1.57-1.68a3.48,3.48,0,0,1,.91-.1C258.14,81.18,259.3,81.43,258.58,82.37Z" transform="translate(-34.51 -6.23)"/><path class="cls-2" d="M82.42,118.43l.63-1.25c2.79-3.72,2.68-8.66,5.2-12.5,2,2.19.9,4.61-.19,6.41-1.83,3-2,7.15-5.52,9.12Z" transform="translate(-34.51 -6.23)"/><path class="cls-2" d="M163.26,46.29c-.46-.25-.87-.53-.4-1.09,0,0,.48.33.73.51Z" transform="translate(-34.51 -6.23)"/><path class="cls-2" d="M257.08,80.74c-1.63.85-2.47.36-2.51-1.49A2.58,2.58,0,0,1,257.08,80.74Z" transform="translate(-34.51 -6.23)"/><path class="cls-2" d="M254.65,79.29c-1.07,1.3-1.68.45-2.28-.48C253.44,77.49,254,78.46,254.65,79.29Z" transform="translate(-34.51 -6.23)"/><path class="cls-3" d="M208.67,54a32.39,32.39,0,0,0-.94,12.74,28.36,28.36,0,0,0,.67,2.89,15.07,15.07,0,0,0,1.12,2.63c.22.41.47.8.7,1.2s.56.82.89,1.28a17,17,0,0,1,2,3.45,8.47,8.47,0,0,1,.34,4.85,6.66,6.66,0,0,1-1.12,2.43,7.11,7.11,0,0,1-1.77,1.74,12.09,12.09,0,0,1-3.84,1.64c-1.08.31-2.18.56-3.27.81A91,91,0,0,1,190.08,92l-.09-.29,12.76-4.25,3.19-1.06a9.61,9.61,0,0,0,2.94-1.4,4.43,4.43,0,0,0,1.74-2.57,5.44,5.44,0,0,0-.31-3.13c-.76-2-2.43-3.67-3.34-5.78a17.91,17.91,0,0,1-1.6-6.58,25,25,0,0,1,3-13Z" transform="translate(-34.51 -6.23)"/><path class="cls-3" d="M161.63,54.57l-3.37-1.32c.22,1.41.39,2.53.57,3.69-2,.17-3-2-4.92-2.12-.91,1.32.75,2.64.05,4.28l-4-4.21c-1.34,1.07-.23,2.75-1.12,4.11-1.87-2-2.24-5-4.48-6.69-3,8-1.63,15.2,6.14,32.33C143.67,79.55,142,72.55,141,65.32c-1-7.51.3-14.85,2.13-22.15,1-4.21,4.42-5.87,7.65-7.22,13.94-5.88,27.5-4.93,40.37,3.3-.08.22-.17.43-.26.64-8.55-2.09-16.92-5.47-26-3.86-.33,1.84,1.56,2.07,1.92,3.28-1,1.73-2.82-.21-4.24,1.09l5.12,5.52-4-.21c-.25-.18-.71-.52-.73-.51-.47.56-.06.84.4,1.09.47,1.94,2.76,2.9,2.71,5.11l0,0-5.13-1.29c-.58,1.57,1,2.6,1,4Z" transform="translate(-34.51 -6.23)"/><path class="cls-3" d="M191.14,39.25c.47.34,1.78,0,1.19,1.14-.21.41-1.08.07-1.45-.5C191,39.68,191.06,39.47,191.14,39.25Z" transform="translate(-34.51 -6.23)"/><path class="cls-3" d="M166,51.4l.7,0-.14.55-.54-.56Z" transform="translate(-34.51 -6.23)"/><path class="cls-3" d="M151.81,85.39l-.25.38c-.12-.09-.32-.17-.34-.28s.13-.26.2-.39Z" transform="translate(-34.51 -6.23)"/><path class="cls-3" d="M161.87,54.07c.57.18.81.51.48,1.09l-.72-.59Z" transform="translate(-34.51 -6.23)"/><path class="cls-3" d="M146.74,61.78c12.75-.58,23.74-9.37,25.81-22.22.52-3.22-.84-6.42-4.19-7.38-2.86-.82-6.87,1-7.38,4.19-1.2,7.47-6.41,13.05-14.24,13.41s-7.73,12.35,0,12Z" transform="translate(-34.51 -6.23)"/><path class="cls-4" d="M240.36,89.6c.52,6.57-3.49,11.63-5.74,17.28-.53.79-2,1.6-.68,2.49.61.42,1.25-1,1.66-1.84,7.07-8.78,7.76-19.23,7.26-31.16,3,4.27,2.4,7.95,2.89,11.36-.27,1-.38,2.27.69,2.41.69.08.46-1.29.32-2,.2-.55.4-1.1.61-1.64,10.33,3.6,18.73,10,26,18-2.91,6.63-7.67,11.67-13.54,15.79-1.89,1.32-1.94,1.78-1.24,3.58-2.87,2.73-6.43,4.26-10,5.71-6.18-2.29-12.32-4.7-18.57-6.76-1.3-.43-4.61-2.69-3.95,1.91-3.85-1-3.88.7-3.36,3.93,2.89,18.08,3,36-3.69,53.46-1.78,4.62-4,9.05-6.08,13.57-8-2.88-15.91-6.43-24.75-6-2.19-.77-4,.39-5.93,1.11L161,194.91c-.2-.17-.47-.52-.6-.47-.45.15-.43.45,0,.71l.06-.08a.42.42,0,0,0-.54-.32c-3,1.83-7.34.89-9.22,4.78-2.65.72-5.09,1.8-6.8,4.08-3.76-2.24-5.6-5.08-5.78-9.93-.27-7.09-2.45-13.92-8.55-18.64l.07.08a2,2,0,0,0-.4-.89l-1.81-3.33,4.85-4.27c14.19-12.45,19.35-34.76,12.1-53.18-2.16,2.61.51,5.24-.39,7.63l-5.81,4.62c-7.46,6-15.56,10-25.5,8.34a41.54,41.54,0,0,1-3.76-16.39c-.33-6.78,1.8-12.29,8.37-15.52,5.87-2.89,10.58-7.74,16.77-10.57l1.73,6.76c2.1-3.13-.47-8.7,5.26-9.81-.75,7.82-.75,7.82.84,11.92.15-2.22.21-3.64.35-5.06s.32-2.61.54-4.32c3.72,2.41,4.87,6.38,6.74,9.61a19.65,19.65,0,0,0,11.63,9.48c25.48,7.62,49,3.37,70.69-11.92,3.31-2.34,5.4-5.76,7.65-9ZM202,134.71c-.68-3-1.8-4.23-5.67-5.92-11.34-5-23.31-7.37-35.61-8.19-5.51-.37-8.26,1.7-8.71,7.07-.68,8.23-.95,16.5-1.27,24.76-.08,2,.43,4,3,4.47,13,2.61,25.44,7.26,38.17,10.88,2.61.75,4.8.07,5.7-2.52A77.83,77.83,0,0,0,202,134.71Zm-60.7-33.25c-.1.06-.27.1-.3.18a.57.57,0,0,0,0,.45c.29.33.51.23.5-.25C141.5,101.72,141.35,101.59,141.27,101.46Zm-5.72-1.5.1-.26h-.21Z" transform="translate(-34.51 -6.23)"/><path class="cls-4" d="M151.36,248.81c-5,1.54-10.23.09-15.28,1.05-5,.75-8.24-2.34-11.54-5.3-.23-.8.16-2.12-1.46-1.82l.11,0c-4.63-6.06-1.63-10.46,2.72-15.13,6-6.37,11.37-13.23,17-19.88l9.59-3.42c1.19,1.29,2.54.65,3.64,0a62.55,62.55,0,0,1,23.24-6.84c9.37-1.06,18.84-1.63,27.24,4.17-2,3.13-5,5.24-8,7.32-8.94,6.29-19.4,9.91-28.33,16.27C161.75,231.42,154.51,238.42,151.36,248.81Z" transform="translate(-34.51 -6.23)"/><path class="cls-4" d="M59.67,201.18c4.67-6.57,12.47-7.75,19.07-10.91,7.23-3.46,15.07-5.18,22.94-6.65a56.23,56.23,0,0,0,15-5.37c6.21-3.1,7.28-2.92,10.8,2.71,1,1.54,1.76,3.17,2.64,4.76l.66.55,1.3,2.51c.81,6.6-.44,12.16-7.24,15.21-6.23,2.79-12.65,5.16-19.38,5.93a49.59,49.59,0,0,0-17.93,5.29c-5.28-7.51-11.33-13.77-21.57-13.12Z" transform="translate(-34.51 -6.23)"/><path class="cls-4" d="M288.65,156.38c-6.26,3.22-13,4.57-19.94,5.23-3.12.29-6.3.07-9.32,1.14a19.23,19.23,0,0,1-7.17-.37l-.45-28.65a8.22,8.22,0,0,0,4-2.38c8.82-2,13.93-8.77,19.25-15.21.93-1.14,1.7-2.41,2.54-3.62,3.45,3.55,4.6,8.24,6.2,12.69C287.45,135.28,287.31,146,288.65,156.38Z" transform="translate(-34.51 -6.23)"/><path class="cls-4" d="M158.44,300.8c-3.79-.1-7.6,0-11.37-.36a14.56,14.56,0,0,1-11.32-7.16c-8.41-13.52-13.58-28.27-16.9-44.94,9.79,7,19.35,12.55,31.16,8,2.92,1.85,1.91,5.45,3.54,7.9C161.12,275.63,162.6,287.85,158.44,300.8Z" transform="translate(-34.51 -6.23)"/><path class="cls-4" d="M73.08,209.24c2.83,3,7,4.36,9.58,7.74-7.22,6.29-10.53,14.87-14.09,23.4-3,7.23-5.62,15-13.45,18.83-5.55-2.85-7.29-7.75-7.28-13.57a109.7,109.7,0,0,1,3.93-29.8c1.44-5.12,3.2-9.34,9.23-9.9,3.27-.32,6.24.84,9.23,1.88l1.78.68-.09,0c.17.67.55,1,1.26.76Z" transform="translate(-34.51 -6.23)"/><path class="cls-4" d="M284.81,189.17c-.68,4.57-3.71,7.14-7.67,9.08-1.4-2,.8-4.71-1.59-6.62-1.7,5.71-4.27,10.52-11.22,10.82-.82-3.35,3.63-5.73,1.43-10-1.88,4-3.81,7.38-7.16,9.47-2.09,1.31-4.17,2.79-6.79.75-3-2.31-.54-3.89.44-5.82,1.76-3.47,1.52-7,0-10.66-1.94,1.25.34,4.11-2.16,4.65-1.83.4-2.63-1.28-3.43-2.39a4,4,0,0,1,.53-5.48,13.68,13.68,0,0,0,4.79-10.48c0-2.49,1.76-2.13,3.51-2,6.94.49,13.87.86,20.77-.66A68.9,68.9,0,0,0,287,166.11c-.16,2.14-.18,4.31-.52,6.42C285.63,178.05,283.61,183.44,284.81,189.17Z" transform="translate(-34.51 -6.23)"/><path class="cls-4" d="M151.26,98.27A20.08,20.08,0,0,1,147,86.84c9.46,5.19,18.95,8.65,29.28,9.52,15,1.26,28.9-2.26,42.23-8.79,1.42,6.23-1.49,10.57-6.79,12.9-14.56,6.39-29.81,6.71-45.28,4.23-5.08-.82-9.27-4-14.28-5l-.13-.14C152.25,98.84,151.83,98.51,151.26,98.27Z" transform="translate(-34.51 -6.23)"/><path class="cls-4" d="M234.12,30.7a127.31,127.31,0,0,1,22.36,8.08c6.4,3.11,9.94,7.69,10.28,15,.43,9.43.55,18.8-1.24,28.11-.26,1.33.14,3.2-2.15,3.22l0,.1c-1.32-1.48-2.35-3.46-4.88-2.91l.07.05c.72-.94-.44-1.19-.66-1.78-.15-2.81-.33-5.62-.44-8.44-.28-7.07.67-14.37-3.89-20.64,1.25-1.56,3.65-2.22,3.8-4.7-2.62-.42-4,2.17-6.3,2.43a29.13,29.13,0,0,0-12.89-7.13q-2.37-5.3-4.75-10.57Z" transform="translate(-34.51 -6.23)"/><path class="cls-4" d="M80.62,126.39c.22-2.21,2.71-3.65,2.06-6.16l-.14,0c3.56-2,3.69-6.09,5.52-9.12,1.09-1.8,2.18-4.22.19-6.41l.87-6.84,15.32,6c-2.1,3.88-2.1,8-1.25,12.17-1.46,6.22.94,12,2.21,17.85C95.68,136.2,87.47,133.55,80.62,126.39Z" transform="translate(-34.51 -6.23)"/><path class="cls-4" d="M82.2,103.69c-7.06-3.57-13.28-2.33-19.43,4a23.53,23.53,0,0,0-4.58,5.82c-2.18,4.58-5.2,5-9.21,2.71-2.19-6.62-.83-12.88,2-19,.51-.62,1-1.4.12-1.93s-1.41.19-1.8.91c-4.2.67-5.91,0-9.39-3.57,4.5-3,15.34-1.15,18.65,3.14a34,34,0,0,0,2.31,3.21c1.13,1.15,2.27,2.45,4.27,1.87,1.81-.53,2-2,2.35-3.48.38-1.73.59-3.51.94-5.69-2.43.42-2.57,1.89-2.78,3.54-.43,3.33-2.25,2.68-4,1.13-2.71-2.33-2.31-6.5.9-9.63,2.75-2.69,4.89-1.59,6.93,1.11,3.77,5,10,5.63,15.12,8.1.28,1.61,1.24,3.15.49,4.87l-1.21-2.65C82.31,99.86,83.12,102,82.2,103.69Z" transform="translate(-34.51 -6.23)"/><path class="cls-4" d="M211.68,68.47c-3.3-5.54-1.84-10.92,1.1-15.87,2.13-3.6,5.58-5.58,10.1-4.34,1.2,1.57,2.44,3.11,3.6,4.71A12.25,12.25,0,0,1,226,68.53c-3.17,3.63-6.9,3.78-13,.53C212.61,68.82,212.13,68.67,211.68,68.47Z" transform="translate(-34.51 -6.23)"/><path class="cls-4" d="M46.73,116.68c.88,3.13,0,4.92-2.94,5.38-1.64.26-3.36.61-3.58-1.94-.26-3,1.44-4.55,4-5.49C46.53,113.75,46.37,115.77,46.73,116.68Z" transform="translate(-34.51 -6.23)"/><path class="cls-4" d="M37.52,105.84c1.73-.42,3.46-.92,5.21-1.25,1.13-.21,2.5-.33,2.41,1.44-.06,1.2.52,2.55-1.16,3.43-3.65,1.92-5.25,1.08-6.42-3.68Z" transform="translate(-34.51 -6.23)"/><path class="cls-4" d="M239.43,89.2c.09-.51-.38-1.29.56-1.32a9.09,9.09,0,0,1,.37,1.72Z" transform="translate(-34.51 -6.23)"/><path class="cls-4" d="M153,149.55c-.82-5.32.43-10.54.64-15.81.09-2.35,1.43-2.58,3.18-2.85,6-.92,11.87.31,17.72,1.2a62.55,62.55,0,0,1,13.93,3.32c.24,1,.5,1.93.71,2.91,2.33,10.51-3.28,17.41-14,16.72C167.51,154.55,160.44,151.21,153,149.55Z" transform="translate(-34.51 -6.23)"/><path class="cls-5" d="M151.36,248.81c3.15-10.39,10.39-17.39,19-23.48,8.93-6.36,19.39-10,28.33-16.27,3-2.08,6-4.19,8-7.32,1.84.22,3.23,2.13,5.34,1.58-.11-.46-.09-.86-.28-1-.5-.43-1.09-.75-1.63-1.13-11.34-8-23.93-7.66-36.66-5.07-7.39,1.51-14.92,3-20.89,8.27l-9.59,3.42c.28-1.4,2.34-2.4.93-4.17,1.7-2.28,4.14-3.36,6.79-4.08,3.06-1,6.52-.88,9.08-3.27l.68-1.19-.06.08.29-.17.33-.07,21.29-4.12,5.06.36a74.42,74.42,0,0,1,32.35,10.65c2.5,1.49,2.59,2.68,1,4.88-5.1,7-12,11.81-19.17,16.41-11.16,7.16-21.87,15-33.35,21.68C162.91,247.82,157.23,248.63,151.36,248.81Z" transform="translate(-34.51 -6.23)"/><path class="cls-5" d="M212.93,195.64c2-4.52,4.3-8.95,6.08-13.57,6.68-17.42,6.58-35.38,3.69-53.46-.52-3.23-.49-4.93,3.36-3.93,2.71.71,5.41,1.43,8.13,2.11,3.15.78,4.48,2.65,4.74,6,1.4,18.15-.79,35.69-8.2,52.44-.74,1.66-1.41,3.36-2.1,5C223.93,201.79,223.93,201.79,212.93,195.64Z" transform="translate(-34.51 -6.23)"/><path class="cls-5" d="M130.76,186.27l-.66-.55c1.26.21,1.56-.45,1.38-1.54l-.71-1.26c-1.4-2.17-2.54-4.59-4.27-6.46-2.31-2.49-1.87-4.09.87-5.56.61,1.11,1.21,2.22,1.81,3.33l-.57,1,1-.07-.07-.08c-.43,1.79,1.15,2.59,1.87,3.81,3.29,5.51,6,11.19,4.56,17.87a6.13,6.13,0,0,0,2.35,6.66c2.88,2,1.66,3.73.29,5.66a12.55,12.55,0,0,1-7.64,5.17c-9.87,2.37-19.7,4.9-29.56,7.33s-9.79,2.38-13.87-6.33a49.59,49.59,0,0,1,17.93-5.29c6.73-.77,13.15-3.14,19.38-5.93,6.8-3.05,8.05-8.61,7.24-15.21C132.74,187.36,133.58,185.87,130.76,186.27Z" transform="translate(-34.51 -6.23)"/><path class="cls-5" d="M158.44,300.8c4.16-12.95,2.68-25.17-4.89-36.54-1.63-2.45-.62-6.05-3.54-7.9a8.65,8.65,0,0,0-4.81-.63c-9.48,1.26-17.08-2.47-23.71-8.83l-.71-.69c-1.51-1.41-3.24-3.41-1.83-5.08,1.76-2.08,2.35,2.13,4.24,1.66l-.11,0c0,1,.23,1.81,1.46,1.82,3.3,3,6.54,6.05,11.54,5.3,6,4.14,12.53,2.58,18.67,1.21,4.63-1,6.88-.1,7.9,4.32l.47,1c.24.62.47,1.24.71,1.85,0,.13-.12.29-.06.37a4.35,4.35,0,0,0,.49.57c.66,2.23,1.31,4.46,2,6.69l.54,2c1.78,7.21,4.64,14.25,4,21.86C170.19,297.72,165.69,301.66,158.44,300.8Z" transform="translate(-34.51 -6.23)"/><path class="cls-5" d="M55.12,259.21c7.83-3.88,10.42-11.6,13.45-18.83,3.56-8.53,6.87-17.11,14.09-23.4,4.9,3.82,6,8.55,4.23,14.5-2.27,7.91-3.36,16.08-8.66,23C71.74,262.88,64.48,264.64,55.12,259.21Z" transform="translate(-34.51 -6.23)"/><path class="cls-5" d="M152.13,99.7c5,1,9.2,4.18,14.28,5,15.47,2.48,30.72,2.16,45.28-4.23,5.3-2.33,8.21-6.67,6.79-12.9,6.47-4.54,12.9-9.12,18.46-15.09,3.37,9.78,1.74,17.23-6.71,23.16-21,14.75-44.1,18.81-68.91,11.26A15.71,15.71,0,0,1,152.13,99.7Z" transform="translate(-34.51 -6.23)"/><path class="cls-5" d="M82.2,103.69c-.23,9.82-4.94,17.65-10.93,24.95-1,1.22-2,.89-3.09.56-2.38-.69-4.78-1.35-7.17-2-3.93-1.11-7.76-2.23-10.47,2.44-.64,1.12-2.19,2.23-3.77.82a2.89,2.89,0,0,1,0-4.43c2.85-2.86,2.66-6.22,2.24-9.73,4,2.27,7,1.87,9.21-2.71a23.53,23.53,0,0,1,4.58-5.82C68.92,101.36,75.14,100.12,82.2,103.69Z" transform="translate(-34.51 -6.23)"/><path class="cls-5" d="M231.49,189.84c8.33-19.06,10-37.76,9.86-56.76,0-1.08-.54-2.69,1-2.88a3.36,3.36,0,0,1,3.6,2.07c2.32,5,4.18,9.78,3.65,15.63-.74,8-.28,16.2-.37,24.3,0,3.23-.7,6.23-3.34,8.5-.73.63-1.69,1.51-1.75,2.34C243.54,191.24,237.13,188,231.49,189.84Z" transform="translate(-34.51 -6.23)"/><path class="cls-5" d="M238.2,42.11a29.13,29.13,0,0,1,12.89,7.13c-.88,1.58-3.41,1.68-3.69,4.24l6.19-2c4.56,6.27,3.61,13.57,3.89,20.64.11,2.82.29,5.63.44,8.44a3.48,3.48,0,0,0-.91.1l.07,0a2.58,2.58,0,0,0-2.51-1.49l.08,0c-.62-.83-1.21-1.8-2.28-.48l.1,0c-1.45-3.59-5.05-3.77-7.91-4.21-4.83-.76-5.75-3.81-5-7.47C241.41,58.63,240.56,50.36,238.2,42.11Z" transform="translate(-34.51 -6.23)"/><path class="cls-5" d="M103.19,116.05c-.85-4.19-.85-8.29,1.25-12.17,2.4.29,3.92.86,3.26,4.05a41.31,41.31,0,0,0,3.37,26.53c.3.72.62,1,1,0a.77.77,0,0,1,.58-.45c9.94,1.61,18-2.38,25.5-8.34l5.81-4.62c.33,2.57.49,5.17,1,7.7.72,3.49-.64,5.62-3.82,6.81l-1.08.52c-7.66,2.74-15.36,5.37-23,8.27-2.75,1-4.12.41-5.41-2.19a63.77,63.77,0,0,1-5.93-17.34C105.21,121.86,105.43,118.58,103.19,116.05Z" transform="translate(-34.51 -6.23)"/><path class="cls-5" d="M284.81,189.17c-1.2-5.73.82-11.12,1.71-16.64.34-2.11.36-4.28.52-6.42-.81-2.9-3-1.38-4.15-.87-8,3.5-16.38,3.34-24.84,3.08-4.13-.13-6.71-1.18-5.83-5.94a19.23,19.23,0,0,0,7.17.37c.66,2.17,2.53,1.92,4.11,1.87,10.54-.27,20.82-1.67,30-7.38,1.2.85,1.21,2,1.15,3.19-.4,8.27-.76,16.53-1.26,24.78-.27,4.6-2,8.39-6.73,10l-.61-.36C285.41,193,287.92,190.51,284.81,189.17Z" transform="translate(-34.51 -6.23)"/><path class="cls-5" d="M288.65,156.38c-1.34-10.43-1.2-21.1-4.84-31.17-1.6-4.45-2.75-9.14-6.2-12.69,1.05-2.57,2-6.81,4-6.89,2.94-.12,3.61,4.17,5,6.62,6.83,11.65,8.19,24.61,8.36,37.77C295,154.18,292.16,155.65,288.65,156.38Z" transform="translate(-34.51 -6.23)"/><path class="cls-5" d="M273.39,104.45c-7.29-8-15.69-14.4-26-18-.23-2.91-.93-5.8-.42-8.82,2.09-.44,3.5,1.82,5.52,1.22l-.1,0c.6.93,1.21,1.78,2.28.48l-.08,0c0,1.85.88,2.34,2.51,1.49l-.07,0c-.59,1.6.3,1.83,1.57,1.68l-.07-.05c1.12,1.83,2.14,3.82,4.88,2.91l0-.1c1.07,4.09,5.17,5.08,7.86,7.5C275.66,96.62,276.29,99.1,273.39,104.45Z" transform="translate(-34.51 -6.23)"/><path class="cls-5" d="M211.68,68.47c.45.2.93.35,1.36.59,6.07,3.25,9.8,3.1,13-.53A12.25,12.25,0,0,0,226.48,53c-1.16-1.6-2.4-3.14-3.6-4.71a13,13,0,0,1,10.86,12.12c.67,8.49-2.35,14.25-8.44,16.12S214.06,75.36,211.68,68.47Z" transform="translate(-34.51 -6.23)"/><path class="cls-5" d="M80.62,126.39c6.85,7.16,15.06,9.81,24.78,7.51l5,11.2c-4.92-.34-9.07-2.13-13.22-3.8-4.75-1.9-9.44-4-14.07-6.13C77,132.32,77,132.24,80.62,126.39Z" transform="translate(-34.51 -6.23)"/><path class="cls-5" d="M223.45,19.16a49.63,49.63,0,0,1,23.93,5.27c2.06,1,2.59,2.94,2.5,5-.08,1.66-.69,2.74-2.75,2.08-5.37-1.71-10.8-3.25-16.16-5C227.6,25.43,226.32,22.22,223.45,19.16Z" transform="translate(-34.51 -6.23)"/><path class="cls-5" d="M255.82,131.35a8.22,8.22,0,0,1-4,2.38c-2.29-.47-2.44-2.56-3.19-4.2,3.6-1.45,7.16-3,10-5.71,10.18-4.73,15.23-13.76,19.3-23.69,2.22,1.9.83,3.63.26,5.14-3.91,10.34-10.63,18.16-20.67,23.06C256.55,128.8,253.39,128.72,255.82,131.35Z" transform="translate(-34.51 -6.23)"/><path class="cls-5" d="M70.23,207.82c-3-1-6-2.2-9.23-1.88-.14-1.67-5.87-1.78-1.33-4.76l6.27.91c2.91,2.79,7.23,2.55,10.38,4.87,1.69,1.24,3.65,2.14,4.9,3.94-.23.39-.45.78-.67,1.17-2.6-.65-4.26-3.81-7.47-2.83l.1,0c.31-1.46-.46-1.14-1.26-.76l.09,0C71.82,207.21,71,207.61,70.23,207.82Z" transform="translate(-34.51 -6.23)"/><path class="cls-5" d="M85.05,100.87c.75-1.72-.21-3.26-.49-4.87l4.56,1.84-.87,6.84c-2.52,3.84-2.41,8.78-5.2,12.5l-1.19-.5C83.1,111.44,85.17,106.38,85.05,100.87Z" transform="translate(-34.51 -6.23)"/><path class="cls-5" d="M82.68,120.23c-.64.18-1.66.71-1.86.49-1-1.11.32-1.86.67-2.78l.93.49.12,1.78Z" transform="translate(-34.51 -6.23)"/><path class="cls-5" d="M82.45,212.94l-1.9-.88.67-1.16A2,2,0,0,1,82.4,213Z" transform="translate(-34.51 -6.23)"/><path class="cls-5" d="M81.49,117.94c.12-.42.25-.84.37-1.26l1.19.5-.63,1.25Z" transform="translate(-34.51 -6.23)"/><path class="cls-5" d="M151.26,98.27c.57.24,1,.57.74,1.29C151.75,99.13,151.5,98.7,151.26,98.27Z" transform="translate(-34.51 -6.23)"/><path class="cls-5" d="M286.64,195.26c-.23.41-.52.68-1,.3,0,0,.22-.43.35-.66Z" transform="translate(-34.51 -6.23)"/><path class="cls-5" d="M82.4,213h.79c-.37.94-.52.12-.74-.1Z" transform="translate(-34.51 -6.23)"/><path class="cls-5" d="M141.27,101.46c.08.13.23.26.23.38,0,.48-.21.58-.5.25a.57.57,0,0,1,0-.45C141,101.56,141.17,101.52,141.27,101.46Z" transform="translate(-34.51 -6.23)"/><polygon class="cls-5" points="101.04 93.73 100.93 93.47 101.14 93.46 101.04 93.73"/><path class="cls-5" d="M153,149.55c7.44,1.66,14.51,5,22.18,5.49,10.72.69,16.33-6.21,14-16.72-.21-1-.47-1.94-.71-2.91,9.59,2,10,2.59,9.91,12A47.46,47.46,0,0,1,196,161.56c-1,3.14-2.69,4.17-6,3.19q-16.68-5-33.44-9.59C153.46,154.3,153,152.21,153,149.55Z" transform="translate(-34.51 -6.23)"/><path class="cls-5" d="M154.25,127.69c1.29-3.81,3.61-4.66,6.52-4.47a119,119,0,0,1,31.53,6.68c2.31.8,4.71,1.72,5.88,5.42C183.7,130.72,169.5,127.53,154.25,127.69Z" transform="translate(-34.51 -6.23)"/><path class="cls-6" d="M295.36,162.41c.09-3.16.18-6.33.26-9.49a70.51,70.51,0,0,1-43.71,9.65l-.12,7.34a70.73,70.73,0,0,0,43.57-7.5Z" transform="translate(-34.51 -6.23)"/><path class="cls-7" d="M287.37,164.82c.46-2.43.93-4.85,1.39-7.28l5.72-2.68c-.09,2.3-.18,4.61-.26,6.91Z" transform="translate(-34.51 -6.23)"/><path class="cls-6" d="M71.92,211.32c-4,4.31-9.78,6.11-13.49,4.09-4.25-2.32-4.79-9-.22-15.07,5-6.72,13-8.53,16.58-4.12C77.88,200,76.27,206.68,71.92,211.32Z" transform="translate(-34.51 -6.23)"/><path class="cls-6" d="M135.68,245.83c-.09,5.9-3.13,11.1-7.24,12.09-4.7,1.14-9.58-3.43-10.29-11-.78-8.36,3.86-15,9.51-14.2C132.47,233.42,135.79,239.47,135.68,245.83Z" transform="translate(-34.51 -6.23)"/><path class="cls-8" d="M90.4,96.65l-8.58-3A44.24,44.24,0,0,1,70.2,131.06l9.19,3.36a59.3,59.3,0,0,0,11-37.77Z" transform="translate(-34.51 -6.23)"/><path class="cls-1" d="M89.11,106.22,83.27,104c.09-1.29.14-2.68.13-4.16,0-1.68-.12-3.25-.27-4.68l6.26,2.23c.09,1.38.12,2.91.07,4.55S89.28,104.92,89.11,106.22Z" transform="translate(-34.51 -6.23)"/><g id="Bandera"><path class="cls-9" d="M264.43,104.68a42.82,42.82,0,0,1-4.19,7.3s-.82,1.13-5.33,6.66a3.55,3.55,0,0,1-5,1l-7.31-5.24a3.53,3.53,0,0,1-.6-5c1.77-1.93,3.6-4.08,5.42-6.47a82,82,0,0,0,4.76-7,3.5,3.5,0,0,1,2.19-1.31,3.29,3.29,0,0,1,2.45.58l6.79,4.87A3.35,3.35,0,0,1,264.43,104.68Z" transform="translate(-34.51 -6.23)"/><path class="cls-10" d="M262,98.9a73.58,73.58,0,0,1-5.66,9.63,80.89,80.89,0,0,1-8.16,9.9l-4-2.87a84,84,0,0,0,8.19-9.69,74.36,74.36,0,0,0,5.92-9.64Z" transform="translate(-34.51 -6.23)"/><path class="cls-11" d="M253.31,108.6a1.35,1.35,0,1,0-.27-1.86A1.33,1.33,0,0,0,253.31,108.6Z" transform="translate(-34.51 -6.23)"/></g><g id="Letras"><path class="cls-2" d="M165.6,141.09a5.73,5.73,0,0,1-.71,3.53,4.64,4.64,0,0,1-1,1.26,3.47,3.47,0,0,1-1.29.67,2.65,2.65,0,0,1-1.37,0l-3-.78a.72.72,0,0,1-.39-.9c.08-.41.39-.68.69-.61l3,.73c1.2.29,2.45-.76,2.77-2.35s-.42-3.07-1.64-3.29l-2.44-.43-.55,2.74c-.09.42-.4.71-.72.64a.71.71,0,0,1-.39-.87l.69-3.45c.08-.41.4-.71.71-.66l3,.48a2.7,2.7,0,0,1,1.26.56,3.3,3.3,0,0,1,.92,1.15A4.5,4.5,0,0,1,165.6,141.09Z" transform="translate(-34.51 -6.23)"/><path class="cls-2" d="M176,140.81a.9.9,0,0,1-1,.75l-7.12-1.26a.74.74,0,0,1-.5-.93.82.82,0,0,1,.84-.72l7.14,1.13A.84.84,0,0,1,176,140.81Zm-.83,4.13a.86.86,0,0,1-1,.73l-7.05-1.55a.79.79,0,0,1-.5-1,.77.77,0,0,1,.83-.68l7.08,1.42A.87.87,0,0,1,175.18,144.94Zm-.83,4.13a.81.81,0,0,1-1,.7l-7-1.84a.83.83,0,0,1-.49-1,.73.73,0,0,1,.82-.65l7,1.71A.91.91,0,0,1,174.35,149.07Z" transform="translate(-34.51 -6.23)"/><path class="cls-2" d="M189.59,143.52l-5,7a3.24,3.24,0,0,1-3.45,1.3,3.51,3.51,0,0,1-2.49-2.74l-1.49-7.69a1,1,0,0,1,.66-1.13.79.79,0,0,1,1,.64l1.57,7.77a1.55,1.55,0,0,0,1.13,1.23,1.46,1.46,0,0,0,1.53-.6l4.88-6.91a1.06,1.06,0,0,1,1.43-.29A1,1,0,0,1,189.59,143.52Z" transform="translate(-34.51 -6.23)"/><path d="M265.31,165.24c.05,1.08.07,1.63.12,2.72a.31.31,0,0,1-.18.28.27.27,0,0,1-.12,0,.34.34,0,0,1-.22-.07c-1.05-.87-1.56-1.31-2.55-2.22v2a.31.31,0,0,1-.32.3.32.32,0,0,1-.31-.31c0-1.09,0-1.63,0-2.72A.29.29,0,0,1,262,165a.31.31,0,0,1,.32.06c1,.91,1.47,1.35,2.51,2.22,0-.82,0-1.23-.07-2a.3.3,0,1,1,.6,0Z" transform="translate(-34.51 -6.23)"/><path d="M266.56,165.17c.08,1.08.11,1.63.18,2.72a.3.3,0,0,1-.3.31.3.3,0,0,1-.32-.28L266,165.2a.3.3,0,0,1,.59,0Z" transform="translate(-34.51 -6.23)"/><path d="M267.84,166.44c.05.66.58,1,1.36.95l.25,0a1.33,1.33,0,0,0,.91-.42.33.33,0,0,1,.44-.05.29.29,0,0,1,0,.42,2,2,0,0,1-1.33.64l-.25,0a2,2,0,0,1-1.45-.35,1.53,1.53,0,0,1-.41-.5,2,2,0,0,1-.17-.63,1.55,1.55,0,0,1,.08-.65,1.47,1.47,0,0,1,.31-.56,2,2,0,0,1,1.3-.61l.23,0a2,2,0,0,1,1.4.33.29.29,0,0,1,.06.41.31.31,0,0,1-.43.06,1.34,1.34,0,0,0-1-.21l-.24,0C268.23,165.34,267.78,165.79,267.84,166.44Z" transform="translate(-34.51 -6.23)"/><path d="M274.89,164.79a1.67,1.67,0,0,1,.25.6,1.64,1.64,0,0,1,0,.66,1.57,1.57,0,0,1-.26.59,2,2,0,0,1-1.3.74l-.25,0a2,2,0,0,1-1.46-.26,1.55,1.55,0,0,1-.66-1.1,1.59,1.59,0,0,1,.32-1.23,1.94,1.94,0,0,1,1.25-.69l.23,0a2,2,0,0,1,1.42.24A1.61,1.61,0,0,1,274.89,164.79Zm-.35.72a1.09,1.09,0,0,0-1.42-.82l-.23,0c-.75.13-1.16.61-1.06,1.26s.64,1,1.42.85l.24,0C274.26,166.66,274.67,166.16,274.54,165.51Z" transform="translate(-34.51 -6.23)"/><path d="M279.12,165.86a.3.3,0,0,1-.23.37c-1,.27-1.54.39-2.58.62a.32.32,0,0,1-.37-.23c-.22-1.07-.34-1.6-.56-2.67a.29.29,0,0,1,.22-.35.31.31,0,0,1,.36.23c.21.95.32,1.42.53,2.37.9-.2,1.36-.31,2.25-.54A.3.3,0,0,1,279.12,165.86Z" transform="translate(-34.51 -6.23)"/><path d="M283.56,164.38a.28.28,0,0,1,0,.42.41.41,0,0,1-.11.07.33.33,0,0,1-.33-.07c-.7-.73-1.05-1.09-1.73-1.83a.48.48,0,0,0-.51-.13.5.5,0,0,0-.35.39c-.14,1-.22,1.49-.4,2.49a.32.32,0,0,1-.36.25.29.29,0,0,1-.25-.34c.19-1,.27-1.48.42-2.47a1.11,1.11,0,0,1,1.9-.59C282.5,163.3,282.85,163.66,283.56,164.38Zm-1.68-.13a.56.56,0,0,1-1.06.33.56.56,0,0,1,1.06-.33Z" transform="translate(-34.51 -6.23)"/><path d="M287.1,162.43a1,1,0,0,1-.59,1.3c-.8.32-1.2.47-2,.76a.29.29,0,1,1-.2-.55c.8-.29,1.2-.44,2-.76a.39.39,0,0,0,.23-.51.4.4,0,0,0-.52-.21l-1.5.58a1,1,0,1,1-.67-1.84c.76-.28,1.14-.43,1.9-.74a.3.3,0,0,1,.39.16.3.3,0,0,1-.17.39c-.76.31-1.15.46-1.92.74a.41.41,0,0,0-.24.51.4.4,0,0,0,.51.22c.59-.22.89-.33,1.48-.57A1,1,0,0,1,287.1,162.43Z" transform="translate(-34.51 -6.23)"/></g></g></svg>