<svg id="Capa_2" data-name="Capa 2" xmlns="http://www.w3.org/2000/svg" viewBox="0 0 59.92 54.52"><defs><style>.cls-1{fill:#050505;}.cls-2{fill:#c3c3c3;}.cls-3{fill:#e2e2e2;}.cls-4{fill:#e0e0e0;}.cls-5{fill:#d7d7d7;}.cls-6{fill:#dadada;}.cls-7{fill:#ddd;}.cls-8{fill:#dcdcdc;}.cls-9{fill:#dedede;}.cls-10{fill:#d9d9d9;}.cls-11{fill:#d3d3d3;}.cls-12{fill:#d4d4d4;}.cls-13{fill:#d0d0d0;}.cls-14{fill:#d1d1d1;}.cls-15{fill:#c8c8c8;}.cls-16{fill:#cacaca;}.cls-17{fill:#0b0b0b;}.cls-18{fill:#0a0a0a;}.cls-19{fill:#0e0e0e;}.cls-20{fill:#0f0f0f;}.cls-21{fill:#161616;}.cls-22{fill:#1b1b1b;}.cls-23{fill:#151515;}.cls-24{fill:#080808;}</style></defs><path class="cls-1" d="M60.12,54.82c-1.12.25-2.24.47-3.34.77a9.14,9.14,0,0,0-1.33.66.84.84,0,0,1-.57.09,3.15,3.15,0,0,0-2.3,0c-3,1.17-6.17,1.29-9.29,1.51a49.52,49.52,0,0,1-15.58-1.37A29.37,29.37,0,0,1,16,50.36c-.51-.42-1-.82-1.53-1.28A39.79,39.79,0,0,1,8.1,41,43.47,43.47,0,0,1,3.27,30.42c-.67-2.24-1.13-4.55-1.76-6.82C1.2,22.48.7,21.41.35,20.29A8.22,8.22,0,0,1,.23,19c-.24-1.82.83-2.82,2.24-3.61.22-.12.47-.21.7-.31l2.06-.68-.05-.17a3.14,3.14,0,0,0-.46.08l-1.54.67c-.73-.12-1-.61-.64-1.24a1.94,1.94,0,0,1,1.32-1,3.36,3.36,0,0,0,1.37-.59,1.49,1.49,0,0,0,.2-2.1.5.5,0,0,1,.06-.77c.27-.25.57-.47.86-.7a8.83,8.83,0,0,0,.81-.68c.54-.53.49-.91-.08-1.42a3.89,3.89,0,0,1-.93-1.1,1.18,1.18,0,0,1,.76-1.77,2.8,2.8,0,0,1,1.15-.1A1.46,1.46,0,0,1,9.39,5.33a4.91,4.91,0,0,1-.17.5c-.26.82,0,1.32.9,1.37.64,0,1.29,0,1.93,0,.88,0,1.14.34.93,1.19-.09.32,0,.56.26.67A18.36,18.36,0,0,0,15,9.63c.43.12.88.15,1.32.25a1.32,1.32,0,0,1,1.23,1.38c1.37.06,2.24,1.15,3.41,1.63.58.24,1.19.42,1.77.66,1.08.45,2.17.89,3.22,1.4a2.82,2.82,0,0,1,1.5,1.7,1.63,1.63,0,0,1-1.6.23c-.68-.16-1.34-.41-2-.63l-.28-.08c-1.59-.47-2.32.12-2.19,1.79.25,3.16.45,6.33.76,9.49a29.52,29.52,0,0,0,2.69,10A29.82,29.82,0,0,0,29.66,44a28.5,28.5,0,0,0,2.94,2.77A26.31,26.31,0,0,0,45,52.26a.83.83,0,0,0,.87-.28c.67-.69,1.33-1.39,2-2a2,2,0,0,1,1.88-.59c.49.13.67.42.38.85s-.77,1-1.14,1.56a3.87,3.87,0,0,0-.27.62,4,4,0,0,0,.64.22c.23,0,.47,0,.7,0a12,12,0,0,1,2.25.21A2.25,2.25,0,0,0,55,52.26a2.52,2.52,0,0,0,2,.61c.62,0,1.26-.09,1.88,0a6,6,0,0,1,1.26.36ZM6.52,34.68l.17.11,0-.26-.18-.3-1-2.71c0-.05-.09-.13-.08-.15.5-.49.08-1-.06-1.42a18.82,18.82,0,0,0-.9-2L4.16,28l.4,1.32-.14.09-.7-.95-.16.08a8.39,8.39,0,0,0,.27.85c.55,1.27,1.1,2.54,1.69,3.79a11.4,11.4,0,0,0,.83,1.26ZM37.41,54.23l-.09.51c.55.15.66-.24.84-.63l-.75.12.88-.86-.13-.2a4.54,4.54,0,0,0-.94.45C36.9,53.88,36.93,54.16,37.41,54.23ZM14.78,41.46l-1-.39-.1.2,4.21,2.33c-.13-.53-.82-.68-.58-1.33,0-.06-.09-.18-.16-.24-.64-.48-.82-1.38-1.61-1.73a.38.38,0,0,1,0-.14l.66-.06-.68-.56L16.69,39c-2-.83-2.44-.94-2.58-.69l.19.46-.63-.15.07.58h-.61l-.11.15,1,.78-.49.18,1.27,1.13ZM33.23,52.77c1.54-1.12,3.11-.81,4.66-.06A24.94,24.94,0,0,0,42,54a2.4,2.4,0,0,0,2-.44c-.38-.14-.63-.24-.88-.31-.72-.2-1.45-.36-2.14-.61a3.52,3.52,0,0,1-.87-.68A3.45,3.45,0,0,1,37,50.85a5.59,5.59,0,0,0-2.7-1.58A7.77,7.77,0,0,1,29.75,46c-.09-.15-.26-.37-.21-.46.26-.47-.12-.7-.35-.91A18.33,18.33,0,0,1,26.48,41a23.23,23.23,0,0,0-1.61-2l-.21.6C24.22,38.93,24,38,22.75,38l.86-1-1.86-7-.85.91c-.08-1,.19-1.4.7-1.24.35-.78.31-.91-.32-1.14.11-.78.5-1.59-.1-2.3,0-1.08,0-2.18,0-3.27a4,4,0,0,0-.47-1,6,6,0,0,0,.2-1.07,20,20,0,0,0-.07-2.79c-.07-.6-.48-.76-1-.61s-1.19.31-1.78.47l-2.27.55,1,.72-.05.13-2.15-.47c-.23,1.2-1.17.68-1.71.75-.11.31-.14.6-.3.74a2.66,2.66,0,0,1-2.11.68c-.74-.09-1,.25-.75,1a4.14,4.14,0,0,0,.49.93.85.85,0,0,1-.13,1.24,1.85,1.85,0,0,1-.86.26c-1,.12-1.07.22-1.25,1.07-.22.1-.55.2-.54.25a3.63,3.63,0,0,0,.31,1.08.69.69,0,0,0,.58.26,1.75,1.75,0,0,1,2,1.39,12.76,12.76,0,0,1,0,2.05c0,.08-.32.24-.37.2a1.55,1.55,0,0,1-.65-1.43c0-.26.32-.5.54-.81A4.29,4.29,0,0,0,9.51,28c-.47-.54-.72-.54-1.19,0L7.51,29l.55.39a4.09,4.09,0,0,1,.51.4c.51.47.51.84,0,1.33,1.09.24,1.43,1.08,1.68,2,0,.13.07.27.12.39.2.48.51.54.9.22a3.89,3.89,0,0,1,.69-.4l-2-1.95.12-.16.92.08c0-.35-.06-.69-.11-1-.08-.55,0-1,.67-1.14,0,.45-.11.9-.11,1.35a5.29,5.29,0,0,0,.13.95l.87-.5.73-.49.18.15c.31.43.63.85.9,1.3a.65.65,0,0,1,0,.59.82.82,0,0,1-.61.21,6.44,6.44,0,0,1-1-.32l-.12-.06,0,.14c.36.36.7.72,1.08,1.06a2,2,0,0,1,.82,1.43c0,1.28.2,1.44,1.44,1.37l.32.62.14,0,.23-1a1.74,1.74,0,0,1,1.57,1.43,7.4,7.4,0,0,0,.43.84l.27-.12-.72-1.88.16-.11a22.56,22.56,0,0,1,1.6,2.08c.34.57,0,1.08-.61,1.26a7.65,7.65,0,0,1-.88.16c.4.35.76.72,1.16,1a2.82,2.82,0,0,0,1,.49,2.47,2.47,0,0,1,1.86,1.81c.1.56-.16.85-.71.73a3.79,3.79,0,0,1-1-.42,4.49,4.49,0,0,0-2.12-.76,5,5,0,0,0,1.15.77c1,.45,1.92.88,2.9,1.29a12.07,12.07,0,0,1,6,4.59A2.31,2.31,0,0,1,26,48.44l.59-.36-1.83-.29c.15.68.4,1.11.89,1.28a10.71,10.71,0,0,0,1.75.45c.62.11,1.26.13,2,.2l-.6.87.46.16-.41.48c.44.2.89.58,1.18.49.79-.26,1.12.14,1.46.69s.74.71,1.34.14l.52-.46.09.09-.29.49,0,.12ZM3.94,18.08c-.95.55-1,1-.16,1.65a2,2,0,0,0,.39.26c.93.54,1.32.38,1.52-.61l.93-.11.94-.11-.13.8c.91-.37,1.74-.63,2.51-1a11.58,11.58,0,0,1,4.26-1.32,49.14,49.14,0,0,0,6.2-1.2,2.65,2.65,0,0,0,2-1.69c.28-.76,0-1.16-.8-1.19a28,28,0,0,0-7.83,1c-2.42.62-4.84,1.27-7.25,1.91a4.72,4.72,0,0,0-.66.3l1.09.66-.53.38.91.68c-.65.59-1.23.23-1.8,0s-1-.75-.74-1.64a22.92,22.92,0,0,0-2.6.92A1.85,1.85,0,0,0,2.06,21c0-.31-.05-.6-.05-.88a5.74,5.74,0,0,1,.08-.93C2.31,18.13,2.82,17.82,3.94,18.08ZM42.75,57.3l0-.38a18.83,18.83,0,0,0-2-.15,8.14,8.14,0,0,1-3.7-.28.82.82,0,0,0-.35,0,16,16,0,0,1-8.11-1.06c-2.38-1.07-4.78-2.12-7.17-3.16-.31-.14-.64-.21-1-.32l-.1.22,3.8,2-.07.15-4.06-1.91-.05.14C27.06,56.8,34.78,57.66,42.75,57.3ZM18.37,50.49a2.61,2.61,0,0,0-1.77-1.64c-.77-.23-1.08-.9-1.6-1.37-.11-.1,0-.39-.06-.62a1.23,1.23,0,0,1-1.25-.72c-.38-.61-.61-1.33-1.51-1.47-.29-.05-.53-.53-.73-.85a2.88,2.88,0,0,1-.27-.78,3.35,3.35,0,0,0-1.36-2,1.1,1.1,0,0,1-.27-.36,12,12,0,0,0-.68-1.15,13.27,13.27,0,0,1-2.34-3.82,6.79,6.79,0,0,0-.77-1.39A2,2,0,0,0,5.41,34a23.13,23.13,0,0,0,3,6,25.9,25.9,0,0,1,1.69,2.53,24.21,24.21,0,0,0,6,7.24A3.08,3.08,0,0,0,18.37,50.49ZM12,13.65a1.48,1.48,0,0,1,0-.26c0-.23.08-.46.12-.69a3.32,3.32,0,0,1,.49.41c.26.3.45.65.73.92a.57.57,0,0,0,1-.3,6.24,6.24,0,0,0,.1-1.06l.8.75.13-.12-.6-1.06.25-.63-.11-.18a60.18,60.18,0,0,0-8.38,2.41C8.33,13.53,10.1,12.6,12,13.65Zm3,23.88.15-.15a3.51,3.51,0,0,0-.73-1.11,2.43,2.43,0,0,1-.86-1.72,2.86,2.86,0,0,0-.2-.79c-.1-.17-.34-.27-.51-.4a4.31,4.31,0,0,0,.29,1c.12.4-.08.6-.45.49s-.83-.34-1.25-.48-.68-.17-1.13-.28a2.11,2.11,0,0,0,.85,1.64c1,.56,2,1,3,1.49C14.44,37.37,14.72,37.44,15,37.53Zm.81,7.27c.53,1.25,3.19,1.88,4.09,1C19.15,45.06,16.52,44.41,15.79,44.8ZM13,10.58c-.74-.83-1.73-.84-2.58-1.2A2.21,2.21,0,0,0,12,11.71c.44,0,.62-.15.54-.58l-.12-.55ZM45.26,53.84c1.36.08,2.66.17,4,.23a4,4,0,0,0,1-.07,2.32,2.32,0,0,0,.57-.28,4.17,4.17,0,0,0-1.25-.26c-1-.1-2.05-.22-3.08-.27A1.07,1.07,0,0,0,45.26,53.84ZM6.68,5.25A2.47,2.47,0,0,1,7.35,5a6.38,6.38,0,0,1,.87,0c.52,0,.62-.14.45-.63a1,1,0,0,0-1.26-.63A1.21,1.21,0,0,0,6.68,5.25Zm25,50.36.05-.2-4.38-1A7.25,7.25,0,0,0,31.7,55.61ZM36,54.37a2.59,2.59,0,0,0,.3-.16c.42-.31.61-1.09.29-1.37s-.68.12-1,.28a1,1,0,0,0-.32.25c-.16.22-.3.46-.46.69l.17.15.74-.39ZM7.6,22.5l-.08.23a2.28,2.28,0,0,0,.84.22,2.37,2.37,0,0,0,.89-.49s-.1-.46-.2-.48c-.6-.12-1.22-.18-1.83-.26l0,.18,1.19.5,0,.1ZM22.77,46.14l-2.83-1.29A2.51,2.51,0,0,0,22.77,46.14Zm-12-34.94c-.38-.22-.67-.53-.9-.49-.82.15-1.62.42-2.43.65l0,.1ZM21.28,45a4.37,4.37,0,0,0,3.06.68C23.33,45.64,22.54,44.74,21.28,45Zm37.58,8.62H56v.22A5.72,5.72,0,0,0,58.86,53.63ZM25.33,15.4l1.37,1.08.14-.05a1.7,1.7,0,0,0-.21-.67A1.22,1.22,0,0,0,25.33,15.4ZM23.49,48.9,21.58,48A1.68,1.68,0,0,0,23.49,48.9Zm-1.64-2.29-.08.16a1.33,1.33,0,0,0,1.36.62l.08-.18Zm-16.69-24c.59.77.77.76,1.21,0Zm6-14.46c-.63-.48-1-.4-1.27.21ZM6.33,26.69c-.16-.28-.21-.49-.35-.58A1,1,0,0,0,5.44,26s-.15.19-.13.21a1.26,1.26,0,0,0,.38.31A3.16,3.16,0,0,0,6.33,26.69Zm0-1.18,0-.26L5.32,25l0,.18C5.63,25.37,5.91,25.81,6.38,25.51ZM20,44.57l.07-.24-1.44-.62-.11.26ZM4,26.82l.16-.09-.43-.86C3.28,26.43,3.58,26.63,4,26.82Zm36.68,28.3.19.26,1-.72-.15-.21Z" transform="translate(-0.2 -3.42)"/><path class="cls-2" d="M3.18,14.94l1.54-.67a3.14,3.14,0,0,1,.46-.08l.05.17L3.17,15A.38.38,0,0,1,3.18,14.94Z" transform="translate(-0.2 -3.42)"/><path class="cls-3" d="M12.62,32.32a6.44,6.44,0,0,0,1,.32.82.82,0,0,0,.61-.21.65.65,0,0,0,0-.59c-.27-.45-.59-.87-.9-1.3l.12-.1c.42-.33.18-.61,0-.89H13.2l.07.7-.13.13-.73.49-.87.5a5.29,5.29,0,0,1-.13-.95c0-.45.07-.9.11-1.35-.71.11-.75.59-.67,1.14.05.35.08.69.11,1L10,31.18l-.12.16,2,1.95a3.89,3.89,0,0,0-.69.4c-.39.32-.7.26-.9-.22-.05-.12-.08-.26-.12-.39-.25-.92-.59-1.76-1.68-2,.55-.49.55-.86,0-1.33a4.09,4.09,0,0,0-.51-.4L7.51,29,8.32,28c.47-.53.72-.53,1.19,0a4.29,4.29,0,0,1,.34.46c-.22.31-.52.55-.54.81A1.55,1.55,0,0,0,10,30.73s.36-.12.37-.2a12.76,12.76,0,0,0,0-2.05,1.75,1.75,0,0,0-2-1.39.69.69,0,0,1-.58-.26,3.63,3.63,0,0,1-.31-1.08c0-.05.32-.15.54-.25.18-.85.3-.95,1.25-1.07a1.85,1.85,0,0,0,.86-.26.85.85,0,0,0,.13-1.24A4.14,4.14,0,0,1,9.73,22c-.29-.72,0-1.06.75-1a2.66,2.66,0,0,0,2.11-.68c.16-.14.19-.43.3-.74.54-.07,1.48.45,1.71-.75l2.15.47.05-.13-1-.72,2.27-.55c.59-.16,1.19-.3,1.78-.47s.91,0,1,.61a20,20,0,0,1,.07,2.79,6,6,0,0,1-.2,1.07,4,4,0,0,1,.47,1c0,1.09,0,2.19,0,3.27.6.71.21,1.52.1,2.3.63.23.67.36.32,1.14-.51-.16-.78.28-.7,1.24l.85-.91,1.86,7-.86,1c1.27,0,1.47,1,1.91,1.71l.21-.6a23.23,23.23,0,0,1,1.61,2,18.33,18.33,0,0,0,2.71,3.61c.23.21.61.44.35.91-.05.09.12.31.21.46a7.77,7.77,0,0,0,4.5,3.26A5.59,5.59,0,0,1,37,50.85,3.45,3.45,0,0,0,40.08,52a3.52,3.52,0,0,0,.87.68c.69.25,1.42.41,2.14.61.25.07.5.17.88.31A2.4,2.4,0,0,1,42,54a24.94,24.94,0,0,1-4.11-1.33c-1.55-.75-3.12-1.06-4.66.06l-.09-.1.29-.49-.09-.09-.52.46c-.6.57-.9.55-1.34-.14s-.67-.95-1.46-.69c-.29.09-.74-.29-1.18-.49l.41-.48-.46-.16.6-.87c-.72-.07-1.36-.09-2-.2a10.71,10.71,0,0,1-1.75-.45c-.49-.17-.74-.6-.89-1.28l1.83.29-.59.36a2.31,2.31,0,0,0,2.58.62,12.07,12.07,0,0,0-6-4.59c-1-.41-1.94-.84-2.9-1.29a5,5,0,0,1-1.15-.77,4.49,4.49,0,0,1,2.12.76,3.79,3.79,0,0,0,1,.42c.55.12.81-.17.71-.73a2.47,2.47,0,0,0-1.86-1.81,2.82,2.82,0,0,1-1-.49c-.4-.29-.76-.66-1.16-1a7.65,7.65,0,0,0,.88-.16c.64-.18.95-.69.61-1.26a22.56,22.56,0,0,0-1.6-2.08l-.16.11L18.84,38l-.27.12a7.4,7.4,0,0,1-.43-.84,1.74,1.74,0,0,0-1.57-1.43l-.23,1-.14,0-.32-.62c-1.24.07-1.4-.09-1.44-1.37a2,2,0,0,0-.82-1.43c-.38-.34-.72-.7-1.08-1.06Zm-1.34-5.5h.89l.08-.2-1.89-1.24-.14.18a5.34,5.34,0,0,1,.46.5,6.24,6.24,0,0,1,.38.66l-.78-.41-.13,0,.07.1.3.67-.1.06-.92-.55-.09.11c.36.4.69.83,1.08,1.19a2.28,2.28,0,0,0,.73.29,4.42,4.42,0,0,0,.24-.84C11.48,27.15,11.35,27,11.28,26.82Zm3.39,3.44-1-1.94a6.53,6.53,0,0,0,.88,3.08c.25.42.53.55.88.08,0,0,.06,0,.12,0l.31.19.41-.84a6.78,6.78,0,0,0-2.1-2.41l.61,1.8Zm4.63,1.36c.11-.44.4-1,.25-1.16-.4-.42-.18-.83-.21-1.25,0-.16-.1-.45-.15-.45-.43,0-.39-.32-.48-.57a4.42,4.42,0,0,0-.21-.48A3.2,3.2,0,0,0,19.3,31.62Zm.78-11.79-.28,0a3.59,3.59,0,0,0-.57,2.76.59.59,0,0,0,.36.39c.13,0,.36-.15.44-.29a4.26,4.26,0,0,0,.57-2.12l-.14,0L20,22.09,19.83,22Zm-8.93,4.91a2.76,2.76,0,0,0,2.7,1.66A6.45,6.45,0,0,0,11.15,24.74Zm2.71-.94-1.46-1A4,4,0,0,0,12.78,24a3.26,3.26,0,0,0,1,.63l.09-.14-.35-.46ZM26.94,43.19l-.16.07A1.8,1.8,0,0,0,28.08,45Zm-13-17.71a2.33,2.33,0,0,0-2.1-.81Zm8.37,10.19L22.73,37C23,36.33,22.91,35.93,22.29,35.67Z" transform="translate(-0.2 -3.42)"/><path class="cls-4" d="M3.94,18.08c-1.12-.26-1.63.05-1.85,1.08a5.74,5.74,0,0,0-.08.93c0,.28,0,.57.05.88a1.85,1.85,0,0,1,.1-3.24,22.92,22.92,0,0,1,2.6-.92c-.22.89,0,1.41.74,1.64s1.15.56,1.8,0l-.91-.68.53-.38L5.83,16.7a4.72,4.72,0,0,1,.66-.3c2.41-.64,4.83-1.29,7.25-1.91a28,28,0,0,1,7.83-1c.8,0,1.08.43.8,1.19a2.65,2.65,0,0,1-2,1.69,49.14,49.14,0,0,1-6.2,1.2,11.58,11.58,0,0,0-4.26,1.32c-.77.39-1.6.65-2.51,1l.13-.8-.94.11-.93.11c-.2,1-.59,1.15-1.52.61a2,2,0,0,1-.39-.26C3,19.07,3,18.63,3.94,18.08Zm4.32-.45,2,.89c-.09-.71-.64-1.37-1.13-1.34C8.84,17.19,8.6,17.44,8.26,17.63ZM11.48,16a7.23,7.23,0,0,1,.9-.25,2.44,2.44,0,0,1,1-.06,2,2,0,0,0,1.41-.28A3.35,3.35,0,0,0,11.48,16Zm5.59-1.47c0,.65.43.61.77.66s.52,0,.52-.37-.48-1-.75-.91S17.24,14.31,17.07,14.52ZM10.88,17a.85.85,0,0,0-1-.55c-.29,0-.43.2-.17.47S10.46,17.21,10.88,17Z" transform="translate(-0.2 -3.42)"/><path class="cls-5" d="M42.75,57.3c-8,.36-15.69-.5-22.73-4.74l.05-.14,4.06,1.91.07-.15-3.8-2,.1-.22c.32.11.65.18,1,.32,2.39,1,4.79,2.09,7.17,3.16a16,16,0,0,0,8.11,1.06.82.82,0,0,1,.35,0,8.14,8.14,0,0,0,3.7.28,18.83,18.83,0,0,1,2,.15Z" transform="translate(-0.2 -3.42)"/><path class="cls-6" d="M18.37,50.49a3.08,3.08,0,0,1-2.25-.8,24.21,24.21,0,0,1-6-7.24A25.9,25.9,0,0,0,8.4,39.92a23.13,23.13,0,0,1-3-6,2,2,0,0,1,.35.37,6.79,6.79,0,0,1,.77,1.39,13.27,13.27,0,0,0,2.34,3.82,12,12,0,0,1,.68,1.15,1.1,1.1,0,0,0,.27.36,3.35,3.35,0,0,1,1.36,2,2.88,2.88,0,0,0,.27.78c.2.32.44.8.73.85.9.14,1.13.86,1.51,1.47a1.23,1.23,0,0,0,1.25.72c0,.23,0,.52.06.62.52.47.83,1.14,1.6,1.37A2.61,2.61,0,0,1,18.37,50.49Z" transform="translate(-0.2 -3.42)"/><path class="cls-7" d="M14.84,41.4l-1.27-1.13.49-.18-1-.78.11-.15h.61l-.07-.58.63.15-.19-.46c.14-.25.56-.14,2.58.69l-1.14.58.68.56-.66.06a.38.38,0,0,0,0,.14c.79.35,1,1.25,1.61,1.73.07.06.18.18.16.24-.24.65.45.8.58,1.33L13.7,41.27l.1-.2,1,.39.14,0Z" transform="translate(-0.2 -3.42)"/><path class="cls-8" d="M12,13.65c-1.89-1.05-3.66-.12-5.48.19a60.18,60.18,0,0,1,8.38-2.41l.11.18-.25.63.6,1.06-.13.12-.8-.75a6.24,6.24,0,0,1-.1,1.06.57.57,0,0,1-1,.3c-.28-.27-.47-.62-.73-.92a3.32,3.32,0,0,0-.49-.41c0,.23-.09.46-.12.69A1.48,1.48,0,0,0,12,13.65Z" transform="translate(-0.2 -3.42)"/><path class="cls-9" d="M15,37.53c-.26-.09-.54-.16-.79-.27-1-.48-2.07-.93-3-1.49a2.11,2.11,0,0,1-.85-1.64c.45.11.79.17,1.13.28s.82.37,1.25.48.57-.09.45-.49a4.31,4.31,0,0,1-.29-1c.17.13.41.23.51.4a2.86,2.86,0,0,1,.2.79,2.43,2.43,0,0,0,.86,1.72,3.51,3.51,0,0,1,.73,1.11Z" transform="translate(-0.2 -3.42)"/><path class="cls-10" d="M6.35,34.48a11.4,11.4,0,0,1-.83-1.26C4.93,32,4.38,30.7,3.83,29.43a8.39,8.39,0,0,1-.27-.85l.16-.08.7.95.1.28h.07l0-.36L4.16,28,4.38,28a18.82,18.82,0,0,1,.9,2c.14.44.56.93.06,1.42,0,0,.06.1.08.15l1,2.71ZM4.94,30.82l-.05,0,.05,0,.14.28L5.19,31Z" transform="translate(-0.2 -3.42)"/><path class="cls-8" d="M15.79,44.8c.73-.39,3.36.26,4.09,1C19,46.68,16.32,46.05,15.79,44.8Z" transform="translate(-0.2 -3.42)"/><path class="cls-7" d="M13,10.58h-.6l.12.55c.08.43-.1.63-.54.58a2.21,2.21,0,0,1-1.56-2.33C11.29,9.74,12.28,9.75,13,10.58Z" transform="translate(-0.2 -3.42)"/><path class="cls-6" d="M45.26,53.84a1.07,1.07,0,0,1,1.19-.65c1,.05,2.06.17,3.08.27a4.17,4.17,0,0,1,1.25.26,2.32,2.32,0,0,1-.57.28,4,4,0,0,1-1,.07C47.92,54,46.62,53.92,45.26,53.84Z" transform="translate(-0.2 -3.42)"/><path class="cls-7" d="M6.68,5.25a1.21,1.21,0,0,1,.73-1.53,1,1,0,0,1,1.26.63c.17.49.07.64-.45.63a6.38,6.38,0,0,0-.87,0A2.47,2.47,0,0,0,6.68,5.25Z" transform="translate(-0.2 -3.42)"/><path class="cls-11" d="M31.7,55.61a7.25,7.25,0,0,1-4.33-1.2l4.38,1Z" transform="translate(-0.2 -3.42)"/><path class="cls-8" d="M36,54.37l-.28-.55-.74.39-.17-.15c.16-.23.3-.47.46-.69a1,1,0,0,1,.32-.25c.32-.16.58-.65,1-.28s.13,1.06-.29,1.37A2.59,2.59,0,0,1,36,54.37Z" transform="translate(-0.2 -3.42)"/><path class="cls-12" d="M7.6,22.5h.74l0-.1-1.19-.5,0-.18c.61.08,1.23.14,1.83.26.1,0,.24.45.2.48a2.37,2.37,0,0,1-.89.49,2.28,2.28,0,0,1-.84-.22Z" transform="translate(-0.2 -3.42)"/><path class="cls-12" d="M22.77,46.14a2.51,2.51,0,0,1-2.83-1.29Z" transform="translate(-0.2 -3.42)"/><path class="cls-13" d="M10.74,11.2l-3.29.26,0-.1c.81-.23,1.61-.5,2.43-.65C10.07,10.67,10.36,11,10.74,11.2Z" transform="translate(-0.2 -3.42)"/><path class="cls-14" d="M21.28,45c1.26-.27,2,.63,3.06.68A4.37,4.37,0,0,1,21.28,45Z" transform="translate(-0.2 -3.42)"/><path class="cls-15" d="M58.86,53.63a5.72,5.72,0,0,1-2.84.22v-.22Z" transform="translate(-0.2 -3.42)"/><path class="cls-13" d="M25.33,15.4a1.22,1.22,0,0,1,1.3.36,1.7,1.7,0,0,1,.21.67l-.14.05Z" transform="translate(-0.2 -3.42)"/><path class="cls-14" d="M23.49,48.9A1.68,1.68,0,0,1,21.58,48Z" transform="translate(-0.2 -3.42)"/><path class="cls-10" d="M37.41,54.23c-.48-.07-.51-.35-.19-.61a4.54,4.54,0,0,1,.94-.45l.13.2-.88.86Z" transform="translate(-0.2 -3.42)"/><path class="cls-14" d="M21.85,46.61l1.36.6-.08.18a1.33,1.33,0,0,1-1.36-.62Z" transform="translate(-0.2 -3.42)"/><path class="cls-14" d="M5.16,22.62H6.37C5.93,23.38,5.75,23.39,5.16,22.62Z" transform="translate(-0.2 -3.42)"/><path class="cls-15" d="M11.13,8.16l-1.27.21C10.12,7.76,10.5,7.68,11.13,8.16Z" transform="translate(-0.2 -3.42)"/><path class="cls-12" d="M6.33,26.69a3.16,3.16,0,0,1-.64-.14,1.26,1.26,0,0,1-.38-.31S5.4,26,5.44,26a1,1,0,0,1,.54.08C6.12,26.2,6.17,26.41,6.33,26.69Z" transform="translate(-0.2 -3.42)"/><path class="cls-11" d="M6.38,25.51c-.47.3-.75-.14-1.1-.31l0-.18,1.1.23Z" transform="translate(-0.2 -3.42)"/><path class="cls-16" d="M20,44.57,18.56,44l.11-.26,1.44.62Z" transform="translate(-0.2 -3.42)"/><path class="cls-2" d="M4,26.82c-.37-.19-.67-.39-.27-.95l.43.86Z" transform="translate(-0.2 -3.42)"/><path class="cls-15" d="M40.63,55.12l1-.67.15.21-1,.72Z" transform="translate(-0.2 -3.42)"/><path class="cls-15" d="M37.41,54.23l.75-.12c-.18.39-.29.78-.84.63l.09-.51Z" transform="translate(-0.2 -3.42)"/><path class="cls-5" d="M6.35,34.48l.12-.25.18.3-.13.15Z" transform="translate(-0.2 -3.42)"/><path class="cls-5" d="M6.65,34.53l0,.26-.17-.11Z" transform="translate(-0.2 -3.42)"/><path class="cls-3" d="M13.32,30.54l-.18-.15.13-.13.17.18Z" transform="translate(-0.2 -3.42)"/><path class="cls-3" d="M33.23,52.77l-.14,0,0-.12Z" transform="translate(-0.2 -3.42)"/><path class="cls-3" d="M12.54,32.4l0-.14.12.06Z" transform="translate(-0.2 -3.42)"/><path class="cls-17" d="M14.79,30.18l-.61-1.8a6.78,6.78,0,0,1,2.1,2.41l-.41.84-.31-.19c-.06,0-.11,0-.12,0-.35.47-.63.34-.88-.08a6.53,6.53,0,0,1-.88-3.08l1,1.94.1.18.07,0Z" transform="translate(-0.2 -3.42)"/><path class="cls-18" d="M19.3,31.62a3.2,3.2,0,0,1-.8-3.91,4.42,4.42,0,0,1,.21.48c.09.25.05.59.48.57,0,0,.14.29.15.45,0,.42-.19.83.21,1.25C19.7,30.62,19.41,31.18,19.3,31.62Z" transform="translate(-0.2 -3.42)"/><path class="cls-19" d="M20.08,19.83,19.83,22l.16.05.47-1.6.14,0A4.26,4.26,0,0,1,20,22.65c-.08.14-.31.31-.44.29a.59.59,0,0,1-.36-.39,3.59,3.59,0,0,1,.57-2.76Z" transform="translate(-0.2 -3.42)"/><path class="cls-19" d="M10.28,26.31l.78.41.22.1c.07.16.2.33.18.48a4.42,4.42,0,0,1-.24.84,2.28,2.28,0,0,1-.73-.29c-.39-.36-.72-.79-1.08-1.19l.09-.11.92.55.1-.06-.3-.67Z" transform="translate(-0.2 -3.42)"/><path class="cls-17" d="M11.15,24.74a6.45,6.45,0,0,1,2.7,1.66A2.76,2.76,0,0,1,11.15,24.74Z" transform="translate(-0.2 -3.42)"/><path class="cls-20" d="M13.86,23.8l-.32.26.35.46-.09.14a3.26,3.26,0,0,1-1-.63,4,4,0,0,1-.38-1.23Z" transform="translate(-0.2 -3.42)"/><path class="cls-20" d="M11.28,26.82l-.22-.1a6.24,6.24,0,0,0-.38-.66,5.34,5.34,0,0,0-.46-.5l.14-.18,1.89,1.24-.08.2Z" transform="translate(-0.2 -3.42)"/><path class="cls-21" d="M26.94,43.19,28.08,45a1.8,1.8,0,0,1-1.3-1.72Z" transform="translate(-0.2 -3.42)"/><path class="cls-22" d="M13.92,25.48l-2.1-.81A2.33,2.33,0,0,1,13.92,25.48Z" transform="translate(-0.2 -3.42)"/><path class="cls-22" d="M22.29,35.67c.62.26.73.66.44,1.37Z" transform="translate(-0.2 -3.42)"/><path class="cls-22" d="M13.44,30.44l-.17-.18-.07-.7h.21C13.62,29.83,13.86,30.11,13.44,30.44Z" transform="translate(-0.2 -3.42)"/><path class="cls-19" d="M10.22,26.37l-.07-.1.13,0Z" transform="translate(-0.2 -3.42)"/><path class="cls-17" d="M8.26,17.63c.34-.19.58-.44.84-.45.49,0,1,.63,1.13,1.34Z" transform="translate(-0.2 -3.42)"/><path class="cls-23" d="M11.48,16a3.35,3.35,0,0,1,3.31-.59,2,2,0,0,1-1.41.28,2.44,2.44,0,0,0-1,.06A7.23,7.23,0,0,0,11.48,16Z" transform="translate(-0.2 -3.42)"/><path class="cls-24" d="M17.07,14.52c.17-.21.31-.53.54-.62s.76.53.75.91-.26.4-.52.37S17.08,15.17,17.07,14.52Z" transform="translate(-0.2 -3.42)"/><path class="cls-23" d="M10.88,17c-.42.23-.78.29-1.12-.08s-.12-.45.17-.47A.85.85,0,0,1,10.88,17Z" transform="translate(-0.2 -3.42)"/><path class="cls-1" d="M14.84,41.4l.08.09-.14,0Z" transform="translate(-0.2 -3.42)"/><path class="cls-5" d="M4.94,30.82l.25.18-.11.11-.14-.28Z" transform="translate(-0.2 -3.42)"/><path class="cls-1" d="M4.56,29.36l0,.36H4.52l-.1-.28Z" transform="translate(-0.2 -3.42)"/><path class="cls-5" d="M4.94,30.83l-.05,0,.05,0Z" transform="translate(-0.2 -3.42)"/><path class="cls-3" d="M14.79,30.18l.05.24-.07,0-.1-.18Z" transform="translate(-0.2 -3.42)"/></svg>