<svg id="Capa_2" data-name="Capa 2" xmlns="http://www.w3.org/2000/svg" viewBox="0 0 58.57 57.11"><defs><style>.cls-1{fill:#fff;}.cls-2{fill:#ef5336;}</style></defs><rect class="cls-1" x="11.21" y="10.96" width="30.27" height="35.31" transform="translate(-13.2 25.22) rotate(-45)"/><path class="cls-2" d="M19.61,10.63l6.19,6.29c-.16,3.24.09,3.84,2.65,6.21V38c-3.12,3.37-3.5,5.43-1.4,7.55a4.55,4.55,0,0,0,6.23-.06c1.81-1.93,1.43-4.41-1.16-7.1V23.23L38.24,29c.21,4.17,1.64,6.14,4.53,6A4.41,4.41,0,0,0,47,30.69c0-2.78-1.86-4.22-5.89-4.37l-6.49-5.63c-.27-4.38-.81-6.29-5.63-6.26L22.23,7.94C24,6.2,25.63,4.38,27.46,2.75c1.61-1.44,3.66-1.22,5.42.41,3.62,3.38,7.26,6.74,10.81,10.2,4.52,4.41,9,8.89,13.43,13.37C60,29.6,60,31.15,57.14,34c-5.82,5.82-11.63,11.66-17.5,17.44-2.1,2.06-4.36,4-6.53,6s-4,2.08-6.22-.09c-4.84-4.77-9.6-9.63-14.46-14.38-3.2-3.13-6.56-6.1-9.76-9.22C0,31.12,0,29.43,2.63,26.89,8.17,21.52,13.77,16.21,19.61,10.63Z" transform="translate(-0.69 -1.79)"/></svg>