<svg xmlns="http://www.w3.org/2000/svg" viewBox="0 0 57.32 58.52"><defs><style>.cls-1{fill:#fff;}.cls-2{fill:#e44c22;}.cls-3{fill:#f06524;}.cls-4{fill:#ebeaea;}.cls-5{fill:#f06525;}.cls-6{fill:#e44c21;}</style></defs><g id="Capa_1" data-name="Capa 1"><rect class="cls-1" x="10.05" y="9.91" width="37.45" height="37.8"/></g><g id="Capa_2" data-name="Capa 2"><rect class="cls-1" x="10.66" y="10.99" width="37.08" height="37.68"/><path class="cls-2" d="M30.18,1.45q14,0,28,0c.55,0,.69.1.62.68-.18,1.5-.25,3-.41,4.53-.24,2.42-.53,4.83-.78,7.24-.15,1.53-.24,3.07-.39,4.6-.19,1.9-.44,3.79-.62,5.69-.21,2.21-.37,4.42-.59,6.63s-.52,4.7-.76,7.06c-.16,1.59-.26,3.18-.42,4.77s-.37,3-.52,4.55c-.21,2.13-.41,4.26-.57,6.39,0,.41-.14.58-.55.68-3.15.77-6.3,1.56-9.45,2.35-2.67.66-5.33,1.34-8,2-1.68.42-3.36.83-5,1.27a5.2,5.2,0,0,1-2.62-.39c-3.18-.75-6.34-1.57-9.51-2.36L8.39,54.59c-.45-.11-.89-.25-1.33-.34s-.42-.18-.45-.5c-.28-3.34-.55-6.69-.87-10-.28-2.89-.62-5.78-.92-8.67-.08-.77-.11-1.55-.2-2.33-.17-1.71-.38-3.43-.55-5.15-.25-2.5-.45-5-.7-7.52-.21-2.17-.48-4.34-.7-6.52-.18-1.81-.31-3.62-.48-5.43-.2-2-.41-4-.66-6-.07-.55.09-.61.58-.61Zm.06,30.36,0,10.24-.14.07L29.67,42c-2.4-.59-4.8-1.17-7.19-1.77a.66.66,0,0,1-.39-.44c-.15-1.41-.28-2.83-.37-4.24,0-.42-.18-.53-.58-.52-2,0-4,0-6,0-.59,0-.69.19-.64.71.33,2.93.65,5.86.92,8.79a.82.82,0,0,0,.74.85l14.08,3.49c0,1.88,0,3.76,0,5.64,0,1.13-.17,1,1,.76,3.22-.78,6.43-1.61,9.65-2.41,2.64-.66,5.29-1.3,7.92-2a.69.69,0,0,0,.38-.49c.09-.55.09-1.11.15-1.66.23-2,.5-4,.7-6,.23-2.25.4-4.51.61-6.76.19-2,.4-4.05.6-6.07s.39-4,.6-6c.19-1.77.41-3.53.59-5.3s.34-3.56.49-5.34c.13-1.58.22-3.17.37-4.75a17.62,17.62,0,0,1,.35-1.9c.12-.63,0-.85-.59-.85H30.8c-.45,0-.57.14-.57.58,0,2,0,3.92,0,5.88l-.12,0-17.62,0c-.31,0-.34.11-.31.39q.41,3.38.75,6.75c.19,1.89.32,3.78.51,5.66.21,2.08.48,4.15.66,6.22.05.54.28.54.67.54H27.85l2.27,0Z" transform="translate(-1.52 -1.44)"/><path class="cls-3" d="M30.24,12.21c0-2,0-3.92,0-5.88,0-.44.12-.58.57-.58H53.05c.58,0,.71.22.59.85a17.62,17.62,0,0,0-.35,1.9c-.15,1.58-.24,3.17-.37,4.75-.15,1.78-.31,3.56-.49,5.34s-.4,3.53-.59,5.3c-.21,2-.4,4-.6,6s-.41,4-.6,6.07c-.21,2.25-.38,4.51-.61,6.76-.2,2-.47,4-.7,6-.06.55-.06,1.11-.15,1.66a.69.69,0,0,1-.38.49c-2.63.68-5.28,1.32-7.92,2-3.22.8-6.43,1.63-9.65,2.41-1.16.28-1,.37-1-.76,0-1.88,0-3.76,0-5.64l0-.09c.23,0,.47-.08.7-.14l8.28-2c1.71-.43,3.43-.86,5.14-1.32a.66.66,0,0,0,.45-.41c.2-1.31.36-2.63.49-3.95q.55-5.4,1.08-10.81c.14-1.39.23-2.78.38-4.17.06-.48-.09-.59-.56-.59-3.1,0-6.2,0-9.29,0l-6.71,0V18.73l.72,0H46.62c.83,0,1-.13,1-1,.14-1.61.28-3.23.46-4.83.06-.57-.1-.69-.65-.69q-8,0-16,0Z" transform="translate(-1.52 -1.44)"/><path class="cls-4" d="M30.12,31.76l-2.27,0H14.78c-.39,0-.62,0-.67-.54-.18-2.07-.45-4.14-.66-6.22-.19-1.88-.32-3.77-.51-5.66q-.34-3.37-.75-6.75c0-.28,0-.39.31-.39l17.62,0v6.42c-3.13,0-6.26,0-9.4,0-.44,0-.64.06-.58.58.19,1.76.38,3.53.48,5.29,0,.65.23.77.82.76,2.89,0,5.79,0,8.68,0Z" transform="translate(-1.52 -1.44)"/><path class="cls-4" d="M30.12,42.12c0,2,0,4,0,6a2.69,2.69,0,0,0,.15.67l0,.09L16.16,45.35a.82.82,0,0,1-.74-.85c-.27-2.93-.59-5.86-.92-8.79-.05-.52.05-.72.64-.71,2,0,4,0,6,0,.4,0,.55.1.58.52.09,1.41.22,2.83.37,4.24a.66.66,0,0,0,.39.44c2.39.6,4.79,1.18,7.19,1.77Z" transform="translate(-1.52 -1.44)"/><path class="cls-5" d="M30.24,31.81c2.77,0,5.55,0,8.32,0,.3,0,.37.11.34.39-.15,1.69-.28,3.38-.42,5.07-.07.8-.15,1.59-.21,2.39,0,.34-.12.56-.53.65-2.49.57-5,1.18-7.48,1.77Q30.24,36.94,30.24,31.81Z" transform="translate(-1.52 -1.44)"/><path class="cls-6" d="M30.12,18.68l.12.05V25.3l-.12,0c-2.89,0-5.79,0-8.68,0-.59,0-.79-.11-.82-.76-.1-1.76-.29-3.53-.48-5.29-.06-.52.14-.58.58-.58C23.86,18.71,27,18.69,30.12,18.68Z" transform="translate(-1.52 -1.44)"/></g></svg>