<svg id="Capa_2" data-name="Capa 2" xmlns="http://www.w3.org/2000/svg" viewBox="0 0 59 57.46"><defs><style>.cls-1{fill:#eb262a;}.cls-2{fill:#158dc7;}.cls-3{fill:#eb252a;}.cls-4{fill:#128bc7;}.cls-5{fill:#138cc7;}.cls-6{fill:#168dc7;}.cls-7{fill:#198fc8;}.cls-8{fill:#75b5d5;}</style></defs><path class="cls-1" d="M38.19,1.08A2.66,2.66,0,0,1,39.41,2.8a7.84,7.84,0,0,1,.4,3.33,8.21,8.21,0,0,1-1.55,3.63,17.42,17.42,0,0,1-4.13,3.53c-2.46,1.73-4.93,3.44-7.32,5.26a14.16,14.16,0,0,0-2.54,2.59,3.23,3.23,0,0,0-.33,3.5A21,21,0,0,0,28,30.36c.34.37.65.77,1,1.16l-.09.1a4.34,4.34,0,0,1-.66-.38c-1.29-1-2.61-2-3.84-3.14s-2.61-2.42-3.82-3.72a5.2,5.2,0,0,1-1.13-2,2.81,2.81,0,0,1,.76-2.53,15.2,15.2,0,0,1,4.19-3.55c2.89-1.8,5.82-3.53,8.72-5.31a13.2,13.2,0,0,0,3.75-3.35,6.26,6.26,0,0,0,1.37-3.11c.06-.64.17-1.28.18-1.92a6,6,0,0,0-.21-1.09A3,3,0,0,1,38.19,1.08Z" transform="translate(-0.45 -1.08)"/><path class="cls-2" d="M44.61,53.25l.41,0,.72-.06.41,0,.72-.07.2,0,.62-.06.31,0,.42-.05.18,0L50,52.66l.2,0,.52-.09.2,0,.95-.19.18,0,.23-.07.19,0a4,4,0,0,0,2.18-.79l.06-.06a0,0,0,0,0,0,0s0,0,0,0l.46-.82h.11l0,.06c.49.84.51.92-.41,1.4a18.47,18.47,0,0,1-2.67,1.14c-.87.31-1.77.49-2.66.73-2.66.39-5.31.89-8,1.13a212.17,212.17,0,0,1-22.27.59,111.87,111.87,0,0,1-14.63-1c-1-.16-2.07-.45-3.1-.69a2.76,2.76,0,0,1-.47-.2C.09,53.09.37,52.55,1,52A7,7,0,0,1,4,50.75a37,37,0,0,1,7.63-1.08,4.85,4.85,0,0,1,.66,0,2.57,2.57,0,0,1,.4.05c-1.54.27-3.08.49-4.6.83a9.1,9.1,0,0,0-2.2.9c-.49.26-.45.63.09.83a8.7,8.7,0,0,0,2.11.58c3.19.35,6.38.72,9.58.92,7.2.44,14.41.08,21.61-.2,1.47-.06,2.94-.19,4.42-.28l.62,0,.17,0Z" transform="translate(-0.45 -1.08)"/><path class="cls-3" d="M33.11,34.11c.26-.28.49-.52.71-.78a14.27,14.27,0,0,0,1-1.21,2,2,0,0,0-.12-2.59c-.85-1-1.75-1.86-2.63-2.79a5.91,5.91,0,0,1-1.92-4.22,4.74,4.74,0,0,1,1.48-3.14,17.92,17.92,0,0,1,6.27-3.87A49.75,49.75,0,0,1,46,13a2.23,2.23,0,0,1,.82,0,3.64,3.64,0,0,1-.48.32c-2.42,1.25-4.86,2.46-7.25,3.74a11.79,11.79,0,0,0-3.33,2.54,5.2,5.2,0,0,0-1,1.53,2.16,2.16,0,0,0,.48,2.15c.69.89,1.46,1.71,2.2,2.56a6.27,6.27,0,0,1,1.6,2.93,2.45,2.45,0,0,1-.7,2,13.34,13.34,0,0,1-4.89,3.36.67.67,0,0,1-.19.05A.85.85,0,0,1,33.11,34.11Z" transform="translate(-0.45 -1.08)"/><path class="cls-4" d="M42.33,48.28c-2,.37-3.93.78-5.9,1.11a52.83,52.83,0,0,1-15.58.1,13.21,13.21,0,0,1-4.35-1.14,2.91,2.91,0,0,1-.35-.2c-.51-.44-.9-1-.18-1.56a5.64,5.64,0,0,1,3-1.12,1.07,1.07,0,0,1-.1.26c-.34.42-.32.71.19.89a7.51,7.51,0,0,0,2,.48,89.62,89.62,0,0,0,11.93,0c1.58-.12,3.16-.36,4.75-.51a1.92,1.92,0,0,1,.84.15c1.17.42,2.33.87,3.49,1.31l.27.12Z" transform="translate(-0.45 -1.08)"/><path class="cls-5" d="M17.24,39.19c-1.31,1.17-.61,1.67.43,1.87a25.7,25.7,0,0,0,3.26.41A117,117,0,0,0,36.14,41c1.27-.11,2.53-.28,3.79-.39a1.51,1.51,0,0,1,.79.1c.92.4,1.82.85,2.77,1.3l-2.27.49a68.68,68.68,0,0,1-18.27,1c-2.39-.16-4.77-.46-7.15-.76a7.61,7.61,0,0,1-1.9-.59.92.92,0,0,1-.24-1.63A6.44,6.44,0,0,1,17.24,39.19Z" transform="translate(-0.45 -1.08)"/><path class="cls-6" d="M19.92,32.62c-1.21.27-2.43.5-3.63.84s-2.1.7-3.13,1.1c-.19.07-.31.32-.46.49.19.13.36.33.56.36,1.22.19,2.44.41,3.66.49a107.76,107.76,0,0,0,14.15,0c5.08-.36,10.15-.83,15.23-1.25l.38,0a1.93,1.93,0,0,1-.33.26A21.67,21.67,0,0,1,43.82,36a13,13,0,0,1-2.57.41,169.59,169.59,0,0,1-18,1.14,101.41,101.41,0,0,1-13.71-.81c-.67-.1-1.33-.28-2-.45a2.08,2.08,0,0,1-.45-.22c-.32-.19-.37-.43,0-.61A13.49,13.49,0,0,1,9,34.52,39.64,39.64,0,0,1,19.92,32.62Z" transform="translate(-0.45 -1.08)"/><path class="cls-7" d="M59.34,53.12a5.48,5.48,0,0,1-3,2.32,28.28,28.28,0,0,1-6.83,1.78,127.92,127.92,0,0,1-14.76,1.24A113.41,113.41,0,0,1,19.41,58c-2.35-.25-4.68-.67-7-1a2.69,2.69,0,0,1-.42-.18,2.77,2.77,0,0,1,.45-.06c7.16.53,14.33.77,21.51.62a95.45,95.45,0,0,0,17.85-1.71,24.91,24.91,0,0,0,7.07-2.39A4.09,4.09,0,0,1,59.34,53.12Z" transform="translate(-0.45 -1.08)"/><path class="cls-2" d="M47.18,43.14a26,26,0,0,0,7.38-4.36A6.23,6.23,0,0,0,56,36.89a2.37,2.37,0,0,0-.33-2.55,4.77,4.77,0,0,0-3.73-1.59c-.92-.07-1.85,0-2.82-.07a11,11,0,0,1,1.09-.4,9.32,9.32,0,0,1,7.55,1.07,3.07,3.07,0,0,1,1.67,3.17,3.63,3.63,0,0,1-1.2,2.06,16.35,16.35,0,0,1-6.79,3.6c-1.25.39-2.55.66-3.82,1A2.42,2.42,0,0,1,47.18,43.14Z" transform="translate(-0.45 -1.08)"/><path class="cls-8" d="M49.63,53.79c.89-.24,1.79-.42,2.66-.73A18.47,18.47,0,0,0,55,51.92c.92-.48.9-.56.41-1.4.21.17.53.32.58.54s-.16.49-.34.65a8.69,8.69,0,0,1-3.06,1.44c-.75.25-1.54.39-2.32.57A5.79,5.79,0,0,1,49.63,53.79Z" transform="translate(-0.45 -1.08)"/><path class="cls-8" d="M54.61,51.43a4,4,0,0,1-2.18.79Z" transform="translate(-0.45 -1.08)"/><path class="cls-8" d="M55.32,50.46h-.11l-.46.82V50.11Z" transform="translate(-0.45 -1.08)"/><path class="cls-8" d="M50,52.66l-1.36.18Z" transform="translate(-0.45 -1.08)"/><path class="cls-8" d="M51.83,52.33l-.95.19Z" transform="translate(-0.45 -1.08)"/><path class="cls-8" d="M50.68,52.54l-.52.09Z" transform="translate(-0.45 -1.08)"/><path class="cls-8" d="M47.69,53l-.62.06Z" transform="translate(-0.45 -1.08)"/><path class="cls-8" d="M48.42,52.87l-.42.05Z" transform="translate(-0.45 -1.08)"/><path class="cls-8" d="M46.87,53.05l-.72.07Z" transform="translate(-0.45 -1.08)"/><path class="cls-8" d="M45.74,53.16l-.72.06Z" transform="translate(-0.45 -1.08)"/><path class="cls-8" d="M44.3,53.29l-.62,0Z" transform="translate(-0.45 -1.08)"/><path class="cls-8" d="M52.24,52.24l-.23.07Z" transform="translate(-0.45 -1.08)"/><path class="cls-8" d="M54.71,51.32a0,0,0,0,1,0,0l0,0Z" transform="translate(-0.45 -1.08)"/><path class="cls-8" d="M44.61,53.25l-.14,0Z" transform="translate(-0.45 -1.08)"/></svg>