<svg id="Capa_2" data-name="Capa 2" xmlns="http://www.w3.org/2000/svg" viewBox="0 0 60 60"><defs><style>.cls-1{fill:#fff;}.cls-2{fill:#f3e01d;}.cls-3{fill:#070909;}</style></defs><rect class="cls-1" x="12.06" y="12.31" width="37.08" height="37.68"/><path class="cls-2" d="M.12,60.12V.12h60v60ZM35.82,49.8A9,9,0,0,0,38.28,53c3.65,2.88,7.75,3.26,12,1.89a6.78,6.78,0,0,0,5-5.69,7.66,7.66,0,0,0-2.72-7.71,24.06,24.06,0,0,0-5.53-3A25.22,25.22,0,0,1,44.14,37a2.39,2.39,0,0,1-1-2.58,2.13,2.13,0,0,1,1.55-1.77,3.42,3.42,0,0,1,3.65.83c.41.42.74.91,1.11,1.37L53.76,32a8.44,8.44,0,0,0-3.65-3.64,10.32,10.32,0,0,0-6.34-.7,7.29,7.29,0,0,0-5,3.11,7.67,7.67,0,0,0-1.12,5.77,7.21,7.21,0,0,0,1.21,3A11.84,11.84,0,0,0,44,43.34c1.45.66,2.92,1.29,4.3,2.06a3.16,3.16,0,0,1,1.29,1.46c.66,1.61-.41,3.18-2.31,3.55A5.85,5.85,0,0,1,41,48c-.22-.29-.43-.59-.65-.89Zm-20,.6a8.47,8.47,0,0,0,3.7,4,10.39,10.39,0,0,0,7.79.72A6.76,6.76,0,0,0,32,51.36,10.76,10.76,0,0,0,32.82,47V27.87H27v.69C27,34.7,27,40.84,27,47a8,8,0,0,1-.21,1.75,2.1,2.1,0,0,1-1.43,1.59,3.39,3.39,0,0,1-4-1.19c-.35-.47-.65-1-1-1.5Z" transform="translate(-0.12 -0.12)"/><path class="cls-3" d="M35.82,49.8l4.55-2.66c.22.3.43.6.65.89a5.85,5.85,0,0,0,6.23,2.38c1.9-.37,3-1.94,2.31-3.55a3.16,3.16,0,0,0-1.29-1.46c-1.38-.77-2.85-1.4-4.3-2.06a11.84,11.84,0,0,1-5.14-3.72,7.21,7.21,0,0,1-1.21-3,7.67,7.67,0,0,1,1.12-5.77,7.29,7.29,0,0,1,5-3.11,10.32,10.32,0,0,1,6.34.7A8.44,8.44,0,0,1,53.76,32l-4.34,2.79c-.37-.46-.7-.95-1.11-1.37a3.42,3.42,0,0,0-3.65-.83,2.13,2.13,0,0,0-1.55,1.77,2.39,2.39,0,0,0,1,2.58A25.22,25.22,0,0,0,47,38.46a24.06,24.06,0,0,1,5.53,3,7.66,7.66,0,0,1,2.72,7.71,6.78,6.78,0,0,1-5,5.69c-4.29,1.37-8.39,1-12-1.89A9,9,0,0,1,35.82,49.8Z" transform="translate(-0.12 -0.12)"/><path class="cls-3" d="M15.82,50.4l4.56-2.77c.35.52.65,1,1,1.5a3.39,3.39,0,0,0,4,1.19,2.1,2.1,0,0,0,1.43-1.59A8,8,0,0,0,27,47c0-6.14,0-12.28,0-18.42v-.69h5.79V47A10.76,10.76,0,0,1,32,51.36a6.76,6.76,0,0,1-4.68,3.8,10.39,10.39,0,0,1-7.79-.72A8.47,8.47,0,0,1,15.82,50.4Z" transform="translate(-0.12 -0.12)"/></svg>