<svg id="Capa_2" data-name="Capa 2" xmlns="http://www.w3.org/2000/svg" viewBox="0 0 54.13 56.31"><defs><style>.cls-1{fill:#f73c30;}</style></defs><path class="cls-1" d="M26.27,31.34c.76-.37,1.29-.56,1.75-.85,2-1.23,3.92-2.54,5.92-3.72A1.8,1.8,0,0,0,35,25c0-3,0-6.09,0-9.13a2.45,2.45,0,0,1,1.42-2.47c2.76-1.59,5.46-3.3,8.13-5.05a3,3,0,0,1,3.78,0c2.8,1.86,5.69,3.58,8.57,5.34a1.61,1.61,0,0,1,.82,1.56q0,5.43,0,10.86a1.76,1.76,0,0,1-.94,1.68c-2.78,1.67-5.53,3.41-8.32,5.07a2.07,2.07,0,0,0-1.18,2c.07,3,0,6.09.05,9.13a2.21,2.21,0,0,1-1.38,2.3c-1.33.67-2.61,1.45-3.89,2.21-4.92,2.93-9.84,5.83-14.71,8.83a3.08,3.08,0,0,1-3.72,0c-3.76-2.32-7.65-4.41-11.46-6.66-2.56-1.5-5-3.12-7.58-4.65a1.77,1.77,0,0,1-1-1.67c0-.35,0-.69,0-1,0-11.09,0-22.18,0-33.27A3.08,3.08,0,0,1,5.31,6.89c2.84-1.51,5.61-3.16,8.36-4.81a2.12,2.12,0,0,1,2.51,0C19.07,3.8,22,5.51,25,7.12a2.22,2.22,0,0,1,1.32,2.31c0,6.61,0,13.21,0,19.82ZM24.54,55.8c0-3.27,0-6.14,0-9a2,2,0,0,0-1.19-2c-2.62-1.42-5.16-3-7.81-4.36a2.46,2.46,0,0,1-1.47-2.58c.05-6.89,0-13.78,0-20.67V15.31l-8.7-5V16c0,9,0,17.92,0,26.88a2.16,2.16,0,0,0,1.3,2.32A36.06,36.06,0,0,1,9.85,47c3.81,2.3,7.61,4.63,11.43,6.93C22.24,54.5,23.24,55.05,24.54,55.8Zm20.9-21.19-3.56,2c-4.78,2.72-9.54,5.48-14.35,8.15a2.18,2.18,0,0,0-1.28,2.31c.08,2.46,0,4.93,0,7.4,0,.36.08.72.13,1.18a4.74,4.74,0,0,0,.79-.28c3.15-2.06,6.62-3.56,9.64-5.87a49.16,49.16,0,0,1,5.64-3.29c1-.59,2.05-1.21,3-1.75Zm-1-1.58c-2.7-1.72-5.15-3.26-7.58-4.85a1.65,1.65,0,0,0-2,.08c-1.35.92-2.69,1.89-4.1,2.72-4.15,2.43-8.34,4.8-12.52,7.21-.43.25-.83.56-1.33.89,2.39,1.35,4.7,2.52,6.85,3.93A3,3,0,0,0,27.28,43c4.15-2.44,8.36-4.78,12.54-7.18C41.3,34.93,42.75,34,44.44,33ZM24.55,10.33l-8.64,4.94V37.35c.58-.28,1-.47,1.47-.72,1.89-1.07,3.74-2.24,5.68-3.22a2.39,2.39,0,0,0,1.52-2.51c-.07-6.19,0-12.38,0-18.58ZM6.28,8.41,14,13.25a1.55,1.55,0,0,0,1.77.08c2.54-1.6,5.09-3.19,7.87-4.92-2.86-1.63-5.49-3.15-8.14-4.62a1.35,1.35,0,0,0-1.13,0C11.76,5.26,9.14,6.78,6.28,8.41ZM37.7,14.7l8.67,5,4.26-2.44c1.41-.81,2.81-1.64,4.4-2.57-1.41-.83-2.55-1.48-3.66-2.17q-2-1.26-4-2.59a1.73,1.73,0,0,0-2.33.17,22.37,22.37,0,0,1-2,1.48C41.37,12.59,39.68,13.54,37.7,14.7Zm7.75,16.81V21.19l-8.6-4.92c0,3.35,0,6.38,0,9.4,0,.33.47.74.82,1,1.21.77,2.48,1.44,3.7,2.2S43.94,30.5,45.45,31.51Zm10.5-15a3.34,3.34,0,0,0-.7.11c-2.44,1.39-4.86,2.79-7.31,4.17-.67.37-.7.95-.7,1.61,0,2.46,0,4.92,0,7.39,0,.42.09.84.15,1.49.78-.41,1.41-.67,2-1s.81-.77,1.28-1.05c1.37-.84,2.73-1.69,4.17-2.4a1.9,1.9,0,0,0,1.15-2c-.06-2,0-4,0-6Z" transform="translate(-3.52 -1.65)"/></svg>