<svg id="Capa_1" data-name="Capa 1" xmlns="http://www.w3.org/2000/svg" viewBox="0 0 34.6 34.6"><defs><style>.cls-1{fill:#fff;}</style></defs><path class="cls-1" d="M17.5.2A17.3,17.3,0,1,0,34.8,17.5,17.31,17.31,0,0,0,17.5.2ZM16,22.2a.87.87,0,0,1-.6.9c-.1.1-.2.1-.4.1a.91.91,0,0,1-.7-.3L6,15.2v7a.94.94,0,0,1-1,1,.94.94,0,0,1-1-1V12.8a.87.87,0,0,1,.6-.9.91.91,0,0,1,1.1.2L14,19.9v-7a.94.94,0,0,1,1-1,.87.87,0,0,1,1,.9ZM28,21a3.76,3.76,0,0,1-3.4,2.2A3.6,3.6,0,0,1,21.2,21l-3.5-7.8a1,1,0,0,1,1.8-.8l3.6,7.8a1.63,1.63,0,0,0,3,0l3.6-7.8a1,1,0,0,1,1.3-.5,1,1,0,0,1,.6,1.3Z" transform="translate(-0.2 -0.2)"/></svg>