<svg id="Capa_2" data-name="Capa 2" xmlns="http://www.w3.org/2000/svg" viewBox="0 0 52.57 45.3"><defs><style>.cls-1{fill:#0c7b94;}.cls-2{fill:#f2961c;}.cls-3{fill:#f3971e;}.cls-4{fill:#0e7c95;}.cls-5{fill:#f3981f;}.cls-6{fill:#1d859c;}.cls-7{fill:#24899f;}.cls-8{fill:#2d8ea3;}</style></defs><path class="cls-1" d="M16.87,48.25H14.74l-.5-10.2L13.67,38,11,48.22l-1.6.12L6.66,37.65l-.56.05V48.22H3.85L4.77,33H7.49l2.75,10.4h.3l2.77-10.34h2.62Z" transform="translate(-3.85 -6.92)"/><path class="cls-2" d="M43.64,47.31l1.87,1.38-.63,1.79-2.49-1.84L38,48.26c-2.9-3-2.73-6.46-2.35-9.91a12.41,12.41,0,0,1,1.22-3.64c.83-1.84,2.52-2.13,4.3-2a3.71,3.71,0,0,1,3.52,2.93A14.56,14.56,0,0,1,43.64,47.31ZM39,34.87a12.43,12.43,0,0,0,0,11.5h2.94A12.64,12.64,0,0,0,42,34.87Z" transform="translate(-3.85 -6.92)"/><path class="cls-3" d="M27.05,46.38h4.42c1.41-2.23,1.11-3.5-1-4.74-3-1.76-3.93-3.51-3.3-6.07a3.5,3.5,0,0,1,4.17-2.85,17.68,17.68,0,0,1,2.43.72l-.21,1.36H29.93c-1.8,2.31-.47,3.4,2,5,1.53,1,2.65,2.12,2.69,4,.07,3.83-2.95,5.77-6.47,4.21a5.29,5.29,0,0,1-1.23-1.1Z" transform="translate(-3.85 -6.92)"/><path class="cls-4" d="M17.77,36.89h2l2.06,8.27.34.11,1.66-8.38h1.91c-.57,2.72-.94,5.4-1.72,8a43.2,43.2,0,0,1-2.63,5.87c-.71,1.47-2,1.68-3.62,1.39l-.29-1.37a3.63,3.63,0,0,1,.62-.24c2-.24,2.69-1,2.22-3.07C19.61,44.2,18.74,41,18,37.83,17.88,37.56,17.84,37.28,17.77,36.89Z" transform="translate(-3.85 -6.92)"/><path class="cls-5" d="M49,46.46h3.77l.16,1.73H47V33.05L49,33Z" transform="translate(-3.85 -6.92)"/><path class="cls-6" d="M54.49,26.57l-4.37-2.63c-.65-1.79-1.38-4-2.27-6.17-1.46-3.53-3.45-6.58-7.38-7.86a15,15,0,0,1-2.58-1.56,16.29,16.29,0,0,0-1.81-.7l.55,2.52-.42.48c-.64-1-1.62-2.19-.48-3.28S38,7.36,39,8a5.43,5.43,0,0,1,.91.83c3.34,0,5.29,2.36,6.82,4.78a40.71,40.71,0,0,1,3.49,7.82,5.92,5.92,0,0,0,2.64,3.05,16.86,16.86,0,0,1,1.91,1.69Z" transform="translate(-3.85 -6.92)"/><path class="cls-7" d="M36.21,10.65l.42-.48c.53,1.09,1.1,2.16,1.57,3.27s.88,2.4,1.51,4.13c-.34,2-1.32,4.69.36,7.51l1.11-3.73.31,0L43.28,26l-.39.17-1.53-2.32-.52,2.66c-1.49,0-1.88-1.28-2-2.23a21.31,21.31,0,0,1-.16-5.05,5.69,5.69,0,0,0-.4-3.19A55.65,55.65,0,0,1,36.21,10.65Z" transform="translate(-3.85 -6.92)"/><path class="cls-6" d="M55,32a5.06,5.06,0,0,1-3.23-3.51L55,27.35h.76l.54.6-2.82,1.22L55,32Z" transform="translate(-3.85 -6.92)"/><path class="cls-6" d="M55,32l1.45.46-.12.31L55,32Z" transform="translate(-3.85 -6.92)"/><path class="cls-8" d="M55.74,27.34H55l-.39-.7.43-.36Z" transform="translate(-3.85 -6.92)"/><path class="cls-6" d="M55,26.29l-.43.36-.1-.08.32-.45A.24.24,0,0,1,55,26.29Z" transform="translate(-3.85 -6.92)"/><path class="cls-7" d="M39.77,12.16l.49,1.08c.08.18.19.42.33.75.06.15.11.27.14.36a2.41,2.41,0,0,0,.11-1.53c-.19-.74-.65-.87-.68-.87Z" transform="translate(-3.85 -6.92)"/></svg>