<svg id="Capa_1" data-name="Capa 1" xmlns="http://www.w3.org/2000/svg" viewBox="0 0 60 60"><defs><style>.cls-1{fill:none;}.cls-2{fill:#777ab2;}.cls-3{fill:#484c88;}.cls-4{fill:#adb1d4;}.cls-5{fill:#6f73a6;}.cls-6{fill:#676ba0;}.cls-7{fill:#5f639a;}.cls-8{fill:#545891;}.cls-9{fill:#8d91bc;}.cls-10{fill:#64689d;}.cls-11{fill:#9a9ec6;}.cls-12{fill:#9397c1;}.cls-13{fill:#565a93;}.cls-14{fill:#878bb7;}.cls-15{fill:#a2a6cc;}.cls-16{fill:#fefefe;}.cls-17{fill:#777bb2;}</style></defs><rect class="cls-1" width="60" height="60"/><path class="cls-2" d="M1.79,33.33a7.59,7.59,0,0,1-.47-5.24c.47-.08.43.41.7.61.19-.1.21-.31.27-.49a9.38,9.38,0,0,1,1.38-2.93A15.13,15.13,0,0,1,5.73,23,27.34,27.34,0,0,1,16,17.74,46.59,46.59,0,0,1,25.39,16c1.55-.13,3.11-.22,4.68-.21a10.88,10.88,0,0,1,1.51,0,1.41,1.41,0,0,0,.5.07,23,23,0,0,1,2.62.1c.59.09,1.18.13,1.78.17.34,0,.56-.05.55-.47,0-.27.13-.44.44-.33a16.29,16.29,0,0,1,2.78.46c0,.86.09,1,.93,1.17s1.52.37,2.28.58,1.6.48,2.4.75a25.34,25.34,0,0,1,8.37,4.62A10.56,10.56,0,0,1,57.67,28a7.75,7.75,0,0,1-1.45,6.88,16.19,16.19,0,0,1-5.59,4.67,38.53,38.53,0,0,1-13.52,4.16c-1.81.25-3.64.35-5.46.47-1.25,0-2.5,0-3.75,0-.79-.14-1.6,0-2.39-.15s-1.84-.15-2.76-.27c-.73-.19-1.48-.25-2.22-.39s-1.28-.23-1.9-.4a47.12,47.12,0,0,1-6.47-2A24.53,24.53,0,0,1,3,34.63,16.88,16.88,0,0,0,1.79,33.33Z"/><path class="cls-3" d="M31.77,44.08a63.47,63.47,0,0,0,7.53-.81A40.79,40.79,0,0,0,47.35,41a21.17,21.17,0,0,0,7.95-5.15,8.56,8.56,0,0,0,2.52-6A8.21,8.21,0,0,0,56,25a17,17,0,0,0-5.5-4.53,30.27,30.27,0,0,0-4.7-2.08q-.48-.72,0-1.11a27.47,27.47,0,0,1,5.36,2.34A18,18,0,0,1,57,24.48a8.77,8.77,0,0,1,1.89,6.74A10.15,10.15,0,0,1,56,36.72a22.68,22.68,0,0,1-8,5.2,42.8,42.8,0,0,1-11.62,2.91,46.84,46.84,0,0,1-6.26.36c0-.27.18-.34.35-.43Z"/><path class="cls-4" d="M30,15.92c-1.52,0-3,.07-4.54.2a47.33,47.33,0,0,0-9.22,1.67,33.22,33.22,0,0,0-6.33,2.5,19.88,19.88,0,0,0-3.85,2.57,2.54,2.54,0,0,1-.34.23c-.35-.22-.25-.66-.47-.94a25.87,25.87,0,0,1,8.07-4.55,41.7,41.7,0,0,1,9.06-2.24c1.72-.24,3.44-.41,5.17-.48.75,0,1.51-.07,2.27-.06C29.87,15.19,30.18,15.52,30,15.92Z"/><path class="cls-5" d="M1.79,33.33c.2-.15.26.08.34.16.77.79,1.51,1.6,2.29,2.37a23.2,23.2,0,0,0,7.21,4.72,39.26,39.26,0,0,0,6.86,2.23l.07.06c-.2.18-.44.12-.67.09-1.5-.19-3-.34-4.5-.67a.88.88,0,0,0-.32,0,27.21,27.21,0,0,1-5.55-2.72,17.7,17.7,0,0,1-3-2.36,12,12,0,0,1-2.67-3.68A.71.71,0,0,1,1.79,33.33Z"/><path class="cls-6" d="M13.07,42.31a.34.34,0,0,1,.36-.14c1.22.29,2.48.37,3.71.58.47.08.94.08,1.42.12l2.79.51,1.39.24c0,.34-.3.29-.51.31-.66,0-1.32.14-2,.21a.55.55,0,0,0-.3.11A36.45,36.45,0,0,1,13.07,42.31Z"/><path class="cls-7" d="M20,44.25c0-.22.17-.26.36-.27.7,0,1.39-.2,2.1-.18a.31.31,0,0,0,.33-.18,11.27,11.27,0,0,0,1.74.17,21.81,21.81,0,0,0,3.23.21c.05,0,.1,0,.15.08a13.1,13.1,0,0,1-1.84.58,2.7,2.7,0,0,0-.76.33,39.46,39.46,0,0,1-4.59-.59A1.63,1.63,0,0,1,20,44.25Z"/><path class="cls-8" d="M25.26,45a.28.28,0,0,1,.21-.27,13.17,13.17,0,0,1,2.39-.64h3.91c-.22.36-.64.41-1,.62s-.56.2-.71.49A37.24,37.24,0,0,1,25.26,45Z"/><path class="cls-9" d="M3.76,25.31a9.74,9.74,0,0,0-1.42,3.17.53.53,0,0,1-.12.2c-.05.08,0,.23-.17.23s-.18-.14-.24-.25-.2-.49-.49-.57A8.51,8.51,0,0,1,3,24.56c.24-.12.33.07.4.23A2.06,2.06,0,0,0,3.76,25.31Z"/><path class="cls-10" d="M43.41,17.69,40.86,17c-.67-.18-.93-.69-.61-1.22a20.29,20.29,0,0,1,3.17.75C43.33,16.94,43.58,17.32,43.41,17.69Z"/><path class="cls-11" d="M3.76,25.31c-.29,0-.34-.2-.42-.39s-.09-.36-.33-.36a12.8,12.8,0,0,1,2.24-2.41.27.27,0,0,1,.28.29,1.63,1.63,0,0,0,.19.65A25.71,25.71,0,0,0,3.76,25.31Z"/><path class="cls-12" d="M34.75,16.11c-1,0-1.94-.15-2.92-.09a.3.3,0,0,1-.25-.09c.39-.14.59-.34.43-.8-.08-.25.1-.32.33-.23a16.4,16.4,0,0,1,2.8.18.51.51,0,0,0-.3.66A.35.35,0,0,1,34.75,16.11Z"/><path class="cls-13" d="M43.41,17.69c0-.27-.07-.54-.14-.8a.23.23,0,0,1,.15-.32,13.72,13.72,0,0,1,2.41.75c-.24.37,0,.74,0,1.11Z"/><path class="cls-14" d="M34.75,16.11a2.22,2.22,0,0,0,0-.45c-.13-.42,0-.62.44-.58a12.26,12.26,0,0,1,2.33.28c-.28,0-.38.12-.31.41s-.09.55-.51.53A11,11,0,0,1,34.75,16.11Z"/><path class="cls-15" d="M32.34,14.9c-.23,0-.28.07-.21.3.2.69.17.72-.55.73H30c0-.38-.37-.69-.18-1.1A14.16,14.16,0,0,1,32.34,14.9Z"/><path class="cls-16" d="M25.27,26.35c.18-.93.36-1.85.55-2.77.27-1.42.55-2.85.83-4.27.11-.55.28-.69.81-.69h3c.62,0,.86.31.74.92-.17.93-.34,1.86-.55,2.78-.06.3,0,.37.3.37,1,0,2,0,2.93,0a5.82,5.82,0,0,1,2.58.67A3.1,3.1,0,0,1,38,25.82c.19-.94.36-1.74.51-2.54a.65.65,0,0,1,.73-.6c2.39,0,4.78,0,7.17,0a5.12,5.12,0,0,1,3.58,1.44,4.27,4.27,0,0,1,1.29,2.9,7.44,7.44,0,0,1-4.46,7.47,7.6,7.6,0,0,1-2.62.53c-1,0-2,0-3,0-.28,0-.44.05-.49.39-.15,1-.36,1.91-.54,2.87-.13.67-.3.81-1,.81H36.3c-.63,0-.88-.31-.76-.91.19-1,.36-1.92.56-2.87.06-.27,0-.3-.26-.29H32.67c-.67,0-.91-.28-.78-.93.4-2.11.81-4.21,1.23-6.32.26-1.28.18-1.41-1.14-1.47-.54,0-1.08,0-1.62,0s-.54.1-.61.48c-.4,2.14-.82,4.28-1.24,6.42-.08.42-.18.84-.25,1.27a.62.62,0,0,1-.68.57c-1.07,0-2.14,0-3.21,0-.49,0-.72-.31-.63-.8.15-.85.32-1.69.43-2.58l-.24.33a7,7,0,0,1-5.78,3c-1,0-1.95,0-2.93,0-.3,0-.43.08-.49.4-.16,1-.37,1.94-.55,2.91-.12.6-.3.76-.9.76H10.44c-.73,0-1-.26-.82-1l2.46-12.69c.14-.73.3-1.45.42-2.18a.68.68,0,0,1,.77-.63c2.34,0,4.68,0,7,0a5.22,5.22,0,0,1,3.78,1.53A5.15,5.15,0,0,1,25.27,26.35Z"/><path d="M10.19,38.52l2.08-10.73c.27-1.37.54-2.73.79-4.1.06-.31.16-.42.51-.42,1.95,0,3.9,0,5.86,0a8.78,8.78,0,0,1,2.16.24A3.74,3.74,0,0,1,24.64,27a6.71,6.71,0,0,1-4.49,7.16,10.66,10.66,0,0,1-3.08.37c-.76,0-1.52,0-2.28,0-.43,0-.54.16-.6.53-.19,1-.41,2.09-.6,3.14-.05.28-.14.4-.46.4C12.16,38.5,11.18,38.52,10.19,38.52Z"/><path d="M42.76,34.48c-.89,0-1.53,0-2.16,0-.31,0-.4.12-.45.38-.21,1.12-.44,2.24-.64,3.37,0,.24-.12.3-.35.3-.92,0-1.83,0-2.75,0-.23,0-.28-.06-.24-.29q1.19-6,2.35-12c.17-.87.34-1.73.5-2.6,0-.19.06-.35.33-.34,2.43,0,4.87-.11,7.3.09a4,4,0,0,1,3.87,3.16,6.68,6.68,0,0,1-5.37,7.79A18.46,18.46,0,0,1,42.76,34.48Z"/><path d="M31.05,25.75c-.43,0-.87,0-1.3,0s-.44.07-.51.41c-.5,2.66-1,5.31-1.54,8-.05.3-.17.37-.44.36H24.7c-.28,0-.37,0-.3-.35q1-5.18,2-10.37c.26-1.37.54-2.73.79-4.1.05-.31.15-.43.5-.42.83,0,1.67,0,2.51,0,.34,0,.37.11.31.4-.23,1.1-.43,2.22-.66,3.32-.07.3,0,.33.27.33,1.27,0,2.55-.06,3.82.06a6.27,6.27,0,0,1,1.41.27,2.53,2.53,0,0,1,1.94,2.91c-.11,1.14-.39,2.25-.61,3.38-.26,1.41-.55,2.81-.81,4.23,0,.28-.15.35-.42.34-.87,0-1.73,0-2.6,0-.33,0-.4-.08-.33-.39.41-2.09.81-4.18,1.23-6.27.3-1.56-.07-2-1.65-2.06-.35,0-.71,0-1.07,0Z"/><path class="cls-16" d="M17.59,25.69a8.87,8.87,0,0,1,2.12.15,1.67,1.67,0,0,1,1.51,1.85,5.77,5.77,0,0,1-.63,2.64A3.19,3.19,0,0,1,18,32a25.89,25.89,0,0,1-2.92.09c-.4,0-.22-.25-.2-.4.32-1.67.64-3.33,1-5,.2-1,.2-1,1.21-1Z"/><path class="cls-16" d="M43.69,25.69a7.86,7.86,0,0,1,2.08.17,1.63,1.63,0,0,1,1.38,1.72,5.84,5.84,0,0,1-.53,2.57A3.16,3.16,0,0,1,44,32a23.29,23.29,0,0,1-3,.1c-.18,0-.25,0-.21-.24.4-2,.78-3.94,1.16-5.91,0-.2.12-.25.3-.24Z"/><path class="cls-17" d="M16.63,31.44h-.14c-1,0-1,0-.79-.94.25-1.24.5-2.48.72-3.72.06-.36.2-.49.57-.46a18.19,18.19,0,0,1,2.45.1c.87.17,1.18.51,1.15,1.39a5.3,5.3,0,0,1-.5,2.1,2.83,2.83,0,0,1-2.67,1.51,6.94,6.94,0,0,1-.79,0Z"/><path class="cls-17" d="M43.8,26.33a7.68,7.68,0,0,1,1.66.1c.77.16,1.09.5,1.08,1.27a5.21,5.21,0,0,1-.63,2.44,2.46,2.46,0,0,1-1.84,1.19,11.64,11.64,0,0,1-2.36.11c-.18,0-.23-.05-.19-.24.3-1.54.59-3.09.89-4.63a.28.28,0,0,1,.32-.25C43.09,26.34,43.44,26.33,43.8,26.33Z"/></svg>