<svg xmlns="http://www.w3.org/2000/svg" viewBox="0 0 60 60"><defs><style>.cls-1{fill:#fff;}.cls-2{fill:none;}.cls-3{fill:#777bb2;}.cls-4{fill:#4a4e8a;}.cls-5{fill:#aeb1d4;}.cls-6{fill:#6f73a5;}.cls-7{fill:#7276a8;}.cls-8{fill:#696ca1;}.cls-9{fill:#595d95;}.cls-10{fill:#62669c;}.cls-11{fill:#7f82b1;}.cls-12{fill:#4f538e;}.cls-13{fill:#878bb8;}.cls-14{fill:#8286b4;}.cls-15{fill:#8c90bb;}.cls-16{fill:#a8acd0;}.cls-17{fill:#8f93bd;}.cls-18{fill:#a5a9ce;}.cls-19{fill:#9599c2;}.cls-20{fill:#969ac3;}.cls-21{fill:#525690;}.cls-22{fill:#9da1c8;}.cls-23{fill:#9ea2c9;}.cls-24{fill:#020202;}.cls-25{fill:#787cb3;}.cls-26{fill:#787bb3;}</style></defs><g id="Capa_1" data-name="Capa 1"><rect class="cls-1" x="13.73" y="11.59" width="30.06" height="29.34"/><rect class="cls-1" x="34.52" y="17.71" width="17.37" height="27"/><rect class="cls-1" x="9.01" y="17.53" width="17.37" height="27.72"/><rect class="cls-2" width="60" height="60"/></g><g id="Capa_2" data-name="Capa 2"><path class="cls-3" d="M1.25,32.82c-.05-.56-.11-1.13-.17-1.69.1.08.24.14.29.24.21.45.39.92.59,1.37a1.83,1.83,0,0,0,.29.36V28.5c0-.44.08-.89.15-1.32.09-.59.21-1.18.31-1.77l.84-2.34L4.4,21.2l1.12-1.69,1.23-1.68c.35-.37.7-.74,1-1.09a26.41,26.41,0,0,1,4.07-3.4c.54-.36,1.06-.75,1.62-1.05,1-.51,1.93-1,2.92-1.43s2.21-.86,3.33-1.27a12.27,12.27,0,0,1,1.18-.35l2.28-.6c.32-.07.65-.06,1-.11.86-.14,1.71-.35,2.57-.43S28.63,8,29.58,8h1.5l1.59.09h.93c.09.06.18.17.27.18l2,.1c.06.06.11.17.17.17.5.05,1,.06,1.48.11s.44-.16.41-.47-.06-.74-.09-1.11l.94.22a6.88,6.88,0,0,0,.13,1.29,1.39,1.39,0,0,0,.6.69,5.89,5.89,0,0,0,1.13.32L42,10h0l.19.19,1.21.47,1.31.56.28.09.19.19.94.47c1.26.86,2.55,1.7,3.8,2.6A20.63,20.63,0,0,1,54.32,19a20.08,20.08,0,0,1,2.17,3.72,17.31,17.31,0,0,1,1.56,8.57,18.41,18.41,0,0,1-1.24,5.42,19.18,19.18,0,0,1-3,5.06,24.87,24.87,0,0,1-2.76,2.86,25.72,25.72,0,0,1-3.27,2.53,25.29,25.29,0,0,1-5.67,2.78c-1.16.37-2.29.83-3.45,1.16a20.1,20.1,0,0,1-2.88.57c-1.05.15-2.11.21-3.17.31a2.21,2.21,0,0,0-.35.08H30.14l-3.74-.1a1.41,1.41,0,0,0-.37-.18c-.29,0-.58,0-.88-.06l-2.4-.32-.29-.19-.93-.09c-.07-.06-.14-.16-.22-.18l-1.56-.45-1.5-.4-.18-.19-.57-.09a.63.63,0,0,0-.17-.19c-.7-.3-1.42-.54-2.1-.89-1-.54-2-1.15-3.06-1.73L12,46.77l-.28-.1a.46.46,0,0,0-.07-.16A34.52,34.52,0,0,1,8.88,44.3,26,26,0,0,1,5.9,41a33.94,33.94,0,0,1-2.29-3.87c-.71-1.33-1.35-2.69-2-4C1.52,33,1.37,32.91,1.25,32.82ZM30,24.35c.83,0,1.62,0,2.42,0s1,.29,1,1.09-.15,1.52-.25,2.28c-.26,2.14-.54,4.27-.8,6.4-.12,1-.25,1.92-.32,2.88,0,.73.28,1,1,1h3.3c-.11.86-.21,1.74-.32,2.61s-.28,1.74-.31,2.6.28,1.15,1,1.11,1.78,0,2.67,0c.63,0,.79-.13.88-.77.22-1.65.46-3.3.62-5,.05-.5.22-.58.68-.59,1.25,0,2.5-.15,3.75-.24a4,4,0,0,0,2.06-.93,9.85,9.85,0,0,0,3.27-4.93,17.21,17.21,0,0,0,.9-5.42,10.64,10.64,0,0,0-.9-4.87,4.82,4.82,0,0,0-2.73-2.71A10.05,10.05,0,0,0,45,18.43c-1.76-.07-3.53,0-5.29,0a.93.93,0,0,0-1.07.95c-.16,1.27-.32,2.55-.49,3.82A7.2,7.2,0,0,1,38,22.4a4.67,4.67,0,0,0-1.42-2.8A6.14,6.14,0,0,0,33,18.43a20.75,20.75,0,0,0-2.24,0L31,16.08c.12-1,.26-1.95.33-2.93,0-.72-.22-1-.92-1H27.67c-.61,0-.81.16-.88.77C26.4,16,26,19,25.65,22.06c-.09.72-.18,1.44-.26,2.15-.27-.83-.47-1.65-.79-2.43a5,5,0,0,0-2.18-2.59,6,6,0,0,0-2.91-.76c-1.93-.05-3.87,0-5.8,0-.79,0-1.07.26-1.17,1.06l-.6,4.82q-.39,3.18-.8,6.36l-.9,7.18c-.22,1.8-.48,3.59-.65,5.38-.07.67.13,1.21,1,1.14s1.77,0,2.66,0c.65,0,.73-.06.89-.7,0-.15.06-.31.08-.46l.57-4.74c0-.29.14-.43.47-.42a13.22,13.22,0,0,0,1.78,0,11.51,11.51,0,0,0,2.83-.4,5.36,5.36,0,0,0,2.78-2.15l1.6-2.53c0,.26,0,.55-.06.83-.13,1-.3,2.07-.39,3.11-.06.64.15,1.21,1.05,1.16s1.69,0,2.53,0c.69,0,.88-.15,1-.85.29-2.16.55-4.32.83-6.49Z"/><path class="cls-4" d="M32.29,52a2.21,2.21,0,0,1,.35-.08c1.06-.1,2.12-.16,3.17-.31a20.1,20.1,0,0,0,2.88-.57c1.16-.33,2.29-.79,3.45-1.16a25.29,25.29,0,0,0,5.67-2.78,25.72,25.72,0,0,0,3.27-2.53,24.87,24.87,0,0,0,2.76-2.86,19.18,19.18,0,0,0,3-5.06,18.41,18.41,0,0,0,1.24-5.42,17.31,17.31,0,0,0-1.56-8.57A20.08,20.08,0,0,0,54.32,19,20.63,20.63,0,0,0,50,14.52c-1.25-.9-2.54-1.74-3.8-2.6l-.1-1.79.38.12.18.17c.61.35,1.25.67,1.83,1.07a22.51,22.51,0,0,1,3.7,3c.72.74,1.47,1.46,2.13,2.25a20.7,20.7,0,0,1,4.69,10A19.69,19.69,0,0,1,56.57,40a24.16,24.16,0,0,1-2.73,3.85,23.3,23.3,0,0,1-4.13,3.81,34.82,34.82,0,0,1-4.05,2.48,35.27,35.27,0,0,1-4,1.77,23.61,23.61,0,0,1-3,.86c-1,.25-2.06.36-3.08.61a19.06,19.06,0,0,1-5.11.42,6,6,0,0,1,.46-.54C31.41,52.82,31.85,52.42,32.29,52Z"/><path class="cls-5" d="M29.58,8c-.95,0-1.9,0-2.84.12s-1.71.29-2.57.43c-.32.05-.65,0-1,.11l-2.28.6a12.27,12.27,0,0,0-1.18.35c-1.12.41-2.24.8-3.33,1.27s-2,.92-2.92,1.43c-.56.3-1.08.69-1.62,1.05a26.41,26.41,0,0,0-4.07,3.4c-.35.35-.7.72-1,1.09-.1-.12-.24-.21-.28-.34a8.78,8.78,0,0,1-.21-1c.81-.86,1.6-1.76,2.46-2.57A20.35,20.35,0,0,1,11,12.12,23.35,23.35,0,0,1,15.3,9.56c1.11-.46,2.2-1,3.31-1.43a17.23,17.23,0,0,1,2-.61c1-.26,2-.5,3-.73a5.62,5.62,0,0,1,.7-.1l3.36-.31,2.25-.16-.59.26Z"/><path class="cls-6" d="M12.17,47c1,.58,2,1.19,3.06,1.73.68.35,1.4.59,2.1.89a.63.63,0,0,1,.17.19,11.6,11.6,0,0,1-1.57-.15c-1.16-.3-2.3-.67-3.46-1-.08,0-.2.07-.3.11A26.15,26.15,0,0,1,6.51,43.9a24.92,24.92,0,0,1-3-4.32,1.29,1.29,0,0,1-.07-.21,2.56,2.56,0,0,1,.46.33c.65.8,1.25,1.65,1.94,2.42a23.51,23.51,0,0,0,4.74,4,9.53,9.53,0,0,0,1.16.56l.28.1Z"/><path class="cls-7" d="M11.7,46.67a9.53,9.53,0,0,1-1.16-.56,23.51,23.51,0,0,1-4.74-4c-.69-.77-1.29-1.62-1.94-2.42a2.56,2.56,0,0,0-.46-.33c-.54-1.31-1.14-2.59-1.6-3.92a20.79,20.79,0,0,1-.55-2.63c.12.09.27.15.33.27.68,1.34,1.32,2.7,2,4A33.94,33.94,0,0,0,5.9,41a26,26,0,0,0,3,3.31,34.52,34.52,0,0,0,2.75,2.21A.46.46,0,0,1,11.7,46.67Z"/><path class="cls-8" d="M12.17,48.73c.1,0,.22-.14.3-.11,1.16.33,2.3.7,3.46,1a11.6,11.6,0,0,0,1.57.15l.57.09.18.19,1.5.4,1.56.45c.08,0,.15.12.22.18a5.33,5.33,0,0,1-.92.27c-.73.06-1.46.06-2.19.11a1,1,0,0,0-.36.19c-.57-.2-1.15-.37-1.7-.61-.82-.37-1.61-.8-2.41-1.21a4.44,4.44,0,0,1-.38-.27l-.19-.17-.28-.1-.19-.18Z"/><path class="cls-9" d="M26.4,51.92l3.74.1c0,.06-.06.15-.12.18-.53.34-1.08.66-1.59,1a2.31,2.31,0,0,0-.44.54,11.85,11.85,0,0,1-3.25-.38,6.35,6.35,0,0,0-1.15-.15l-.4-.16-.35,0c.06-.06.11-.15.18-.18l1.17-.43A4.13,4.13,0,0,1,26.4,51.92Z"/><path class="cls-10" d="M26.4,51.92a4.13,4.13,0,0,0-2.21.5L23,52.85c-.07,0-.12.12-.18.18-.71-.17-1.42-.32-2.12-.51s-1.39-.41-2.09-.62l-.19-.17-.38-.08a1,1,0,0,1,.36-.19c.73-.05,1.46-.05,2.19-.11a5.33,5.33,0,0,0,.92-.27l.93.09.29.19,2.4.32c.3,0,.59,0,.88.06A1.41,1.41,0,0,1,26.4,51.92Z"/><path class="cls-11" d="M2.25,28.5v4.6A1.83,1.83,0,0,1,2,32.74c-.2-.45-.38-.92-.59-1.37-.05-.1-.19-.16-.29-.24a14.56,14.56,0,0,1,.23-4.22c.19.36.37.73.57,1.08A4.39,4.39,0,0,0,2.25,28.5Z"/><path class="cls-12" d="M28,53.75a2.31,2.31,0,0,1,.44-.54c.51-.35,1.06-.67,1.59-1,.06,0,.08-.12.12-.18h2.15c-.44.41-.88.81-1.31,1.23a6,6,0,0,0-.46.54Z"/><path class="cls-13" d="M2.25,28.5A4.39,4.39,0,0,1,1.88,28c-.2-.35-.38-.72-.57-1.08.23-1,.46-1.94.68-2.9.11.1.26.19.31.32.16.35.28.72.41,1.08-.1.59-.22,1.18-.31,1.77C2.33,27.61,2.29,28.06,2.25,28.5Z"/><path class="cls-14" d="M37.82,7.06c0,.37,0,.74.09,1.11s0,.51-.41.47-1-.06-1.48-.11c-.06,0-.11-.11-.17-.17A1.34,1.34,0,0,0,36,7.87c0-.39-.1-.78-.16-1.17Z"/><path class="cls-15" d="M35.85,6.7c.06.39.13.78.16,1.17a1.34,1.34,0,0,1-.16.49l-2-.1c-.09,0-.18-.12-.27-.18l.71,0-.24-1.56Z"/><path class="cls-16" d="M29.58,8l-.31-1.5.59-.26h2.29c.11,0,.22.11.33.16v0H30.81L31.08,8Z"/><path class="cls-7" d="M40.62,9.58a5.89,5.89,0,0,1-1.13-.32,1.39,1.39,0,0,1-.6-.69,6.88,6.88,0,0,1-.13-1.29l.37.06.31.17,1,.28Z"/><path class="cls-17" d="M2.71,25.41c-.13-.36-.25-.73-.41-1.08,0-.13-.2-.22-.31-.32l.92-2.34c.12.35.23.69.37,1a2.4,2.4,0,0,0,.27.38Z"/><path class="cls-18" d="M6.26,16.47a8.78,8.78,0,0,0,.21,1c0,.13.18.22.28.34L5.52,19.51c-.12-.19-.26-.37-.37-.56s-.2-.44-.3-.67Z"/><path class="cls-19" d="M34.07,6.48,34.31,8l-.71,0h-.93c-.07-.55-.13-1.11-.19-1.67v0Z"/><path class="cls-20" d="M3.55,23.07a2.4,2.4,0,0,1-.27-.38c-.14-.33-.25-.67-.37-1l.92-1.8c.1.22.2.43.29.65s.19.45.28.68Z"/><path class="cls-8" d="M40.62,9.58l-.18-1.79.18,0,.3.17,1,.3L42,10Z"/><path class="cls-10" d="M42,10l-.09-1.67,1.56.62a3.3,3.3,0,0,0-.15.62c0,.36,0,.72.08,1.09l-1.21-.47L42,10Z"/><path class="cls-21" d="M46.05,10.13l.1,1.79-.94-.47L45,11.26l-.28-.09c0-.41,0-.83,0-1.24a1.06,1.06,0,0,1,.18-.35Z"/><path class="cls-22" d="M4.4,21.2c-.09-.23-.18-.46-.28-.68s-.19-.43-.29-.65l1-1.59c.1.23.19.45.3.67s.25.37.37.56C5.15,20.07,4.77,20.63,4.4,21.2Z"/><path class="cls-9" d="M44.93,9.58a1.06,1.06,0,0,0-.18.35c0,.41,0,.83,0,1.24l-1.31-.56c0-.37-.08-.73-.08-1.09a3.3,3.3,0,0,1,.15-.62c.39.15.78.31,1.16.48A1.26,1.26,0,0,1,44.93,9.58Z"/><path class="cls-10" d="M23.19,53.06l.4.16Z"/><path class="cls-7" d="M40.92,8l-.3-.17Z"/><path class="cls-3" d="M39.44,7.51l-.31-.17Z"/><path class="cls-6" d="M12.91,49.11l.19.18Z"/><path class="cls-6" d="M13.38,49.39l.19.17Z"/><path class="cls-8" d="M18.44,51.73l.19.17Z"/><path class="cls-21" d="M46.61,10.42l-.18-.17Z"/><path class="cls-23" d="M32.48,6.4c.06.56.12,1.12.19,1.67L31.08,8,30.81,6.4Z"/><path class="cls-8" d="M22.75,51.36l-.29-.19Z"/><path class="cls-9" d="M45,11.26l.19.19Z"/><path class="cls-6" d="M18.25,50.05l-.18-.19Z"/><path class="cls-8" d="M42,10l.19.19Z"/><path class="cls-7" d="M12.17,47,12,46.77Z"/><path class="cls-24" d="M40.44,37l-.79,6.3H36.31l3-23.85c2.23,0,4.42-.05,6.6,0A4.53,4.53,0,0,1,49.32,21,6,6,0,0,1,50.69,24a15,15,0,0,1-1.63,9.64,7.8,7.8,0,0,1-2,2.35,3.12,3.12,0,0,1-1.28.62,20.54,20.54,0,0,1-2.7.34C42.23,37,41.37,37,40.44,37Zm.45-3.65,3-.23a3,3,0,0,0,2.64-2,11.52,11.52,0,0,0,.82-5.66,2.07,2.07,0,0,0-1.66-2.07,23.07,23.07,0,0,0-3.53,0Z"/><path class="cls-24" d="M13.2,19.44c2.27,0,4.48-.05,6.69,0A4.49,4.49,0,0,1,23.23,21a5.85,5.85,0,0,1,1.3,2.71,15.12,15.12,0,0,1-.66,8,9.29,9.29,0,0,1-2.35,3.8,4,4,0,0,1-2.31,1.23c-.91.1-1.83.19-2.75.24-.7,0-1.4,0-2.12,0l-.79,6.3H10.21Zm1.6,13.9,3-.23a2.91,2.91,0,0,0,2.55-1.84,11,11,0,0,0,.84-6.11,1.93,1.93,0,0,0-1.59-1.76,26.21,26.21,0,0,0-3.55,0Z"/><path class="cls-24" d="M29.46,23.32c-.57,4.56-1.13,9.09-1.7,13.64H24.44q1.48-11.87,3-23.73h3.31L30,19.43c.92,0,1.82,0,2.72,0a6.22,6.22,0,0,1,3.13.7,3.3,3.3,0,0,1,1.54,2.35,14.55,14.55,0,0,1-.14,4.79c-.36,2.89-.71,5.78-1.07,8.67,0,.32-.09.65-.13,1H32.64c.08-.71.17-1.41.25-2.12L34,25.7a.61.61,0,0,0,0-.14c.07-1.5-.27-2.3-2.09-2.24C31.12,23.35,30.33,23.32,29.46,23.32Z"/><path class="cls-25" d="M41.68,32.28l1-8c1,.05,1.93.05,2.87.15a1.26,1.26,0,0,1,1.15,1.25,10,10,0,0,1-.82,5.15,2.45,2.45,0,0,1-2,1.37C43.22,32.26,42.48,32.24,41.68,32.28Z"/><path class="cls-26" d="M16.57,24.36a20,20,0,0,1,2.8,0c.8.13,1.08.32,1.22,1.22a9.61,9.61,0,0,1-.47,4.32,4.23,4.23,0,0,1-.67,1.3,2.32,2.32,0,0,1-1.76.95c-.67,0-1.34,0-2.09,0Z"/></g></svg>