<svg id="Capa_1" data-name="Capa 1" xmlns="http://www.w3.org/2000/svg" viewBox="0 0 56.59 52.25"><defs><style>.cls-1{fill:#366d9a;}.cls-2{fill:#fecd3d;}.cls-3{fill:#fff;}</style></defs><path class="cls-1" d="M29.72,16H17C15.65,8.26,18.93,4.2,26.4,4.1c3.08,0,6.16-.08,9.23,0,4.77.17,8.17,3.37,8.4,8a91.22,91.22,0,0,1,0,9.5,8,8,0,0,1-7.54,7.62c-2.45.21-4.92.19-7.38.19-10.73,0-13.37,2.4-14.13,12.69-7.42,2-12.6-1.55-12.83-8.89a67.64,67.64,0,0,1,.06-7.67c.41-5.1,3.8-8.17,9-8.24,5-.07,10.1,0,15.15,0,1.13,0,2.27-.12,3.4-.19Zm-4-5,.09-1.33c-1.1-.62-2.22-1.73-3.3-1.69s-1.87,1.34-2.8,2.09c.84.86,1.61,2.33,2.52,2.42C23.34,12.67,24.56,11.62,25.73,11.07Z" transform="translate(-2.05 -4.06)"/><path class="cls-2" d="M31,44.38H43.57c1.37,7.7-1.93,11.83-9.11,11.9-3.21,0-6.41.07-9.61-.05a8.13,8.13,0,0,1-8.26-8.1c-.13-3.05-.14-6.1,0-9.14.21-4.51,3.47-7.6,8.1-7.82,3.44-.16,6.89-.12,10.33-.35,7.17-.47,10.24-3.76,10.46-11,0-.59.11-1.18.16-1.74,7.9-1.73,12.73,1.88,12.92,9.58a61.78,61.78,0,0,1-.06,6.94C58,39.93,54.6,43,49.24,43.06c-6.09.06-12.17,0-18.26,0Zm11.15,5.76c-1.89-1.2-3-2.49-3.86-2.31-1.15.26-2.05,1.61-3.06,2.5,1,.72,2,1.93,3,2S40.26,51.28,42.13,50.14Z" transform="translate(-2.05 -4.06)"/><circle class="cls-3" cx="20.57" cy="6.36" r="2.88"/><circle class="cls-3" cx="36.02" cy="45.8" r="2.88"/></svg>