<svg id="Capa_2" data-name="Capa 2" xmlns="http://www.w3.org/2000/svg" viewBox="0 0 136.56 136.7"><defs><style>.cls-1,.cls-14,.cls-7{fill:#fff;}.cls-1,.cls-13,.cls-14,.cls-15,.cls-16,.cls-17,.cls-2,.cls-3,.cls-4,.cls-6{stroke:#000;stroke-miterlimit:10;}.cls-1,.cls-16,.cls-17,.cls-2,.cls-3,.cls-4,.cls-6{stroke-width:0.5px;}.cls-2,.cls-5{fill:#676799;}.cls-4{fill:#b37de8;}.cls-12,.cls-6{fill:#639;}.cls-8{font-size:5.93px;font-family:VarinoNormal-Regular, Varino;letter-spacing:-0.03em;}.cls-9{letter-spacing:-0.01em;}.cls-10{letter-spacing:0em;}.cls-11,.cls-16{fill:#9cf;}.cls-13{fill:#00bcdf;}.cls-13,.cls-14,.cls-15{stroke-width:0.25px;}.cls-15{fill:#f3e600;}.cls-17{fill:#f69;}.cls-18{fill:#e8318a;}</style></defs><polygon class="cls-1" points="58.8 78.18 54.26 82.49 51.49 77.73 56.03 73.43 58.8 78.18"/><polygon class="cls-1" points="83.3 56.41 78.38 60.28 76.06 55.29 80.98 51.42 83.3 56.41"/><path class="cls-2" d="M55.34,31.31C52,34,49.43,36.08,47.82,37.38a2.68,2.68,0,0,1-4.33-.86l-2-3.44a3.78,3.78,0,0,1-.63-3.26,2.51,2.51,0,0,1,.47-.79l6.13-4.91a3,3,0,0,1,.73-.29,3.6,3.6,0,0,1,1.34,0c.63.12,1.13.52,2.15,1.74a21.1,21.1,0,0,1,2,2.7A26.53,26.53,0,0,1,55.34,31.31Z" transform="translate(-2.58 -2.58)"/><path class="cls-1" d="M73.7,52.35c-.17,2.77-2.59,3.79-7.28,7.76-7,5.9-8.28,8.79-10.75,8.23-.82-.19-2.54-.94-3.94-5-5.4-11.07-9.23-19.2-10-20.94a4.81,4.81,0,0,1-.36-2.79,4.72,4.72,0,0,1,.81-1.89c6.25-5.12,10.87-8.87,12.51-10.28a3,3,0,0,1,1.83-.8,3,3,0,0,1,2.62,1.64L71.67,47.32A7.45,7.45,0,0,1,73.7,52.35Z" transform="translate(-2.58 -2.58)"/><path class="cls-2" d="M52.32,65.05c.64-2.78,3.49-5.1,9.2-9.72S69.87,48.57,72.46,49c3.19.48,4.91,3.73,9.56,12.92,3.91,7.73,7.1,14.14,9.32,18.65-.63.09-1.48.22-2.48.42-.32.07-1.86.38-3.18.78A20.48,20.48,0,0,0,79.07,85a22.38,22.38,0,0,0-5.37,6.09,26.75,26.75,0,0,0-3,7.47c-4.23-7.34-7.95-13.17-10.62-17.21C54.07,72.25,51.38,69.16,52.32,65.05Z" transform="translate(-2.58 -2.58)"/><path class="cls-3" d="M79.07,85A25,25,0,0,1,85,82.09,22.7,22.7,0,0,1,91.37,81,32.51,32.51,0,0,1,89,86.39a26.75,26.75,0,0,1-5.64,7.4A22.37,22.37,0,0,1,71.13,99C71.42,97.37,73,89.35,79.07,85Z" transform="translate(-2.58 -2.58)"/><path class="cls-1" d="M90.93,101l-4.65,4.41a2.66,2.66,0,0,1-4.32-.62l-5-8.24a4.37,4.37,0,0,1-.3-1.59,4.46,4.46,0,0,1,.23-1.3A11.06,11.06,0,0,1,80.5,88.8a8.85,8.85,0,0,1,3.55-1.9,4.12,4.12,0,0,1,1.44-.1,4,4,0,0,1,1.83.75c.46.82,1.5,2.65,2.87,5.09,1.66,2.94,2.48,4.44,2.17,5.94A4.69,4.69,0,0,1,90.93,101Z" transform="translate(-2.58 -2.58)"/><path class="cls-2" d="M27.14,78.33" transform="translate(-2.58 -2.58)"/><path class="cls-2" d="M64,95.83a2.54,2.54,0,0,1,.34,1.25,2.24,2.24,0,0,1-.17.91,114.86,114.86,0,0,1-22.34,25.8,93.17,93.17,0,0,1-24.33,15,3.71,3.71,0,0,1-2.31.13,3,3,0,0,1-.7-.32c-1.44-.87-8.61-19.14-9.28-20.86a2.08,2.08,0,0,1-.4-1.49,1.45,1.45,0,0,1,.7-1.12c16.34-8.69,23.24-15.48,23.24-15.48,5.9-2.52,13.65-8.63,20.94-24.76a2.63,2.63,0,0,1,2.15-.12,3.42,3.42,0,0,1,1.4,1C59.27,86.89,63.62,95,64,95.83Z" transform="translate(-2.58 -2.58)"/><path class="cls-4" d="M62.52,95.51a2.58,2.58,0,0,1,.34,1.25,2.66,2.66,0,0,1-.17.92,117.37,117.37,0,0,1-22.59,26,95,95,0,0,1-24.56,15.17,1.27,1.27,0,0,1-.89-.11,1.85,1.85,0,0,1-.72-.76L3.25,117.82a2,2,0,0,1-.4-1.5,1.5,1.5,0,0,1,.71-1.12A120,120,0,0,0,27,99.53,141.45,141.45,0,0,0,49.73,74.87a1.22,1.22,0,0,1,1.13-.2,1.71,1.71,0,0,1,.9.78Q57.15,85.47,62.52,95.51Z" transform="translate(-2.58 -2.58)"/><path class="cls-5" d="M21.66,103.76,34.1,128.17Z" transform="translate(-2.58 -2.58)"/><path d="M21.68,103.75q3.33,6,6.38,12.12c1,2,2,4.12,3,6.16s2.08,4.06,3.15,6.08l-.24.12c-2.14-4-4.28-8.07-6.33-12.15-1-2-2-4.08-3-6.13s-2-4.11-3-6.18Zm0,0c1.11,2,2.18,4,3.25,6s2.15,4,3.18,6.07c2.1,4.05,4.11,8.15,6.11,12.26l-.24.12c-1-2-2-4.1-3.07-6.12s-2.15-4-3.22-6q-3.15-6.07-6.06-12.29Z" transform="translate(-2.58 -2.58)"/><path class="cls-5" d="M13.17,109.9l12.28,23.86Z" transform="translate(-2.58 -2.58)"/><path d="M13.19,109.89q3.3,5.85,6.3,11.85c1,2,2,4,3,6s2.05,4,3.11,5.94l-.24.12c-2.12-3.94-4.23-7.88-6.25-11.87-1-2-2-4-3-6s-2-4-2.93-6Zm0,0c1.1,2,2.16,3.92,3.21,5.89s2.12,3.94,3.14,5.93c2.07,4,4.05,8,6,12l-.24.12c-1-2-2-4-3-6s-2.12-3.94-3.18-5.91c-2.07-4-4.08-8-6-12Z" transform="translate(-2.58 -2.58)"/><polyline class="cls-5" points="39.55 119.33 27.05 94.8 39.55 119.33"/><path d="M42.12,121.93q-3.36-6-6.42-12.18c-1-2.06-2-4.14-3-6.19s-2.12-4.07-3.17-6.11l.24-.12c2.15,4,4.3,8.11,6.36,12.21,1.05,2,2.05,4.1,3.06,6.16s2,4.13,3,6.21l0,0c-1.12-2-2.19-4-3.27-6.06s-2.15-4.05-3.19-6.1c-2.11-4.08-4.13-8.2-6.14-12.32l.24-.12c1,2,2,4.12,3.08,6.15s2.16,4,3.23,6.08q3.18,6.1,6.09,12.35Z" transform="translate(-2.58 -2.58)"/><polyline class="cls-5" points="47.15 112.06 34.15 88.02 47.15 112.06"/><path d="M49.72,114.66c-2.32-3.93-4.53-7.91-6.67-11.94-1-2-2.07-4.06-3.14-6.06s-2.18-4-3.3-6l.24-.13c2.24,4,4.46,7.94,6.61,12,1.09,2,2.14,4,3.19,6s2.1,4,3.11,6.08l0,0c-1.16-2-2.28-4-3.39-5.94s-2.24-4-3.32-6c-2.19-4-4.3-8-6.4-12.08l.24-.13c1,2,2.1,4,3.21,6s2.24,4,3.36,6q3.3,6,6.34,12.1Z" transform="translate(-2.58 -2.58)"/><polyline class="cls-5" points="54.51 103.43 41.47 79.63 54.51 103.43"/><path d="M57.07,106q-3.48-5.82-6.68-11.81c-1.06-2-2.07-4-3.15-6s-2.18-4-3.3-5.92l.24-.13C46.42,86.08,48.65,90,50.8,94c1.09,2,2.14,4,3.19,6s2.11,4,3.13,6l0,0c-1.16-1.94-2.28-3.91-3.39-5.87s-2.25-3.93-3.33-5.91c-2.2-4-4.31-8-6.41-12l.24-.13c1,2,2.1,4,3.21,6S49.64,92,50.76,94q3.3,5.92,6.36,12Z" transform="translate(-2.58 -2.58)"/><path d="M8.42,128a134.58,134.58,0,0,0,13.8-8.64A139.6,139.6,0,0,0,34.87,109.1,148.68,148.68,0,0,0,46.32,97.54q5.41-6.08,10.25-12.66a144.6,144.6,0,0,1-10,12.92,139.5,139.5,0,0,1-11.4,11.67,131.49,131.49,0,0,1-12.77,10.17A114.5,114.5,0,0,1,8.42,128Z" transform="translate(-2.58 -2.58)"/><path class="cls-6" d="M138.51,23.2a2.59,2.59,0,0,1,.38,1.23,2.5,2.5,0,0,1-.12.92A119.36,119.36,0,0,1,117.5,52.58,96.51,96.51,0,0,1,93.8,69.15a2.85,2.85,0,0,1-2.57.25,1.41,1.41,0,0,1-.3-.24c-.86-.89-7.4-14.32-10.25-20.22a2,2,0,0,1-.46-1.47,1.49,1.49,0,0,1,.65-1.16c16-9.75,22.58-17,22.58-17,5.8-2.91,13.29-9.51,19.91-26.11A2.72,2.72,0,0,1,125.51,3a3.33,3.33,0,0,1,1.43.93C133.38,14.59,138.05,22.42,138.51,23.2Z" transform="translate(-2.58 -2.58)"/><path class="cls-4" d="M137,23a2.59,2.59,0,0,1,.38,1.23,2.48,2.48,0,0,1-.13.93A121.6,121.6,0,0,1,115.72,52.6,97.94,97.94,0,0,1,91.81,69.37a1.26,1.26,0,0,1-.89-.05,1.81,1.81,0,0,1-.76-.72L78.68,49.17a2,2,0,0,1-.45-1.47,1.55,1.55,0,0,1,.66-1.17,124.42,124.42,0,0,0,22.78-17.19A146.8,146.8,0,0,0,123.36,3.21a1.28,1.28,0,0,1,1.13-.27,1.65,1.65,0,0,1,.92.72Z" transform="translate(-2.58 -2.58)"/><path class="cls-5" d="M94.41,35.74l13.42,23.55Z" transform="translate(-2.58 -2.58)"/><path d="M94.43,35.72Q98,41.5,101.3,47.41c1.09,2,2.13,4,3.25,6s2.24,3.92,3.39,5.86l-.23.14c-2.31-3.89-4.6-7.78-6.82-11.72-1.12-2-2.2-3.94-3.28-5.93s-2.18-4-3.22-6Zm0,0c1.19,1.92,2.34,3.87,3.49,5.82s2.31,3.88,3.42,5.85c2.26,3.91,4.43,7.87,6.6,11.83l-.23.14c-1.09-2-2.17-4-3.31-5.91s-2.32-3.89-3.46-5.83q-3.41-5.86-6.55-11.87Z" transform="translate(-2.58 -2.58)"/><path class="cls-5" d="M86.06,42.23,99.19,65.16Z" transform="translate(-2.58 -2.58)"/><path d="M86.09,42.22q3.5,5.61,6.72,11.38c1.06,1.92,2.08,3.87,3.17,5.79s2.2,3.81,3.33,5.7l-.24.14c-2.26-3.78-4.5-7.57-6.67-11.4-1.1-1.91-2.15-3.84-3.21-5.77S87.06,44.2,86,42.25Zm0,0c1.16,1.87,2.29,3.76,3.41,5.66s2.26,3.78,3.35,5.69c2.21,3.81,4.34,7.66,6.46,11.52l-.24.14C98,63.3,97,61.37,95.83,59.47s-2.26-3.77-3.38-5.67C90.23,50,88.08,46.15,86,42.25Z" transform="translate(-2.58 -2.58)"/><polyline class="cls-5" points="113.14 50.02 99.66 26.34 113.14 50.02"/><path d="M115.7,52.62q-3.58-5.8-6.9-11.75c-1.09-2-2.14-4-3.26-6S103.29,31,102.13,29l.24-.14c2.31,3.91,4.61,7.82,6.84,11.78,1.13,2,2.21,4,3.3,6s2.18,4,3.23,6l0,0c-1.2-1.93-2.35-3.89-3.5-5.85s-2.32-3.9-3.44-5.88C106.49,37,104.31,33,102.13,29l.24-.14c1.08,2,2.18,4,3.32,5.94s2.32,3.91,3.47,5.86q3.42,5.9,6.58,11.93Z" transform="translate(-2.58 -2.58)"/><polyline class="cls-5" points="120.6 42.6 106.63 19.45 120.6 42.6"/><path d="M123.16,45.2q-3.7-5.66-7.14-11.48c-1.14-1.95-2.23-3.92-3.39-5.85S110.3,24,109.1,22.11l.23-.14c2.4,3.81,4.78,7.64,7.09,11.51,1.17,1.93,2.3,3.88,3.42,5.83s2.27,3.89,3.36,5.87l0,0c-1.24-1.88-2.43-3.79-3.63-5.71s-2.39-3.81-3.55-5.74c-2.35-3.85-4.62-7.74-6.88-11.64l.23-.14c1.13,2,2.27,3.89,3.45,5.81s2.41,3.81,3.6,5.73q3.54,5.76,6.82,11.67Z" transform="translate(-2.58 -2.58)"/><polyline class="cls-5" points="127.56 33.35 113.57 10.44 127.56 33.35"/><path d="M130.12,36c-2.48-3.73-4.85-7.53-7.15-11.36-1.14-1.93-2.23-3.88-3.39-5.79S117.24,15,116,13.1l.23-.15c2.4,3.78,4.79,7.56,7.1,11.4,1.17,1.9,2.3,3.83,3.43,5.76s2.27,3.86,3.36,5.81l0,0c-1.24-1.87-2.43-3.76-3.63-5.65s-2.4-3.77-3.56-5.69c-2.35-3.8-4.62-7.66-6.89-11.51l.23-.15c1.13,1.93,2.27,3.86,3.46,5.76s2.4,3.77,3.6,5.66c2.36,3.8,4.65,7.64,6.83,11.55Z" transform="translate(-2.58 -2.58)"/><path d="M84.26,59a139.43,139.43,0,0,0,13.43-9.55,143.71,143.71,0,0,0,12.22-11,157.89,157.89,0,0,0,11-12.3q5.16-6.43,9.72-13.32a150.41,150.41,0,0,1-9.42,13.56,147.6,147.6,0,0,1-10.91,12.41,136.79,136.79,0,0,1-12.34,11A118.78,118.78,0,0,1,84.26,59Z" transform="translate(-2.58 -2.58)"/><path class="cls-7" d="M67.85,66c-2.23,1.89-2.82,5.72-1.34,8.56s4.48,3.59,6.7,1.7S76,70.53,74.55,67.7,70.07,64.1,67.85,66Zm3.06,6.82a.39.39,0,0,1,0,.39s0,.07-.08.11a.23.23,0,0,1-.21,0l-3.12-.64,1.09,2.07a.42.42,0,0,1,0,.47l0,0a.23.23,0,0,1-.37-.07l0,0L66.66,72.4a.37.37,0,0,1,0-.38.24.24,0,0,1,.29-.16l3.14.67L69,70.45a.4.4,0,0,1,0-.47l0,0a.2.2,0,0,1,.34,0l0,0Zm2.6-2.73a1.51,1.51,0,0,1-.45,1.33.83.83,0,0,1-1.13,0l-2-1.62a.43.43,0,0,1,0-.51.23.23,0,0,1,.31-.08l2,1.6a.4.4,0,0,0,.63-.17.79.79,0,0,0,.07-.43l-.38-3a.37.37,0,0,1,.23-.41c.15-.05.3.07.34.26h0Z" transform="translate(-2.58 -2.58)"/><text class="cls-8" transform="matrix(0.54, 0.92, -0.72, 0.69, 47.11, 35.56)">D<tspan class="cls-9" x="5.11" y="0">E</tspan><tspan class="cls-10" x="10.34" y="0">V</tspan></text><path class="cls-11" d="M54.26,28.28Q61.11,39.18,68,50.09A7.13,7.13,0,0,1,70,49a6.8,6.8,0,0,1,2.28-.36L58.49,28a2.86,2.86,0,0,0-1.29-.87C55.64,26.65,54.39,28.12,54.26,28.28Z" transform="translate(-2.58 -2.58)"/><path class="cls-11" d="M83.55,87.35l7.29,12.38.25-.09a2.27,2.27,0,0,0,.65-.39c.54-.46.44-1.6.42-1.77A3.41,3.41,0,0,0,91.67,96L86.8,87.41a5.43,5.43,0,0,0-1.93-.28A5.34,5.34,0,0,0,83.55,87.35Z" transform="translate(-2.58 -2.58)"/><path class="cls-12" d="M68.29,50.56q4.18,7.15,8.37,14.9Q81.1,73.71,85,81.61q1.37-.42,3-.78t3-.54c-2.22-4.57-4-8.2-5-10.46C82.27,62.2,80.52,58.29,77,53.23c-.86-1.22-1.61-2.19-2.1-2.82a4.9,4.9,0,0,0-2-1A5.55,5.55,0,0,0,68.29,50.56Z" transform="translate(-2.58 -2.58)"/><path class="cls-12" d="M46.9,25.09l1.58,2.43,2,3,1.51-1.15,1.35-1.06a11.85,11.85,0,0,0-.85-1.48A12.09,12.09,0,0,0,50.84,25a3.09,3.09,0,0,0-.86-.72,2.48,2.48,0,0,0-1.8-.09A2.63,2.63,0,0,0,46.9,25.09Z" transform="translate(-2.58 -2.58)"/><path class="cls-13" d="M85.69,92.63a12.59,12.59,0,0,0-4.48,3.14l-.72-1A11.47,11.47,0,0,1,85,91.61Z" transform="translate(-2.58 -2.58)"/><path class="cls-13" d="M87.13,94.69a9.84,9.84,0,0,0-2.37,1.19,10,10,0,0,0-2.11,2l-.71-1a9.06,9.06,0,0,1,4.48-3.14Z" transform="translate(-2.58 -2.58)"/><path class="cls-14" d="M86.41,93.66a10.37,10.37,0,0,0-4.48,3.14l-.72-1a12.18,12.18,0,0,1,2.09-1.85,12.36,12.36,0,0,1,2.39-1.3Z" transform="translate(-2.58 -2.58)"/><circle class="cls-15" cx="81.02" cy="91.87" r="0.52"/><path class="cls-3" d="M85.87,98.69c2-1.37,5.27-2.13,6.29-.85s-.47,4.49-2.52,6.18c-2.28,1.88-6,2.58-7,1.24S83.35,100.4,85.87,98.69Z" transform="translate(-2.58 -2.58)"/><path class="cls-3" d="M92.28,109.46a51.52,51.52,0,0,1,10.22-6.64,47.9,47.9,0,0,1,6.91-2.67,66,66,0,0,1-4.57,7.81,56.6,56.6,0,0,1-8.68,10.22,47.22,47.22,0,0,1-17.52,9.89A53.08,53.08,0,0,1,92.28,109.46Z" transform="translate(-2.58 -2.58)"/><ellipse class="cls-2" cx="85.74" cy="100.3" rx="2.39" ry="3.05"/><path class="cls-2" d="M88.44,102.51c9.52-8.14,21.16-4.08,21.25-2.9.06.78-4.73,1.09-12.16,5.61a40.43,40.43,0,0,0-6.1,4.45,46,46,0,0,0-5.24,5.45c-5.72,7-7.55,13.4-8,13.13C77.47,127.84,78.28,111.19,88.44,102.51Z" transform="translate(-2.58 -2.58)"/><polygon class="cls-1" points="100.67 127.64 81.22 119.23 81.62 117.73 101.07 126.14 100.67 127.64"/><polygon class="cls-1" points="101.51 128.88 89.24 107.88 90.23 106.93 102.5 127.94 101.51 128.88"/><rect class="cls-16" x="90.94" y="115.87" width="26.2" height="1.24" transform="translate(217.94 9.87) rotate(90)"/><ellipse class="cls-17" cx="101.13" cy="126.76" rx="2.39" ry="3.05"/><path class="cls-18" d="M102.48,127.12a3.91,3.91,0,0,1,1.86,1.83,5.77,5.77,0,0,1,.61,2.75,3,3,0,0,0,.66-.85,3.5,3.5,0,0,0,.35-1,4.14,4.14,0,0,0-.19-1.37,3,3,0,0,0-.71-1.28,1.94,1.94,0,0,0-1.17-.57A1.87,1.87,0,0,0,102.48,127.12Z" transform="translate(-2.58 -2.58)"/><path class="cls-12" d="M103.32,101.81l3.16-1.18,2.91-1.06A17,17,0,0,0,106,98.28a15.66,15.66,0,0,0-5-.44Z" transform="translate(-2.58 -2.58)"/><path class="cls-12" d="M88.17,102.38c.3-.26.62-.53,1-.79s.53-.39.79-.56a2.31,2.31,0,0,0-1-.8,1.61,1.61,0,0,0-.65-.14,1.82,1.82,0,0,0-1.18.53Z" transform="translate(-2.58 -2.58)"/></svg>