<svg id="Capa_2" data-name="Capa 2" xmlns="http://www.w3.org/2000/svg" viewBox="0 0 136.56 136.56"><defs><style>.cls-1,.cls-7{fill:#fff;}.cls-1,.cls-14,.cls-15,.cls-2,.cls-3,.cls-4,.cls-5,.cls-6,.cls-7{stroke:#000;stroke-miterlimit:10;}.cls-1,.cls-2,.cls-3,.cls-4,.cls-5,.cls-6{stroke-width:0.5px;}.cls-2{fill:#676799;}.cls-4{fill:#f69;}.cls-5{fill:#b37de8;}.cls-6{fill:none;}.cls-14,.cls-15,.cls-7{stroke-width:0.25px;}.cls-8{font-size:5.93px;font-family:VarinoNormal-Regular, Varino;}.cls-9{letter-spacing:-0.03em;}.cls-10{letter-spacing:-0.01em;}.cls-11{fill:#9cf;}.cls-12{fill:#e8318a;}.cls-13{fill:#639;}.cls-14{fill:#00bcdf;}.cls-15{fill:#f3e600;}</style></defs><polygon class="cls-1" points="58.8 78.18 54.26 82.49 51.49 77.73 56.03 73.43 58.8 78.18"/><polygon class="cls-1" points="83.34 56.07 78.79 60.38 76.02 55.63 80.57 51.32 83.34 56.07"/><path class="cls-2" d="M55.34,31.31C52,34,49.43,36.08,47.82,37.38a2.68,2.68,0,0,1-4.33-.86l-2-3.44a3.78,3.78,0,0,1-.63-3.26,2.51,2.51,0,0,1,.47-.79l6.13-4.91a3,3,0,0,1,.73-.29,3.6,3.6,0,0,1,1.34,0c.63.12,1.13.52,2.15,1.74a21.1,21.1,0,0,1,2,2.7A26.53,26.53,0,0,1,55.34,31.31Z" transform="translate(-2.58 -2.58)"/><path class="cls-1" d="M73.7,52.35c-.17,2.77-2.59,3.79-7.28,7.76-7,5.9-8.28,8.79-10.75,8.23-.82-.19-2.54-.94-3.94-5-5.4-11.07-9.23-19.2-10-20.94a4.81,4.81,0,0,1-.36-2.79,4.72,4.72,0,0,1,.81-1.89c6.25-5.12,10.87-8.87,12.51-10.28a3,3,0,0,1,1.83-.8,3,3,0,0,1,2.62,1.64L71.67,47.32A7.45,7.45,0,0,1,73.7,52.35Z" transform="translate(-2.58 -2.58)"/><path class="cls-2" d="M52.32,65.05c.64-2.78,3.49-5.1,9.2-9.72S69.87,48.57,72.46,49c3.15.47,4.89,3.67,9.56,12.92,3.67,7.26,6.78,13.56,9.23,18.58a14,14,0,0,0-6.21.76,18.67,18.67,0,0,0-6,3.81,23.2,23.2,0,0,0-5.37,6.09,26.75,26.75,0,0,0-3,7.47c-4.23-7.34-7.95-13.17-10.62-17.21C54.07,72.25,51.38,69.16,52.32,65.05Z" transform="translate(-2.58 -2.58)"/><path class="cls-3" d="M79.07,85a17.22,17.22,0,0,1,12.18-4.26,28.34,28.34,0,0,1-7.88,13,18.52,18.52,0,0,1-12.48,4.95C71.42,96.66,73.4,89.8,79.07,85Z" transform="translate(-2.58 -2.58)"/><path class="cls-1" d="M90.93,101l-4.65,4.41a2.66,2.66,0,0,1-4.32-.62l-5-8.24a4.37,4.37,0,0,1-.3-1.59,4.46,4.46,0,0,1,.23-1.3A11.06,11.06,0,0,1,80.5,88.8a8.85,8.85,0,0,1,3.55-1.9,4.12,4.12,0,0,1,1.44-.1,4,4,0,0,1,1.83.75c.46.82,1.5,2.65,2.87,5.09,1.66,2.94,2.48,4.44,2.17,5.94A4.69,4.69,0,0,1,90.93,101Z" transform="translate(-2.58 -2.58)"/><path class="cls-3" d="M92.22,108.89c7.53-6.61,14.23-8.21,16.51-8.64A54.61,54.61,0,0,1,96.1,117.61c-7.68,7-14.61,9-17,9.52A52,52,0,0,1,92.22,108.89Z" transform="translate(-2.58 -2.58)"/><ellipse class="cls-2" cx="85.68" cy="99.73" rx="2.39" ry="3.05"/><path class="cls-2" d="M88.38,101.94c9.52-8.14,21.16-4.08,21.25-2.9.06.78-4.73,1.09-12.16,5.61a40.43,40.43,0,0,0-6.1,4.45,46,46,0,0,0-5.24,5.45c-5.72,7-7.55,13.4-8,13.13C77.41,127.27,78.22,110.62,88.38,101.94Z" transform="translate(-2.58 -2.58)"/><path class="cls-2" d="M27.14,78.33" transform="translate(-2.58 -2.58)"/><polygon class="cls-1" points="100.61 127.07 81.16 118.66 81.56 117.16 101.01 125.57 100.61 127.07"/><polygon class="cls-1" points="101.45 128.31 89.18 107.31 90.17 106.36 102.44 127.37 101.45 128.31"/><rect class="cls-1" x="90.88" y="115.3" width="26.2" height="1.24" transform="translate(217.31 9.36) rotate(90)"/><ellipse class="cls-4" cx="101.07" cy="126.19" rx="2.39" ry="3.05"/><path class="cls-2" d="M64,95.83a2.54,2.54,0,0,1,.34,1.25,2.24,2.24,0,0,1-.17.91,114.86,114.86,0,0,1-22.34,25.8,93.17,93.17,0,0,1-24.33,15,1.29,1.29,0,0,1-.89-.12,1.87,1.87,0,0,1-.72-.77L5.25,117.72a2.08,2.08,0,0,1-.4-1.49,1.45,1.45,0,0,1,.7-1.12c16.34-8.69,23.24-15.48,23.24-15.48,5.9-2.52,13.65-8.63,20.94-24.76a2.63,2.63,0,0,1,2.15-.12,3.42,3.42,0,0,1,1.4,1C59.27,86.89,63.62,95,64,95.83Z" transform="translate(-2.58 -2.58)"/><path class="cls-5" d="M62.52,95.51a2.58,2.58,0,0,1,.34,1.25,2.66,2.66,0,0,1-.17.92,117.37,117.37,0,0,1-22.59,26,95,95,0,0,1-24.56,15.17,1.27,1.27,0,0,1-.89-.11,1.85,1.85,0,0,1-.72-.76L3.25,117.82a2,2,0,0,1-.4-1.5,1.5,1.5,0,0,1,.71-1.12A120,120,0,0,0,27,99.53,141.45,141.45,0,0,0,49.73,74.87a1.22,1.22,0,0,1,1.13-.2,1.71,1.71,0,0,1,.9.78Q57.15,85.47,62.52,95.51Z" transform="translate(-2.58 -2.58)"/><path class="cls-2" d="M19.5,105.44l12.44,24.41Z" transform="translate(-2.58 -2.58)"/><path class="cls-2" d="M10.9,111.38l12.18,23.76Z" transform="translate(-2.58 -2.58)"/><polyline class="cls-2" points="37.51 121.11 25.02 96.57 37.51 121.11"/><polyline class="cls-2" points="45.26 114.19 32.26 90.15 45.26 114.19"/><polyline class="cls-2" points="52.59 105.41 39.55 81.61 52.59 105.41"/><path class="cls-6" d="M8.42,128A127.56,127.56,0,0,0,35.26,109.1,151.08,151.08,0,0,0,56.57,84.88" transform="translate(-2.58 -2.58)"/><path class="cls-2" d="M138.51,23.2a2.59,2.59,0,0,1,.38,1.23,2.5,2.5,0,0,1-.12.92A119.36,119.36,0,0,1,117.5,52.58,96.51,96.51,0,0,1,93.8,69.15a1.28,1.28,0,0,1-.89-.06,1.83,1.83,0,0,1-.75-.72L80.68,48.94a2,2,0,0,1-.46-1.47,1.49,1.49,0,0,1,.65-1.16c16-9.75,22.58-17,22.58-17,5.8-2.91,13.29-9.51,19.91-26.11A2.72,2.72,0,0,1,125.51,3a3.33,3.33,0,0,1,1.43.93C133.38,14.59,138.05,22.42,138.51,23.2Z" transform="translate(-2.58 -2.58)"/><path class="cls-5" d="M137,23a2.59,2.59,0,0,1,.38,1.23,2.48,2.48,0,0,1-.13.93A121.6,121.6,0,0,1,115.72,52.6,97.94,97.94,0,0,1,91.81,69.37a1.26,1.26,0,0,1-.89-.05,1.81,1.81,0,0,1-.76-.72L78.68,49.17a2,2,0,0,1-.45-1.47,1.55,1.55,0,0,1,.66-1.17,124.42,124.42,0,0,0,22.78-17.19A146.8,146.8,0,0,0,123.36,3.21a1.28,1.28,0,0,1,1.13-.27,1.65,1.65,0,0,1,.92.72Z" transform="translate(-2.58 -2.58)"/><path class="cls-2" d="M94.41,35.74l13.42,23.55Z" transform="translate(-2.58 -2.58)"/><path class="cls-2" d="M86.06,42.23,99.19,65.16Z" transform="translate(-2.58 -2.58)"/><polyline class="cls-2" points="113.14 50.02 99.66 26.34 113.14 50.02"/><polyline class="cls-2" points="120.6 42.6 106.63 19.45 120.6 42.6"/><polyline class="cls-2" points="127.56 33.35 113.57 10.44 127.56 33.35"/><path class="cls-6" d="M84.26,59a132.31,132.31,0,0,0,26-20.62A156.22,156.22,0,0,0,130.6,12.76" transform="translate(-2.58 -2.58)"/><path class="cls-7" d="M67.85,66c-2.23,1.89-2.82,5.72-1.34,8.56s4.48,3.59,6.7,1.7S76,70.53,74.55,67.7,70.07,64.1,67.85,66Zm3.06,6.82a.39.39,0,0,1,0,.39s0,.07-.08.11a.23.23,0,0,1-.21,0l-3.12-.64,1.09,2.07a.42.42,0,0,1,0,.47l0,0a.23.23,0,0,1-.37-.07l0,0L66.66,72.4a.37.37,0,0,1,0-.38.24.24,0,0,1,.29-.16l3.14.67L69,70.45a.4.4,0,0,1,0-.47l0,0a.2.2,0,0,1,.34,0l0,0Zm2.6-2.73a1.51,1.51,0,0,1-.45,1.33.83.83,0,0,1-1.13,0l-2-1.62a.43.43,0,0,1,0-.51.23.23,0,0,1,.31-.08l2,1.6a.4.4,0,0,0,.63-.17.79.79,0,0,0,.07-.43l-.38-3a.37.37,0,0,1,.23-.41c.15-.05.3.07.34.26h0Z" transform="translate(-2.58 -2.58)"/><text class="cls-8" transform="matrix(0.54, 0.92, -0.72, 0.69, 47.11, 35.59)"><tspan class="cls-9">D</tspan><tspan class="cls-10" x="5.11" y="0">E</tspan><tspan x="10.34" y="0">V</tspan></text><path class="cls-11" d="M54.26,28.28Q61.11,39.18,68,50.09A7.13,7.13,0,0,1,70,49a6.8,6.8,0,0,1,2.28-.36L58.49,28a2.86,2.86,0,0,0-1.29-.87C55.64,26.65,54.39,28.12,54.26,28.28Z" transform="translate(-2.58 -2.58)"/><path class="cls-11" d="M83.55,87.35l7.29,12.38a1.3,1.3,0,0,0,.66-.39A2.81,2.81,0,0,0,92,97.27L91.67,96,86.8,87.41a5.43,5.43,0,0,0-1.93-.28A5.34,5.34,0,0,0,83.55,87.35Z" transform="translate(-2.58 -2.58)"/><path class="cls-12" d="M102.42,126.55a3.91,3.91,0,0,1,1.86,1.83,5.77,5.77,0,0,1,.61,2.75,3,3,0,0,0,.66-.85,3.5,3.5,0,0,0,.35-1,4.14,4.14,0,0,0-.19-1.37,3,3,0,0,0-.71-1.28,1.94,1.94,0,0,0-1.17-.57A1.87,1.87,0,0,0,102.42,126.55Z" transform="translate(-2.58 -2.58)"/><path class="cls-13" d="M68.29,50.56q4.18,7.15,8.37,14.9,4.31,8,8.08,15.62a16.29,16.29,0,0,1,2.94-.84A14.81,14.81,0,0,1,90.8,80c-2.16-4.4-3.84-7.93-4.92-10.19-3.63-7.64-5.36-11.54-8.93-16.6-.86-1.22-1.61-2.19-2.1-2.82a4.9,4.9,0,0,0-2-1A5.55,5.55,0,0,0,68.29,50.56Z" transform="translate(-2.58 -2.58)"/><path class="cls-13" d="M46.9,25.09l1.58,2.43,2,3,1.51-1.15,1.35-1.06a11.85,11.85,0,0,0-.85-1.48A12.09,12.09,0,0,0,50.84,25a3.09,3.09,0,0,0-.86-.72,2.48,2.48,0,0,0-1.8-.09A2.63,2.63,0,0,0,46.9,25.09Z" transform="translate(-2.58 -2.58)"/><path class="cls-13" d="M103.26,101.24l3.16-1.18L109.33,99a17,17,0,0,0-3.44-1.29,15.66,15.66,0,0,0-5-.44Z" transform="translate(-2.58 -2.58)"/><path class="cls-14" d="M86.5,93A12.42,12.42,0,0,0,84,94.21a12.29,12.29,0,0,0-2.11,1.7l-.67-1.06a11.94,11.94,0,0,1,2.1-1.72,11.73,11.73,0,0,1,2.52-1.21Z" transform="translate(-2.58 -2.58)"/><path class="cls-14" d="M87.84,95.1a9.72,9.72,0,0,0-2.42,1.09A10,10,0,0,0,83.22,98l-.67-1a9,9,0,0,1,2-1.81A9.14,9.14,0,0,1,87.17,94Z" transform="translate(-2.58 -2.58)"/><path class="cls-7" d="M87.17,94a10.37,10.37,0,0,0-2.44,1.11A10.6,10.6,0,0,0,82.55,97l-.67-1A12,12,0,0,1,86.5,93Z" transform="translate(-2.58 -2.58)"/><circle class="cls-15" cx="81.75" cy="92.12" r="0.52"/></svg>