<svg id="Capa_2" data-name="Capa 2" xmlns="http://www.w3.org/2000/svg" viewBox="0 0 53.9 49.81"><defs><style>.cls-1{fill:#31b882;}.cls-2{fill:#354860;}</style></defs><path class="cls-1" d="M47.23,5.48c3.09-.05,6.19-.13,9.29-.08.26,0,.85,1.1.71,1.37-4.53,8.34-9.13,16.65-13.72,25Q37.38,42.87,31.26,54c-.73,1.34-1.13,1.58-2,0C20.66,38.3,12,22.56,3.37,6.77c-.14-.25.52-1.36.81-1.37,3-.06,6.06,0,9.09.06,1,1.91,1.94,3.85,3,5.74q6.6,12,13.27,24a4.46,4.46,0,0,0,.81.88A11.79,11.79,0,0,0,31,35q3.14-5.67,6.25-11.35Q42.27,14.59,47.23,5.48Z" transform="translate(-3.35 -5.34)"/><path class="cls-2" d="M47.23,5.48q-5,9.11-9.94,18.21Q34.19,29.38,31,35a11.79,11.79,0,0,1-.71,1,4.46,4.46,0,0,1-.81-.88q-6.66-12-13.27-24c-1-1.89-2-3.83-3-5.74,3.09,0,6.19-.17,9.28-.08a2.88,2.88,0,0,1,1.93,1.31c1.73,2.9,3.28,5.9,5,8.8a1.75,1.75,0,0,0,1.56,0c1.69-2.84,3.16-5.81,4.92-8.6A3.82,3.82,0,0,1,38.6,5.39C41.47,5.24,44.35,5.43,47.23,5.48Z" transform="translate(-3.35 -5.34)"/></svg>